  0
SECTION
  2
HEADER
  9
$ANGBASE
  50
0.0
  9
$ANGDIR
  70
1
  9
$MEASUREMENT
  70
1
  0
ENDSEC
  0
SECTION
  2
TABLES
  0
TABLE
  2
LTYPE
  70
4
  0
LTYPE
  5
40F
  2
CONTINUOUS
  70
0
  3
Solid line
  72
65
  73
0
  40
0.0
  0
LTYPE
  5
410
  2
DASHDOT
 70
0
  3
Dash Dot ____ _ ____ _
 72
65
 73
4
 40
2.0
 49
1.25
 49
-0.25
 49
0.25
 49
-0.25
  0
LTYPE
  5
411
  2
DASHED
 70
0
  3
Dashed __ __ __ __ __
 72
65
 73
2
 40
0.75
 49
0.5
 49
-0.25
  0
LTYPE
  5
43B
  2
DOTTED
 70
0
  3
Dotted .  .  .  .
 72
65
 73
2
 40
0.2
 49
0.0
 49
-0.2
  0
ENDTAB
  0
TABLE
  2
STYLE
  70
4
  0
STYLE
  2
KICAD
  70
0
  40
0
  41
1
  42
1
  50
0
  71
0
  3
isocp.shx
  0
STYLE
  2
KICADB
  70
0
  40
0
  41
1
  42
1
  50
0
  71
0
  3
isocp.shx
  0
STYLE
  2
KICADI
  70
0
  40
0
  41
1
  42
1
  50
15
  71
0
  3
isocp.shx
  0
STYLE
  2
KICADBI
  70
0
  40
0
  41
1
  42
1
  50
15
  71
0
  3
isocp.shx
  0
ENDTAB
  0
TABLE
  2
LAYER
  70
1
  0
LAYER
  2
BLACK
  70
0
  62
7
  6
CONTINUOUS
  0
ENDTAB
  0
ENDSEC
  0
SECTION
  2
ENTITIES
0
LINE
8
BLACK
6
CONTINUOUS
10
54.09
20
-40.87
11
108.29
21
-40.87
0
LINE
8
BLACK
6
CONTINUOUS
10
54.09
20
-71.17
11
54.09
21
-40.87
0
LINE
8
BLACK
6
CONTINUOUS
10
108.29
20
-71.07
11
54.09
21
-71.17
0
LINE
8
BLACK
6
CONTINUOUS
10
108.29
20
-40.87
11
108.29
21
-71.07
0
LINE
8
BLACK
6
CONTINUOUS
10
72.0771
20
-55.2771
11
72.1057
21
-55.1914
0
LINE
8
BLACK
6
CONTINUOUS
10
72.1057
20
-55.1914
11
72.1343
21
-55.1629
0
LINE
8
BLACK
6
CONTINUOUS
10
72.1343
20
-55.1629
11
72.1914
21
-55.1343
0
LINE
8
BLACK
6
CONTINUOUS
10
72.1914
20
-55.1343
11
72.2771
21
-55.1343
0
LINE
8
BLACK
6
CONTINUOUS
10
72.2771
20
-55.1343
11
72.3343
21
-55.1629
0
LINE
8
BLACK
6
CONTINUOUS
10
72.3343
20
-55.1629
11
72.3629
21
-55.1914
0
LINE
8
BLACK
6
CONTINUOUS
10
72.3629
20
-55.1914
11
72.3914
21
-55.2486
0
LINE
8
BLACK
6
CONTINUOUS
10
72.3914
20
-55.2486
11
72.3914
21
-55.4771
0
LINE
8
BLACK
6
CONTINUOUS
10
72.3914
20
-55.4771
11
71.7914
21
-55.4771
0
LINE
8
BLACK
6
CONTINUOUS
10
71.7914
20
-55.4771
11
71.7914
21
-55.2771
0
LINE
8
BLACK
6
CONTINUOUS
10
71.7914
20
-55.2771
11
71.82
21
-55.22
0
LINE
8
BLACK
6
CONTINUOUS
10
71.82
20
-55.22
11
71.8486
21
-55.1914
0
LINE
8
BLACK
6
CONTINUOUS
10
71.8486
20
-55.1914
11
71.9057
21
-55.1629
0
LINE
8
BLACK
6
CONTINUOUS
10
71.9057
20
-55.1629
11
71.9629
21
-55.1629
0
LINE
8
BLACK
6
CONTINUOUS
10
71.9629
20
-55.1629
11
72.02
21
-55.1914
0
LINE
8
BLACK
6
CONTINUOUS
10
72.02
20
-55.1914
11
72.0486
21
-55.22
0
LINE
8
BLACK
6
CONTINUOUS
10
72.0486
20
-55.22
11
72.0771
21
-55.2771
0
LINE
8
BLACK
6
CONTINUOUS
10
72.0771
20
-55.2771
11
72.0771
21
-55.4771
0
LINE
8
BLACK
6
CONTINUOUS
10
72.4486
20
-54.4771
11
72.42
21
-54.5343
0
LINE
8
BLACK
6
CONTINUOUS
10
72.42
20
-54.5343
11
72.3629
21
-54.5914
0
LINE
8
BLACK
6
CONTINUOUS
10
72.3629
20
-54.5914
11
72.2771
21
-54.6771
0
LINE
8
BLACK
6
CONTINUOUS
10
72.2771
20
-54.6771
11
72.2486
21
-54.7343
0
LINE
8
BLACK
6
CONTINUOUS
10
72.2486
20
-54.7343
11
72.2486
21
-54.7914
0
LINE
8
BLACK
6
CONTINUOUS
10
72.3914
20
-54.7629
11
72.3629
21
-54.82
0
LINE
8
BLACK
6
CONTINUOUS
10
72.3629
20
-54.82
11
72.3057
21
-54.8771
0
LINE
8
BLACK
6
CONTINUOUS
10
72.3057
20
-54.8771
11
72.1914
21
-54.9057
0
LINE
8
BLACK
6
CONTINUOUS
10
72.1914
20
-54.9057
11
71.9914
21
-54.9057
0
LINE
8
BLACK
6
CONTINUOUS
10
71.9914
20
-54.9057
11
71.8771
21
-54.8771
0
LINE
8
BLACK
6
CONTINUOUS
10
71.8771
20
-54.8771
11
71.82
21
-54.82
0
LINE
8
BLACK
6
CONTINUOUS
10
71.82
20
-54.82
11
71.7914
21
-54.7629
0
LINE
8
BLACK
6
CONTINUOUS
10
71.7914
20
-54.7629
11
71.7914
21
-54.6486
0
LINE
8
BLACK
6
CONTINUOUS
10
71.7914
20
-54.6486
11
71.82
21
-54.5914
0
LINE
8
BLACK
6
CONTINUOUS
10
71.82
20
-54.5914
11
71.8771
21
-54.5343
0
LINE
8
BLACK
6
CONTINUOUS
10
71.8771
20
-54.5343
11
71.9914
21
-54.5057
0
LINE
8
BLACK
6
CONTINUOUS
10
71.9914
20
-54.5057
11
72.1914
21
-54.5057
0
LINE
8
BLACK
6
CONTINUOUS
10
72.1914
20
-54.5057
11
72.3057
21
-54.5343
0
LINE
8
BLACK
6
CONTINUOUS
10
72.3057
20
-54.5343
11
72.3629
21
-54.5914
0
LINE
8
BLACK
6
CONTINUOUS
10
72.3629
20
-54.5914
11
72.3914
21
-54.6486
0
LINE
8
BLACK
6
CONTINUOUS
10
72.3914
20
-54.6486
11
72.3914
21
-54.7629
0
LINE
8
BLACK
6
CONTINUOUS
10
72.3914
20
-53.9343
11
72.3914
21
-54.2771
0
LINE
8
BLACK
6
CONTINUOUS
10
72.3914
20
-54.1057
11
71.7914
21
-54.1057
0
LINE
8
BLACK
6
CONTINUOUS
10
71.7914
20
-54.1057
11
71.8771
21
-54.1629
0
LINE
8
BLACK
6
CONTINUOUS
10
71.8771
20
-54.1629
11
71.9343
21
-54.22
0
LINE
8
BLACK
6
CONTINUOUS
10
71.9343
20
-54.22
11
71.9629
21
-54.2771
0
LINE
8
BLACK
6
CONTINUOUS
10
74.91
20
-50.2443
11
74.8814
21
-50.2729
0
LINE
8
BLACK
6
CONTINUOUS
10
74.8814
20
-50.2729
11
74.7957
21
-50.3014
0
LINE
8
BLACK
6
CONTINUOUS
10
74.7957
20
-50.3014
11
74.7386
21
-50.3014
0
LINE
8
BLACK
6
CONTINUOUS
10
74.7386
20
-50.3014
11
74.6529
21
-50.2729
0
LINE
8
BLACK
6
CONTINUOUS
10
74.6529
20
-50.2729
11
74.5957
21
-50.2157
0
LINE
8
BLACK
6
CONTINUOUS
10
74.5957
20
-50.2157
11
74.5671
21
-50.1586
0
LINE
8
BLACK
6
CONTINUOUS
10
74.5671
20
-50.1586
11
74.5386
21
-50.0443
0
LINE
8
BLACK
6
CONTINUOUS
10
74.5386
20
-50.0443
11
74.5386
21
-49.9586
0
LINE
8
BLACK
6
CONTINUOUS
10
74.5386
20
-49.9586
11
74.5671
21
-49.8443
0
LINE
8
BLACK
6
CONTINUOUS
10
74.5671
20
-49.8443
11
74.5957
21
-49.7871
0
LINE
8
BLACK
6
CONTINUOUS
10
74.5957
20
-49.7871
11
74.6529
21
-49.73
0
LINE
8
BLACK
6
CONTINUOUS
10
74.6529
20
-49.73
11
74.7386
21
-49.7014
0
LINE
8
BLACK
6
CONTINUOUS
10
74.7386
20
-49.7014
11
74.7957
21
-49.7014
0
LINE
8
BLACK
6
CONTINUOUS
10
74.7957
20
-49.7014
11
74.8814
21
-49.73
0
LINE
8
BLACK
6
CONTINUOUS
10
74.8814
20
-49.73
11
74.91
21
-49.7586
0
LINE
8
BLACK
6
CONTINUOUS
10
75.4529
20
-49.7014
11
75.1671
21
-49.7014
0
LINE
8
BLACK
6
CONTINUOUS
10
75.1671
20
-49.7014
11
75.1386
21
-49.9871
0
LINE
8
BLACK
6
CONTINUOUS
10
75.1386
20
-49.9871
11
75.1671
21
-49.9586
0
LINE
8
BLACK
6
CONTINUOUS
10
75.1671
20
-49.9586
11
75.2243
21
-49.93
0
LINE
8
BLACK
6
CONTINUOUS
10
75.2243
20
-49.93
11
75.3671
21
-49.93
0
LINE
8
BLACK
6
CONTINUOUS
10
75.3671
20
-49.93
11
75.4243
21
-49.9586
0
LINE
8
BLACK
6
CONTINUOUS
10
75.4243
20
-49.9586
11
75.4529
21
-49.9871
0
LINE
8
BLACK
6
CONTINUOUS
10
75.4529
20
-49.9871
11
75.4814
21
-50.0443
0
LINE
8
BLACK
6
CONTINUOUS
10
75.4814
20
-50.0443
11
75.4814
21
-50.1871
0
LINE
8
BLACK
6
CONTINUOUS
10
75.4814
20
-50.1871
11
75.4529
21
-50.2443
0
LINE
8
BLACK
6
CONTINUOUS
10
75.4529
20
-50.2443
11
75.4243
21
-50.2729
0
LINE
8
BLACK
6
CONTINUOUS
10
75.4243
20
-50.2729
11
75.3671
21
-50.3014
0
LINE
8
BLACK
6
CONTINUOUS
10
75.3671
20
-50.3014
11
75.2243
21
-50.3014
0
LINE
8
BLACK
6
CONTINUOUS
10
75.2243
20
-50.3014
11
75.1671
21
-50.2729
0
LINE
8
BLACK
6
CONTINUOUS
10
75.1671
20
-50.2729
11
75.1386
21
-50.2443
0
LINE
8
BLACK
6
CONTINUOUS
10
81.7
20
-47.1843
11
81.6714
21
-47.2129
0
LINE
8
BLACK
6
CONTINUOUS
10
81.6714
20
-47.2129
11
81.5857
21
-47.2414
0
LINE
8
BLACK
6
CONTINUOUS
10
81.5857
20
-47.2414
11
81.5286
21
-47.2414
0
LINE
8
BLACK
6
CONTINUOUS
10
81.5286
20
-47.2414
11
81.4429
21
-47.2129
0
LINE
8
BLACK
6
CONTINUOUS
10
81.4429
20
-47.2129
11
81.3857
21
-47.1557
0
LINE
8
BLACK
6
CONTINUOUS
10
81.3857
20
-47.1557
11
81.3571
21
-47.0986
0
LINE
8
BLACK
6
CONTINUOUS
10
81.3571
20
-47.0986
11
81.3286
21
-46.9843
0
LINE
8
BLACK
6
CONTINUOUS
10
81.3286
20
-46.9843
11
81.3286
21
-46.8986
0
LINE
8
BLACK
6
CONTINUOUS
10
81.3286
20
-46.8986
11
81.3571
21
-46.7843
0
LINE
8
BLACK
6
CONTINUOUS
10
81.3571
20
-46.7843
11
81.3857
21
-46.7271
0
LINE
8
BLACK
6
CONTINUOUS
10
81.3857
20
-46.7271
11
81.4429
21
-46.67
0
LINE
8
BLACK
6
CONTINUOUS
10
81.4429
20
-46.67
11
81.5286
21
-46.6414
0
LINE
8
BLACK
6
CONTINUOUS
10
81.5286
20
-46.6414
11
81.5857
21
-46.6414
0
LINE
8
BLACK
6
CONTINUOUS
10
81.5857
20
-46.6414
11
81.6714
21
-46.67
0
LINE
8
BLACK
6
CONTINUOUS
10
81.6714
20
-46.67
11
81.7
21
-46.6986
0
LINE
8
BLACK
6
CONTINUOUS
10
82.2143
20
-46.6414
11
82.1
21
-46.6414
0
LINE
8
BLACK
6
CONTINUOUS
10
82.1
20
-46.6414
11
82.0429
21
-46.67
0
LINE
8
BLACK
6
CONTINUOUS
10
82.0429
20
-46.67
11
82.0143
21
-46.6986
0
LINE
8
BLACK
6
CONTINUOUS
10
82.0143
20
-46.6986
11
81.9571
21
-46.7843
0
LINE
8
BLACK
6
CONTINUOUS
10
81.9571
20
-46.7843
11
81.9286
21
-46.8986
0
LINE
8
BLACK
6
CONTINUOUS
10
81.9286
20
-46.8986
11
81.9286
21
-47.1271
0
LINE
8
BLACK
6
CONTINUOUS
10
81.9286
20
-47.1271
11
81.9571
21
-47.1843
0
LINE
8
BLACK
6
CONTINUOUS
10
81.9571
20
-47.1843
11
81.9857
21
-47.2129
0
LINE
8
BLACK
6
CONTINUOUS
10
81.9857
20
-47.2129
11
82.0429
21
-47.2414
0
LINE
8
BLACK
6
CONTINUOUS
10
82.0429
20
-47.2414
11
82.1571
21
-47.2414
0
LINE
8
BLACK
6
CONTINUOUS
10
82.1571
20
-47.2414
11
82.2143
21
-47.2129
0
LINE
8
BLACK
6
CONTINUOUS
10
82.2143
20
-47.2129
11
82.2429
21
-47.1843
0
LINE
8
BLACK
6
CONTINUOUS
10
82.2429
20
-47.1843
11
82.2714
21
-47.1271
0
LINE
8
BLACK
6
CONTINUOUS
10
82.2714
20
-47.1271
11
82.2714
21
-46.9843
0
LINE
8
BLACK
6
CONTINUOUS
10
82.2714
20
-46.9843
11
82.2429
21
-46.9271
0
LINE
8
BLACK
6
CONTINUOUS
10
82.2429
20
-46.9271
11
82.2143
21
-46.8986
0
LINE
8
BLACK
6
CONTINUOUS
10
82.2143
20
-46.8986
11
82.1571
21
-46.87
0
LINE
8
BLACK
6
CONTINUOUS
10
82.1571
20
-46.87
11
82.0429
21
-46.87
0
LINE
8
BLACK
6
CONTINUOUS
10
82.0429
20
-46.87
11
81.9857
21
-46.8986
0
LINE
8
BLACK
6
CONTINUOUS
10
81.9857
20
-46.8986
11
81.9571
21
-46.9271
0
LINE
8
BLACK
6
CONTINUOUS
10
81.9571
20
-46.9271
11
81.9286
21
-46.9843
0
LINE
8
BLACK
6
CONTINUOUS
10
77.3914
20
-52.5329
11
76.7914
21
-52.5329
0
LINE
8
BLACK
6
CONTINUOUS
10
76.7914
20
-52.5329
11
76.7914
21
-52.39
0
LINE
8
BLACK
6
CONTINUOUS
10
76.7914
20
-52.39
11
76.82
21
-52.3043
0
LINE
8
BLACK
6
CONTINUOUS
10
76.82
20
-52.3043
11
76.8771
21
-52.2471
0
LINE
8
BLACK
6
CONTINUOUS
10
76.8771
20
-52.2471
11
76.9343
21
-52.2186
0
LINE
8
BLACK
6
CONTINUOUS
10
76.9343
20
-52.2186
11
77.0486
21
-52.19
0
LINE
8
BLACK
6
CONTINUOUS
10
77.0486
20
-52.19
11
77.1343
21
-52.19
0
LINE
8
BLACK
6
CONTINUOUS
10
77.1343
20
-52.19
11
77.2486
21
-52.2186
0
LINE
8
BLACK
6
CONTINUOUS
10
77.2486
20
-52.2186
11
77.3057
21
-52.2471
0
LINE
8
BLACK
6
CONTINUOUS
10
77.3057
20
-52.2471
11
77.3629
21
-52.3043
0
LINE
8
BLACK
6
CONTINUOUS
10
77.3629
20
-52.3043
11
77.3914
21
-52.39
0
LINE
8
BLACK
6
CONTINUOUS
10
77.3914
20
-52.39
11
77.3914
21
-52.5329
0
LINE
8
BLACK
6
CONTINUOUS
10
77.3914
20
-51.9329
11
76.7914
21
-51.9329
0
LINE
8
BLACK
6
CONTINUOUS
10
76.7914
20
-51.9329
11
76.7914
21
-51.79
0
LINE
8
BLACK
6
CONTINUOUS
10
76.7914
20
-51.79
11
76.82
21
-51.7043
0
LINE
8
BLACK
6
CONTINUOUS
10
76.82
20
-51.7043
11
76.8771
21
-51.6471
0
LINE
8
BLACK
6
CONTINUOUS
10
76.8771
20
-51.6471
11
76.9343
21
-51.6186
0
LINE
8
BLACK
6
CONTINUOUS
10
76.9343
20
-51.6186
11
77.0486
21
-51.59
0
LINE
8
BLACK
6
CONTINUOUS
10
77.0486
20
-51.59
11
77.1343
21
-51.59
0
LINE
8
BLACK
6
CONTINUOUS
10
77.1343
20
-51.59
11
77.2486
21
-51.6186
0
LINE
8
BLACK
6
CONTINUOUS
10
77.2486
20
-51.6186
11
77.3057
21
-51.6471
0
LINE
8
BLACK
6
CONTINUOUS
10
77.3057
20
-51.6471
11
77.3629
21
-51.7043
0
LINE
8
BLACK
6
CONTINUOUS
10
77.3629
20
-51.7043
11
77.3914
21
-51.79
0
LINE
8
BLACK
6
CONTINUOUS
10
77.3914
20
-51.79
11
77.3914
21
-51.9329
0
LINE
8
BLACK
6
CONTINUOUS
10
77.3914
20
-51.0186
11
77.3914
21
-51.3614
0
LINE
8
BLACK
6
CONTINUOUS
10
77.3914
20
-51.19
11
76.7914
21
-51.19
0
LINE
8
BLACK
6
CONTINUOUS
10
76.7914
20
-51.19
11
76.8771
21
-51.2471
0
LINE
8
BLACK
6
CONTINUOUS
10
76.8771
20
-51.2471
11
76.9343
21
-51.3043
0
LINE
8
BLACK
6
CONTINUOUS
10
76.9343
20
-51.3043
11
76.9629
21
-51.3614
0
LINE
8
BLACK
6
CONTINUOUS
10
89.3814
20
-64.12
11
89.0957
21
-64.32
0
LINE
8
BLACK
6
CONTINUOUS
10
89.3814
20
-64.4629
11
88.7814
21
-64.4629
0
LINE
8
BLACK
6
CONTINUOUS
10
88.7814
20
-64.4629
11
88.7814
21
-64.2343
0
LINE
8
BLACK
6
CONTINUOUS
10
88.7814
20
-64.2343
11
88.81
21
-64.1771
0
LINE
8
BLACK
6
CONTINUOUS
10
88.81
20
-64.1771
11
88.8386
21
-64.1486
0
LINE
8
BLACK
6
CONTINUOUS
10
88.8386
20
-64.1486
11
88.8957
21
-64.12
0
LINE
8
BLACK
6
CONTINUOUS
10
88.8957
20
-64.12
11
88.9814
21
-64.12
0
LINE
8
BLACK
6
CONTINUOUS
10
88.9814
20
-64.12
11
89.0386
21
-64.1486
0
LINE
8
BLACK
6
CONTINUOUS
10
89.0386
20
-64.1486
11
89.0671
21
-64.1771
0
LINE
8
BLACK
6
CONTINUOUS
10
89.0671
20
-64.1771
11
89.0957
21
-64.2343
0
LINE
8
BLACK
6
CONTINUOUS
10
89.0957
20
-64.2343
11
89.0957
21
-64.4629
0
LINE
8
BLACK
6
CONTINUOUS
10
88.7814
20
-63.5771
11
88.7814
21
-63.8629
0
LINE
8
BLACK
6
CONTINUOUS
10
88.7814
20
-63.8629
11
89.0671
21
-63.8914
0
LINE
8
BLACK
6
CONTINUOUS
10
89.0671
20
-63.8914
11
89.0386
21
-63.8629
0
LINE
8
BLACK
6
CONTINUOUS
10
89.0386
20
-63.8629
11
89.01
21
-63.8057
0
LINE
8
BLACK
6
CONTINUOUS
10
89.01
20
-63.8057
11
89.01
21
-63.6629
0
LINE
8
BLACK
6
CONTINUOUS
10
89.01
20
-63.6629
11
89.0386
21
-63.6057
0
LINE
8
BLACK
6
CONTINUOUS
10
89.0386
20
-63.6057
11
89.0671
21
-63.5771
0
LINE
8
BLACK
6
CONTINUOUS
10
89.0671
20
-63.5771
11
89.1243
21
-63.5486
0
LINE
8
BLACK
6
CONTINUOUS
10
89.1243
20
-63.5486
11
89.2671
21
-63.5486
0
LINE
8
BLACK
6
CONTINUOUS
10
89.2671
20
-63.5486
11
89.3243
21
-63.5771
0
LINE
8
BLACK
6
CONTINUOUS
10
89.3243
20
-63.5771
11
89.3529
21
-63.6057
0
LINE
8
BLACK
6
CONTINUOUS
10
89.3529
20
-63.6057
11
89.3814
21
-63.6629
0
LINE
8
BLACK
6
CONTINUOUS
10
89.3814
20
-63.6629
11
89.3814
21
-63.8057
0
LINE
8
BLACK
6
CONTINUOUS
10
89.3814
20
-63.8057
11
89.3529
21
-63.8629
0
LINE
8
BLACK
6
CONTINUOUS
10
89.3529
20
-63.8629
11
89.3243
21
-63.8914
0
LINE
8
BLACK
6
CONTINUOUS
10
86.92
20
-60.6714
11
86.72
21
-60.3857
0
LINE
8
BLACK
6
CONTINUOUS
10
86.5771
20
-60.6714
11
86.5771
21
-60.0714
0
LINE
8
BLACK
6
CONTINUOUS
10
86.5771
20
-60.0714
11
86.8057
21
-60.0714
0
LINE
8
BLACK
6
CONTINUOUS
10
86.8057
20
-60.0714
11
86.8629
21
-60.1
0
LINE
8
BLACK
6
CONTINUOUS
10
86.8629
20
-60.1
11
86.8914
21
-60.1286
0
LINE
8
BLACK
6
CONTINUOUS
10
86.8914
20
-60.1286
11
86.92
21
-60.1857
0
LINE
8
BLACK
6
CONTINUOUS
10
86.92
20
-60.1857
11
86.92
21
-60.2714
0
LINE
8
BLACK
6
CONTINUOUS
10
86.92
20
-60.2714
11
86.8914
21
-60.3286
0
LINE
8
BLACK
6
CONTINUOUS
10
86.8914
20
-60.3286
11
86.8629
21
-60.3571
0
LINE
8
BLACK
6
CONTINUOUS
10
86.8629
20
-60.3571
11
86.8057
21
-60.3857
0
LINE
8
BLACK
6
CONTINUOUS
10
86.8057
20
-60.3857
11
86.5771
21
-60.3857
0
LINE
8
BLACK
6
CONTINUOUS
10
87.12
20
-60.0714
11
87.52
21
-60.0714
0
LINE
8
BLACK
6
CONTINUOUS
10
87.52
20
-60.0714
11
87.2629
21
-60.6714
0
LINE
8
BLACK
6
CONTINUOUS
10
72.8614
20
-64.52
11
72.5757
21
-64.72
0
LINE
8
BLACK
6
CONTINUOUS
10
72.8614
20
-64.8629
11
72.2614
21
-64.8629
0
LINE
8
BLACK
6
CONTINUOUS
10
72.2614
20
-64.8629
11
72.2614
21
-64.6343
0
LINE
8
BLACK
6
CONTINUOUS
10
72.2614
20
-64.6343
11
72.29
21
-64.5771
0
LINE
8
BLACK
6
CONTINUOUS
10
72.29
20
-64.5771
11
72.3186
21
-64.5486
0
LINE
8
BLACK
6
CONTINUOUS
10
72.3186
20
-64.5486
11
72.3757
21
-64.52
0
LINE
8
BLACK
6
CONTINUOUS
10
72.3757
20
-64.52
11
72.4614
21
-64.52
0
LINE
8
BLACK
6
CONTINUOUS
10
72.4614
20
-64.52
11
72.5186
21
-64.5486
0
LINE
8
BLACK
6
CONTINUOUS
10
72.5186
20
-64.5486
11
72.5471
21
-64.5771
0
LINE
8
BLACK
6
CONTINUOUS
10
72.5471
20
-64.5771
11
72.5757
21
-64.6343
0
LINE
8
BLACK
6
CONTINUOUS
10
72.5757
20
-64.6343
11
72.5757
21
-64.8629
0
LINE
8
BLACK
6
CONTINUOUS
10
72.5186
20
-64.1771
11
72.49
21
-64.2343
0
LINE
8
BLACK
6
CONTINUOUS
10
72.49
20
-64.2343
11
72.4614
21
-64.2629
0
LINE
8
BLACK
6
CONTINUOUS
10
72.4614
20
-64.2629
11
72.4043
21
-64.2914
0
LINE
8
BLACK
6
CONTINUOUS
10
72.4043
20
-64.2914
11
72.3757
21
-64.2914
0
LINE
8
BLACK
6
CONTINUOUS
10
72.3757
20
-64.2914
11
72.3186
21
-64.2629
0
LINE
8
BLACK
6
CONTINUOUS
10
72.3186
20
-64.2629
11
72.29
21
-64.2343
0
LINE
8
BLACK
6
CONTINUOUS
10
72.29
20
-64.2343
11
72.2614
21
-64.1771
0
LINE
8
BLACK
6
CONTINUOUS
10
72.2614
20
-64.1771
11
72.2614
21
-64.0629
0
LINE
8
BLACK
6
CONTINUOUS
10
72.2614
20
-64.0629
11
72.29
21
-64.0057
0
LINE
8
BLACK
6
CONTINUOUS
10
72.29
20
-64.0057
11
72.3186
21
-63.9771
0
LINE
8
BLACK
6
CONTINUOUS
10
72.3186
20
-63.9771
11
72.3757
21
-63.9486
0
LINE
8
BLACK
6
CONTINUOUS
10
72.3757
20
-63.9486
11
72.4043
21
-63.9486
0
LINE
8
BLACK
6
CONTINUOUS
10
72.4043
20
-63.9486
11
72.4614
21
-63.9771
0
LINE
8
BLACK
6
CONTINUOUS
10
72.4614
20
-63.9771
11
72.49
21
-64.0057
0
LINE
8
BLACK
6
CONTINUOUS
10
72.49
20
-64.0057
11
72.5186
21
-64.0629
0
LINE
8
BLACK
6
CONTINUOUS
10
72.5186
20
-64.0629
11
72.5186
21
-64.1771
0
LINE
8
BLACK
6
CONTINUOUS
10
72.5186
20
-64.1771
11
72.5471
21
-64.2343
0
LINE
8
BLACK
6
CONTINUOUS
10
72.5471
20
-64.2343
11
72.5757
21
-64.2629
0
LINE
8
BLACK
6
CONTINUOUS
10
72.5757
20
-64.2629
11
72.6329
21
-64.2914
0
LINE
8
BLACK
6
CONTINUOUS
10
72.6329
20
-64.2914
11
72.7471
21
-64.2914
0
LINE
8
BLACK
6
CONTINUOUS
10
72.7471
20
-64.2914
11
72.8043
21
-64.2629
0
LINE
8
BLACK
6
CONTINUOUS
10
72.8043
20
-64.2629
11
72.8329
21
-64.2343
0
LINE
8
BLACK
6
CONTINUOUS
10
72.8329
20
-64.2343
11
72.8614
21
-64.1771
0
LINE
8
BLACK
6
CONTINUOUS
10
72.8614
20
-64.1771
11
72.8614
21
-64.0629
0
LINE
8
BLACK
6
CONTINUOUS
10
72.8614
20
-64.0629
11
72.8329
21
-64.0057
0
LINE
8
BLACK
6
CONTINUOUS
10
72.8329
20
-64.0057
11
72.8043
21
-63.9771
0
LINE
8
BLACK
6
CONTINUOUS
10
72.8043
20
-63.9771
11
72.7471
21
-63.9486
0
LINE
8
BLACK
6
CONTINUOUS
10
72.7471
20
-63.9486
11
72.6329
21
-63.9486
0
LINE
8
BLACK
6
CONTINUOUS
10
72.6329
20
-63.9486
11
72.5757
21
-63.9771
0
LINE
8
BLACK
6
CONTINUOUS
10
72.5757
20
-63.9771
11
72.5471
21
-64.0057
0
LINE
8
BLACK
6
CONTINUOUS
10
72.5471
20
-64.0057
11
72.5186
21
-64.0629
0
LINE
8
BLACK
6
CONTINUOUS
10
69.0614
20
-59.8957
11
68.7757
21
-60.0957
0
LINE
8
BLACK
6
CONTINUOUS
10
69.0614
20
-60.2386
11
68.4614
21
-60.2386
0
LINE
8
BLACK
6
CONTINUOUS
10
68.4614
20
-60.2386
11
68.4614
21
-60.01
0
LINE
8
BLACK
6
CONTINUOUS
10
68.4614
20
-60.01
11
68.49
21
-59.9529
0
LINE
8
BLACK
6
CONTINUOUS
10
68.49
20
-59.9529
11
68.5186
21
-59.9243
0
LINE
8
BLACK
6
CONTINUOUS
10
68.5186
20
-59.9243
11
68.5757
21
-59.8957
0
LINE
8
BLACK
6
CONTINUOUS
10
68.5757
20
-59.8957
11
68.6614
21
-59.8957
0
LINE
8
BLACK
6
CONTINUOUS
10
68.6614
20
-59.8957
11
68.7186
21
-59.9243
0
LINE
8
BLACK
6
CONTINUOUS
10
68.7186
20
-59.9243
11
68.7471
21
-59.9529
0
LINE
8
BLACK
6
CONTINUOUS
10
68.7471
20
-59.9529
11
68.7757
21
-60.01
0
LINE
8
BLACK
6
CONTINUOUS
10
68.7757
20
-60.01
11
68.7757
21
-60.2386
0
LINE
8
BLACK
6
CONTINUOUS
10
69.0614
20
-59.3243
11
69.0614
21
-59.6671
0
LINE
8
BLACK
6
CONTINUOUS
10
69.0614
20
-59.4957
11
68.4614
21
-59.4957
0
LINE
8
BLACK
6
CONTINUOUS
10
68.4614
20
-59.4957
11
68.5471
21
-59.5529
0
LINE
8
BLACK
6
CONTINUOUS
10
68.5471
20
-59.5529
11
68.6043
21
-59.61
0
LINE
8
BLACK
6
CONTINUOUS
10
68.6043
20
-59.61
11
68.6329
21
-59.6671
0
LINE
8
BLACK
6
CONTINUOUS
10
68.6614
20
-58.81
11
69.0614
21
-58.81
0
LINE
8
BLACK
6
CONTINUOUS
10
68.4329
20
-58.9529
11
68.8614
21
-59.0957
0
LINE
8
BLACK
6
CONTINUOUS
10
68.8614
20
-59.0957
11
68.8614
21
-58.7243
0
LINE
8
BLACK
6
CONTINUOUS
10
65.2543
20
-51.9714
11
65.0543
21
-51.6857
0
LINE
8
BLACK
6
CONTINUOUS
10
64.9114
20
-51.9714
11
64.9114
21
-51.3714
0
LINE
8
BLACK
6
CONTINUOUS
10
64.9114
20
-51.3714
11
65.14
21
-51.3714
0
LINE
8
BLACK
6
CONTINUOUS
10
65.14
20
-51.3714
11
65.1971
21
-51.4
0
LINE
8
BLACK
6
CONTINUOUS
10
65.1971
20
-51.4
11
65.2257
21
-51.4286
0
LINE
8
BLACK
6
CONTINUOUS
10
65.2257
20
-51.4286
11
65.2543
21
-51.4857
0
LINE
8
BLACK
6
CONTINUOUS
10
65.2543
20
-51.4857
11
65.2543
21
-51.5714
0
LINE
8
BLACK
6
CONTINUOUS
10
65.2543
20
-51.5714
11
65.2257
21
-51.6286
0
LINE
8
BLACK
6
CONTINUOUS
10
65.2257
20
-51.6286
11
65.1971
21
-51.6571
0
LINE
8
BLACK
6
CONTINUOUS
10
65.1971
20
-51.6571
11
65.14
21
-51.6857
0
LINE
8
BLACK
6
CONTINUOUS
10
65.14
20
-51.6857
11
64.9114
21
-51.6857
0
LINE
8
BLACK
6
CONTINUOUS
10
65.8257
20
-51.9714
11
65.4829
21
-51.9714
0
LINE
8
BLACK
6
CONTINUOUS
10
65.6543
20
-51.9714
11
65.6543
21
-51.3714
0
LINE
8
BLACK
6
CONTINUOUS
10
65.6543
20
-51.3714
11
65.5971
21
-51.4571
0
LINE
8
BLACK
6
CONTINUOUS
10
65.5971
20
-51.4571
11
65.54
21
-51.5143
0
LINE
8
BLACK
6
CONTINUOUS
10
65.54
20
-51.5143
11
65.4829
21
-51.5429
0
LINE
8
BLACK
6
CONTINUOUS
10
66.34
20
-51.3714
11
66.2257
21
-51.3714
0
LINE
8
BLACK
6
CONTINUOUS
10
66.2257
20
-51.3714
11
66.1686
21
-51.4
0
LINE
8
BLACK
6
CONTINUOUS
10
66.1686
20
-51.4
11
66.14
21
-51.4286
0
LINE
8
BLACK
6
CONTINUOUS
10
66.14
20
-51.4286
11
66.0829
21
-51.5143
0
LINE
8
BLACK
6
CONTINUOUS
10
66.0829
20
-51.5143
11
66.0543
21
-51.6286
0
LINE
8
BLACK
6
CONTINUOUS
10
66.0543
20
-51.6286
11
66.0543
21
-51.8571
0
LINE
8
BLACK
6
CONTINUOUS
10
66.0543
20
-51.8571
11
66.0829
21
-51.9143
0
LINE
8
BLACK
6
CONTINUOUS
10
66.0829
20
-51.9143
11
66.1114
21
-51.9429
0
LINE
8
BLACK
6
CONTINUOUS
10
66.1114
20
-51.9429
11
66.1686
21
-51.9714
0
LINE
8
BLACK
6
CONTINUOUS
10
66.1686
20
-51.9714
11
66.2829
21
-51.9714
0
LINE
8
BLACK
6
CONTINUOUS
10
66.2829
20
-51.9714
11
66.34
21
-51.9429
0
LINE
8
BLACK
6
CONTINUOUS
10
66.34
20
-51.9429
11
66.3686
21
-51.9143
0
LINE
8
BLACK
6
CONTINUOUS
10
66.3686
20
-51.9143
11
66.3971
21
-51.8571
0
LINE
8
BLACK
6
CONTINUOUS
10
66.3971
20
-51.8571
11
66.3971
21
-51.7143
0
LINE
8
BLACK
6
CONTINUOUS
10
66.3971
20
-51.7143
11
66.3686
21
-51.6571
0
LINE
8
BLACK
6
CONTINUOUS
10
66.3686
20
-51.6571
11
66.34
21
-51.6286
0
LINE
8
BLACK
6
CONTINUOUS
10
66.34
20
-51.6286
11
66.2829
21
-51.6
0
LINE
8
BLACK
6
CONTINUOUS
10
66.2829
20
-51.6
11
66.1686
21
-51.6
0
LINE
8
BLACK
6
CONTINUOUS
10
66.1686
20
-51.6
11
66.1114
21
-51.6286
0
LINE
8
BLACK
6
CONTINUOUS
10
66.1114
20
-51.6286
11
66.0829
21
-51.6571
0
LINE
8
BLACK
6
CONTINUOUS
10
66.0829
20
-51.6571
11
66.0543
21
-51.7143
0
LINE
8
BLACK
6
CONTINUOUS
10
59.3057
20
-70.1329
11
59.3914
21
-70.1614
0
LINE
8
BLACK
6
CONTINUOUS
10
59.3914
20
-70.1614
11
59.5343
21
-70.1614
0
LINE
8
BLACK
6
CONTINUOUS
10
59.5343
20
-70.1614
11
59.5914
21
-70.1329
0
LINE
8
BLACK
6
CONTINUOUS
10
59.5914
20
-70.1329
11
59.62
21
-70.1043
0
LINE
8
BLACK
6
CONTINUOUS
10
59.62
20
-70.1043
11
59.6486
21
-70.0471
0
LINE
8
BLACK
6
CONTINUOUS
10
59.6486
20
-70.0471
11
59.6486
21
-69.99
0
LINE
8
BLACK
6
CONTINUOUS
10
59.6486
20
-69.99
11
59.62
21
-69.9329
0
LINE
8
BLACK
6
CONTINUOUS
10
59.62
20
-69.9329
11
59.5914
21
-69.9043
0
LINE
8
BLACK
6
CONTINUOUS
10
59.5914
20
-69.9043
11
59.5343
21
-69.8757
0
LINE
8
BLACK
6
CONTINUOUS
10
59.5343
20
-69.8757
11
59.42
21
-69.8471
0
LINE
8
BLACK
6
CONTINUOUS
10
59.42
20
-69.8471
11
59.3629
21
-69.8186
0
LINE
8
BLACK
6
CONTINUOUS
10
59.3629
20
-69.8186
11
59.3343
21
-69.79
0
LINE
8
BLACK
6
CONTINUOUS
10
59.3343
20
-69.79
11
59.3057
21
-69.7329
0
LINE
8
BLACK
6
CONTINUOUS
10
59.3057
20
-69.7329
11
59.3057
21
-69.6757
0
LINE
8
BLACK
6
CONTINUOUS
10
59.3057
20
-69.6757
11
59.3343
21
-69.6186
0
LINE
8
BLACK
6
CONTINUOUS
10
59.3343
20
-69.6186
11
59.3629
21
-69.59
0
LINE
8
BLACK
6
CONTINUOUS
10
59.3629
20
-69.59
11
59.42
21
-69.5614
0
LINE
8
BLACK
6
CONTINUOUS
10
59.42
20
-69.5614
11
59.5629
21
-69.5614
0
LINE
8
BLACK
6
CONTINUOUS
10
59.5629
20
-69.5614
11
59.6486
21
-69.59
0
LINE
8
BLACK
6
CONTINUOUS
10
59.8771
20
-69.99
11
60.1629
21
-69.99
0
LINE
8
BLACK
6
CONTINUOUS
10
59.82
20
-70.1614
11
60.02
21
-69.5614
0
LINE
8
BLACK
6
CONTINUOUS
10
60.02
20
-69.5614
11
60.22
21
-70.1614
0
LINE
8
BLACK
6
CONTINUOUS
10
60.3914
20
-69.6186
11
60.42
21
-69.59
0
LINE
8
BLACK
6
CONTINUOUS
10
60.42
20
-69.59
11
60.4771
21
-69.5614
0
LINE
8
BLACK
6
CONTINUOUS
10
60.4771
20
-69.5614
11
60.62
21
-69.5614
0
LINE
8
BLACK
6
CONTINUOUS
10
60.62
20
-69.5614
11
60.6771
21
-69.59
0
LINE
8
BLACK
6
CONTINUOUS
10
60.6771
20
-69.59
11
60.7057
21
-69.6186
0
LINE
8
BLACK
6
CONTINUOUS
10
60.7057
20
-69.6186
11
60.7343
21
-69.6757
0
LINE
8
BLACK
6
CONTINUOUS
10
60.7343
20
-69.6757
11
60.7343
21
-69.7329
0
LINE
8
BLACK
6
CONTINUOUS
10
60.7343
20
-69.7329
11
60.7057
21
-69.8186
0
LINE
8
BLACK
6
CONTINUOUS
10
60.7057
20
-69.8186
11
60.3629
21
-70.1614
0
LINE
8
BLACK
6
CONTINUOUS
10
60.3629
20
-70.1614
11
60.7343
21
-70.1614
0
LINE
8
BLACK
6
CONTINUOUS
10
105.351
20
-51.8214
11
105.951
21
-51.4214
0
LINE
8
BLACK
6
CONTINUOUS
10
105.351
20
-51.4214
11
105.951
21
-51.8214
0
LINE
8
BLACK
6
CONTINUOUS
10
105.923
20
-51.2214
11
105.951
21
-51.1357
0
LINE
8
BLACK
6
CONTINUOUS
10
105.951
20
-51.1357
11
105.951
21
-50.9929
0
LINE
8
BLACK
6
CONTINUOUS
10
105.951
20
-50.9929
11
105.923
21
-50.9357
0
LINE
8
BLACK
6
CONTINUOUS
10
105.923
20
-50.9357
11
105.894
21
-50.9071
0
LINE
8
BLACK
6
CONTINUOUS
10
105.894
20
-50.9071
11
105.837
21
-50.8786
0
LINE
8
BLACK
6
CONTINUOUS
10
105.837
20
-50.8786
11
105.78
21
-50.8786
0
LINE
8
BLACK
6
CONTINUOUS
10
105.78
20
-50.8786
11
105.723
21
-50.9071
0
LINE
8
BLACK
6
CONTINUOUS
10
105.723
20
-50.9071
11
105.694
21
-50.9357
0
LINE
8
BLACK
6
CONTINUOUS
10
105.694
20
-50.9357
11
105.666
21
-50.9929
0
LINE
8
BLACK
6
CONTINUOUS
10
105.666
20
-50.9929
11
105.637
21
-51.1071
0
LINE
8
BLACK
6
CONTINUOUS
10
105.637
20
-51.1071
11
105.609
21
-51.1643
0
LINE
8
BLACK
6
CONTINUOUS
10
105.609
20
-51.1643
11
105.58
21
-51.1929
0
LINE
8
BLACK
6
CONTINUOUS
10
105.58
20
-51.1929
11
105.523
21
-51.2214
0
LINE
8
BLACK
6
CONTINUOUS
10
105.523
20
-51.2214
11
105.466
21
-51.2214
0
LINE
8
BLACK
6
CONTINUOUS
10
105.466
20
-51.2214
11
105.409
21
-51.1929
0
LINE
8
BLACK
6
CONTINUOUS
10
105.409
20
-51.1929
11
105.38
21
-51.1643
0
LINE
8
BLACK
6
CONTINUOUS
10
105.38
20
-51.1643
11
105.351
21
-51.1071
0
LINE
8
BLACK
6
CONTINUOUS
10
105.351
20
-51.1071
11
105.351
21
-50.9643
0
LINE
8
BLACK
6
CONTINUOUS
10
105.351
20
-50.9643
11
105.38
21
-50.8786
0
LINE
8
BLACK
6
CONTINUOUS
10
105.951
20
-50.3071
11
105.951
21
-50.65
0
LINE
8
BLACK
6
CONTINUOUS
10
105.951
20
-50.4786
11
105.351
21
-50.4786
0
LINE
8
BLACK
6
CONTINUOUS
10
105.351
20
-50.4786
11
105.437
21
-50.5357
0
LINE
8
BLACK
6
CONTINUOUS
10
105.437
20
-50.5357
11
105.494
21
-50.5929
0
LINE
8
BLACK
6
CONTINUOUS
10
105.494
20
-50.5929
11
105.523
21
-50.65
0
LINE
8
BLACK
6
CONTINUOUS
10
55.3786
20
-56.2114
11
55.7786
21
-56.8114
0
LINE
8
BLACK
6
CONTINUOUS
10
55.7786
20
-56.2114
11
55.3786
21
-56.8114
0
LINE
8
BLACK
6
CONTINUOUS
10
55.9786
20
-56.7829
11
56.0643
21
-56.8114
0
LINE
8
BLACK
6
CONTINUOUS
10
56.0643
20
-56.8114
11
56.2071
21
-56.8114
0
LINE
8
BLACK
6
CONTINUOUS
10
56.2071
20
-56.8114
11
56.2643
21
-56.7829
0
LINE
8
BLACK
6
CONTINUOUS
10
56.2643
20
-56.7829
11
56.2929
21
-56.7543
0
LINE
8
BLACK
6
CONTINUOUS
10
56.2929
20
-56.7543
11
56.3214
21
-56.6971
0
LINE
8
BLACK
6
CONTINUOUS
10
56.3214
20
-56.6971
11
56.3214
21
-56.64
0
LINE
8
BLACK
6
CONTINUOUS
10
56.3214
20
-56.64
11
56.2929
21
-56.5829
0
LINE
8
BLACK
6
CONTINUOUS
10
56.2929
20
-56.5829
11
56.2643
21
-56.5543
0
LINE
8
BLACK
6
CONTINUOUS
10
56.2643
20
-56.5543
11
56.2071
21
-56.5257
0
LINE
8
BLACK
6
CONTINUOUS
10
56.2071
20
-56.5257
11
56.0929
21
-56.4971
0
LINE
8
BLACK
6
CONTINUOUS
10
56.0929
20
-56.4971
11
56.0357
21
-56.4686
0
LINE
8
BLACK
6
CONTINUOUS
10
56.0357
20
-56.4686
11
56.0071
21
-56.44
0
LINE
8
BLACK
6
CONTINUOUS
10
56.0071
20
-56.44
11
55.9786
21
-56.3829
0
LINE
8
BLACK
6
CONTINUOUS
10
55.9786
20
-56.3829
11
55.9786
21
-56.3257
0
LINE
8
BLACK
6
CONTINUOUS
10
55.9786
20
-56.3257
11
56.0071
21
-56.2686
0
LINE
8
BLACK
6
CONTINUOUS
10
56.0071
20
-56.2686
11
56.0357
21
-56.24
0
LINE
8
BLACK
6
CONTINUOUS
10
56.0357
20
-56.24
11
56.0929
21
-56.2114
0
LINE
8
BLACK
6
CONTINUOUS
10
56.0929
20
-56.2114
11
56.2357
21
-56.2114
0
LINE
8
BLACK
6
CONTINUOUS
10
56.2357
20
-56.2114
11
56.3214
21
-56.24
0
LINE
8
BLACK
6
CONTINUOUS
10
56.55
20
-56.2686
11
56.5786
21
-56.24
0
LINE
8
BLACK
6
CONTINUOUS
10
56.5786
20
-56.24
11
56.6357
21
-56.2114
0
LINE
8
BLACK
6
CONTINUOUS
10
56.6357
20
-56.2114
11
56.7786
21
-56.2114
0
LINE
8
BLACK
6
CONTINUOUS
10
56.7786
20
-56.2114
11
56.8357
21
-56.24
0
LINE
8
BLACK
6
CONTINUOUS
10
56.8357
20
-56.24
11
56.8643
21
-56.2686
0
LINE
8
BLACK
6
CONTINUOUS
10
56.8643
20
-56.2686
11
56.8929
21
-56.3257
0
LINE
8
BLACK
6
CONTINUOUS
10
56.8929
20
-56.3257
11
56.8929
21
-56.3829
0
LINE
8
BLACK
6
CONTINUOUS
10
56.8929
20
-56.3829
11
56.8643
21
-56.4686
0
LINE
8
BLACK
6
CONTINUOUS
10
56.8643
20
-56.4686
11
56.5214
21
-56.8114
0
LINE
8
BLACK
6
CONTINUOUS
10
56.5214
20
-56.8114
11
56.8929
21
-56.8114
0
LINE
8
BLACK
6
CONTINUOUS
10
74.6286
20
-41.7914
11
75.0286
21
-42.3914
0
LINE
8
BLACK
6
CONTINUOUS
10
75.0286
20
-41.7914
11
74.6286
21
-42.3914
0
LINE
8
BLACK
6
CONTINUOUS
10
75.2286
20
-42.3629
11
75.3143
21
-42.3914
0
LINE
8
BLACK
6
CONTINUOUS
10
75.3143
20
-42.3914
11
75.4571
21
-42.3914
0
LINE
8
BLACK
6
CONTINUOUS
10
75.4571
20
-42.3914
11
75.5143
21
-42.3629
0
LINE
8
BLACK
6
CONTINUOUS
10
75.5143
20
-42.3629
11
75.5429
21
-42.3343
0
LINE
8
BLACK
6
CONTINUOUS
10
75.5429
20
-42.3343
11
75.5714
21
-42.2771
0
LINE
8
BLACK
6
CONTINUOUS
10
75.5714
20
-42.2771
11
75.5714
21
-42.22
0
LINE
8
BLACK
6
CONTINUOUS
10
75.5714
20
-42.22
11
75.5429
21
-42.1629
0
LINE
8
BLACK
6
CONTINUOUS
10
75.5429
20
-42.1629
11
75.5143
21
-42.1343
0
LINE
8
BLACK
6
CONTINUOUS
10
75.5143
20
-42.1343
11
75.4571
21
-42.1057
0
LINE
8
BLACK
6
CONTINUOUS
10
75.4571
20
-42.1057
11
75.3429
21
-42.0771
0
LINE
8
BLACK
6
CONTINUOUS
10
75.3429
20
-42.0771
11
75.2857
21
-42.0486
0
LINE
8
BLACK
6
CONTINUOUS
10
75.2857
20
-42.0486
11
75.2571
21
-42.02
0
LINE
8
BLACK
6
CONTINUOUS
10
75.2571
20
-42.02
11
75.2286
21
-41.9629
0
LINE
8
BLACK
6
CONTINUOUS
10
75.2286
20
-41.9629
11
75.2286
21
-41.9057
0
LINE
8
BLACK
6
CONTINUOUS
10
75.2286
20
-41.9057
11
75.2571
21
-41.8486
0
LINE
8
BLACK
6
CONTINUOUS
10
75.2571
20
-41.8486
11
75.2857
21
-41.82
0
LINE
8
BLACK
6
CONTINUOUS
10
75.2857
20
-41.82
11
75.3429
21
-41.7914
0
LINE
8
BLACK
6
CONTINUOUS
10
75.3429
20
-41.7914
11
75.4857
21
-41.7914
0
LINE
8
BLACK
6
CONTINUOUS
10
75.4857
20
-41.7914
11
75.5714
21
-41.82
0
LINE
8
BLACK
6
CONTINUOUS
10
75.7714
20
-41.7914
11
76.1429
21
-41.7914
0
LINE
8
BLACK
6
CONTINUOUS
10
76.1429
20
-41.7914
11
75.9429
21
-42.02
0
LINE
8
BLACK
6
CONTINUOUS
10
75.9429
20
-42.02
11
76.0286
21
-42.02
0
LINE
8
BLACK
6
CONTINUOUS
10
76.0286
20
-42.02
11
76.0857
21
-42.0486
0
LINE
8
BLACK
6
CONTINUOUS
10
76.0857
20
-42.0486
11
76.1143
21
-42.0771
0
LINE
8
BLACK
6
CONTINUOUS
10
76.1143
20
-42.0771
11
76.1429
21
-42.1343
0
LINE
8
BLACK
6
CONTINUOUS
10
76.1429
20
-42.1343
11
76.1429
21
-42.2771
0
LINE
8
BLACK
6
CONTINUOUS
10
76.1429
20
-42.2771
11
76.1143
21
-42.3343
0
LINE
8
BLACK
6
CONTINUOUS
10
76.1143
20
-42.3343
11
76.0857
21
-42.3629
0
LINE
8
BLACK
6
CONTINUOUS
10
76.0857
20
-42.3629
11
76.0286
21
-42.3914
0
LINE
8
BLACK
6
CONTINUOUS
10
76.0286
20
-42.3914
11
75.8571
21
-42.3914
0
LINE
8
BLACK
6
CONTINUOUS
10
75.8571
20
-42.3914
11
75.8
21
-42.3629
0
LINE
8
BLACK
6
CONTINUOUS
10
75.8
20
-42.3629
11
75.7714
21
-42.3343
0
LINE
8
BLACK
6
CONTINUOUS
10
83.4543
20
-50.4814
11
83.2543
21
-50.1957
0
LINE
8
BLACK
6
CONTINUOUS
10
83.1114
20
-50.4814
11
83.1114
21
-49.8814
0
LINE
8
BLACK
6
CONTINUOUS
10
83.1114
20
-49.8814
11
83.34
21
-49.8814
0
LINE
8
BLACK
6
CONTINUOUS
10
83.34
20
-49.8814
11
83.3971
21
-49.91
0
LINE
8
BLACK
6
CONTINUOUS
10
83.3971
20
-49.91
11
83.4257
21
-49.9386
0
LINE
8
BLACK
6
CONTINUOUS
10
83.4257
20
-49.9386
11
83.4543
21
-49.9957
0
LINE
8
BLACK
6
CONTINUOUS
10
83.4543
20
-49.9957
11
83.4543
21
-50.0814
0
LINE
8
BLACK
6
CONTINUOUS
10
83.4543
20
-50.0814
11
83.4257
21
-50.1386
0
LINE
8
BLACK
6
CONTINUOUS
10
83.4257
20
-50.1386
11
83.3971
21
-50.1671
0
LINE
8
BLACK
6
CONTINUOUS
10
83.3971
20
-50.1671
11
83.34
21
-50.1957
0
LINE
8
BLACK
6
CONTINUOUS
10
83.34
20
-50.1957
11
83.1114
21
-50.1957
0
LINE
8
BLACK
6
CONTINUOUS
10
84.0257
20
-50.4814
11
83.6829
21
-50.4814
0
LINE
8
BLACK
6
CONTINUOUS
10
83.8543
20
-50.4814
11
83.8543
21
-49.8814
0
LINE
8
BLACK
6
CONTINUOUS
10
83.8543
20
-49.8814
11
83.7971
21
-49.9671
0
LINE
8
BLACK
6
CONTINUOUS
10
83.7971
20
-49.9671
11
83.74
21
-50.0243
0
LINE
8
BLACK
6
CONTINUOUS
10
83.74
20
-50.0243
11
83.6829
21
-50.0529
0
LINE
8
BLACK
6
CONTINUOUS
10
84.5686
20
-49.8814
11
84.2829
21
-49.8814
0
LINE
8
BLACK
6
CONTINUOUS
10
84.2829
20
-49.8814
11
84.2543
21
-50.1671
0
LINE
8
BLACK
6
CONTINUOUS
10
84.2543
20
-50.1671
11
84.2829
21
-50.1386
0
LINE
8
BLACK
6
CONTINUOUS
10
84.2829
20
-50.1386
11
84.34
21
-50.11
0
LINE
8
BLACK
6
CONTINUOUS
10
84.34
20
-50.11
11
84.4829
21
-50.11
0
LINE
8
BLACK
6
CONTINUOUS
10
84.4829
20
-50.11
11
84.54
21
-50.1386
0
LINE
8
BLACK
6
CONTINUOUS
10
84.54
20
-50.1386
11
84.5686
21
-50.1671
0
LINE
8
BLACK
6
CONTINUOUS
10
84.5686
20
-50.1671
11
84.5971
21
-50.2243
0
LINE
8
BLACK
6
CONTINUOUS
10
84.5971
20
-50.2243
11
84.5971
21
-50.3671
0
LINE
8
BLACK
6
CONTINUOUS
10
84.5971
20
-50.3671
11
84.5686
21
-50.4243
0
LINE
8
BLACK
6
CONTINUOUS
10
84.5686
20
-50.4243
11
84.54
21
-50.4529
0
LINE
8
BLACK
6
CONTINUOUS
10
84.54
20
-50.4529
11
84.4829
21
-50.4814
0
LINE
8
BLACK
6
CONTINUOUS
10
84.4829
20
-50.4814
11
84.34
21
-50.4814
0
LINE
8
BLACK
6
CONTINUOUS
10
84.34
20
-50.4814
11
84.2829
21
-50.4529
0
LINE
8
BLACK
6
CONTINUOUS
10
84.2829
20
-50.4529
11
84.2543
21
-50.4243
0
LINE
8
BLACK
6
CONTINUOUS
10
87.1214
20
-49.6657
11
86.8357
21
-49.8657
0
LINE
8
BLACK
6
CONTINUOUS
10
87.1214
20
-50.0086
11
86.5214
21
-50.0086
0
LINE
8
BLACK
6
CONTINUOUS
10
86.5214
20
-50.0086
11
86.5214
21
-49.78
0
LINE
8
BLACK
6
CONTINUOUS
10
86.5214
20
-49.78
11
86.55
21
-49.7229
0
LINE
8
BLACK
6
CONTINUOUS
10
86.55
20
-49.7229
11
86.5786
21
-49.6943
0
LINE
8
BLACK
6
CONTINUOUS
10
86.5786
20
-49.6943
11
86.6357
21
-49.6657
0
LINE
8
BLACK
6
CONTINUOUS
10
86.6357
20
-49.6657
11
86.7214
21
-49.6657
0
LINE
8
BLACK
6
CONTINUOUS
10
86.7214
20
-49.6657
11
86.7786
21
-49.6943
0
LINE
8
BLACK
6
CONTINUOUS
10
86.7786
20
-49.6943
11
86.8071
21
-49.7229
0
LINE
8
BLACK
6
CONTINUOUS
10
86.8071
20
-49.7229
11
86.8357
21
-49.78
0
LINE
8
BLACK
6
CONTINUOUS
10
86.8357
20
-49.78
11
86.8357
21
-50.0086
0
LINE
8
BLACK
6
CONTINUOUS
10
87.1214
20
-49.0943
11
87.1214
21
-49.4371
0
LINE
8
BLACK
6
CONTINUOUS
10
87.1214
20
-49.2657
11
86.5214
21
-49.2657
0
LINE
8
BLACK
6
CONTINUOUS
10
86.5214
20
-49.2657
11
86.6071
21
-49.3229
0
LINE
8
BLACK
6
CONTINUOUS
10
86.6071
20
-49.3229
11
86.6643
21
-49.38
0
LINE
8
BLACK
6
CONTINUOUS
10
86.6643
20
-49.38
11
86.6929
21
-49.4371
0
LINE
8
BLACK
6
CONTINUOUS
10
86.5214
20
-48.8943
11
86.5214
21
-48.4943
0
LINE
8
BLACK
6
CONTINUOUS
10
86.5214
20
-48.4943
11
87.1214
21
-48.7514
0
LINE
8
BLACK
6
CONTINUOUS
10
91.1
20
-54.3814
11
90.9
21
-54.0957
0
LINE
8
BLACK
6
CONTINUOUS
10
90.7571
20
-54.3814
11
90.7571
21
-53.7814
0
LINE
8
BLACK
6
CONTINUOUS
10
90.7571
20
-53.7814
11
90.9857
21
-53.7814
0
LINE
8
BLACK
6
CONTINUOUS
10
90.9857
20
-53.7814
11
91.0429
21
-53.81
0
LINE
8
BLACK
6
CONTINUOUS
10
91.0429
20
-53.81
11
91.0714
21
-53.8386
0
LINE
8
BLACK
6
CONTINUOUS
10
91.0714
20
-53.8386
11
91.1
21
-53.8957
0
LINE
8
BLACK
6
CONTINUOUS
10
91.1
20
-53.8957
11
91.1
21
-53.9814
0
LINE
8
BLACK
6
CONTINUOUS
10
91.1
20
-53.9814
11
91.0714
21
-54.0386
0
LINE
8
BLACK
6
CONTINUOUS
10
91.0714
20
-54.0386
11
91.0429
21
-54.0671
0
LINE
8
BLACK
6
CONTINUOUS
10
91.0429
20
-54.0671
11
90.9857
21
-54.0957
0
LINE
8
BLACK
6
CONTINUOUS
10
90.9857
20
-54.0957
11
90.7571
21
-54.0957
0
LINE
8
BLACK
6
CONTINUOUS
10
91.3857
20
-54.3814
11
91.5
21
-54.3814
0
LINE
8
BLACK
6
CONTINUOUS
10
91.5
20
-54.3814
11
91.5571
21
-54.3529
0
LINE
8
BLACK
6
CONTINUOUS
10
91.5571
20
-54.3529
11
91.5857
21
-54.3243
0
LINE
8
BLACK
6
CONTINUOUS
10
91.5857
20
-54.3243
11
91.6429
21
-54.2386
0
LINE
8
BLACK
6
CONTINUOUS
10
91.6429
20
-54.2386
11
91.6714
21
-54.1243
0
LINE
8
BLACK
6
CONTINUOUS
10
91.6714
20
-54.1243
11
91.6714
21
-53.8957
0
LINE
8
BLACK
6
CONTINUOUS
10
91.6714
20
-53.8957
11
91.6429
21
-53.8386
0
LINE
8
BLACK
6
CONTINUOUS
10
91.6429
20
-53.8386
11
91.6143
21
-53.81
0
LINE
8
BLACK
6
CONTINUOUS
10
91.6143
20
-53.81
11
91.5571
21
-53.7814
0
LINE
8
BLACK
6
CONTINUOUS
10
91.5571
20
-53.7814
11
91.4429
21
-53.7814
0
LINE
8
BLACK
6
CONTINUOUS
10
91.4429
20
-53.7814
11
91.3857
21
-53.81
0
LINE
8
BLACK
6
CONTINUOUS
10
91.3857
20
-53.81
11
91.3571
21
-53.8386
0
LINE
8
BLACK
6
CONTINUOUS
10
91.3571
20
-53.8386
11
91.3286
21
-53.8957
0
LINE
8
BLACK
6
CONTINUOUS
10
91.3286
20
-53.8957
11
91.3286
21
-54.0386
0
LINE
8
BLACK
6
CONTINUOUS
10
91.3286
20
-54.0386
11
91.3571
21
-54.0957
0
LINE
8
BLACK
6
CONTINUOUS
10
91.3571
20
-54.0957
11
91.3857
21
-54.1243
0
LINE
8
BLACK
6
CONTINUOUS
10
91.3857
20
-54.1243
11
91.4429
21
-54.1529
0
LINE
8
BLACK
6
CONTINUOUS
10
91.4429
20
-54.1529
11
91.5571
21
-54.1529
0
LINE
8
BLACK
6
CONTINUOUS
10
91.5571
20
-54.1529
11
91.6143
21
-54.1243
0
LINE
8
BLACK
6
CONTINUOUS
10
91.6143
20
-54.1243
11
91.6429
21
-54.0957
0
LINE
8
BLACK
6
CONTINUOUS
10
91.6429
20
-54.0957
11
91.6714
21
-54.0386
0
LINE
8
BLACK
6
CONTINUOUS
10
90.8143
20
-50.9514
11
90.6143
21
-50.6657
0
LINE
8
BLACK
6
CONTINUOUS
10
90.4714
20
-50.9514
11
90.4714
21
-50.3514
0
LINE
8
BLACK
6
CONTINUOUS
10
90.4714
20
-50.3514
11
90.7
21
-50.3514
0
LINE
8
BLACK
6
CONTINUOUS
10
90.7
20
-50.3514
11
90.7571
21
-50.38
0
LINE
8
BLACK
6
CONTINUOUS
10
90.7571
20
-50.38
11
90.7857
21
-50.4086
0
LINE
8
BLACK
6
CONTINUOUS
10
90.7857
20
-50.4086
11
90.8143
21
-50.4657
0
LINE
8
BLACK
6
CONTINUOUS
10
90.8143
20
-50.4657
11
90.8143
21
-50.5514
0
LINE
8
BLACK
6
CONTINUOUS
10
90.8143
20
-50.5514
11
90.7857
21
-50.6086
0
LINE
8
BLACK
6
CONTINUOUS
10
90.7857
20
-50.6086
11
90.7571
21
-50.6371
0
LINE
8
BLACK
6
CONTINUOUS
10
90.7571
20
-50.6371
11
90.7
21
-50.6657
0
LINE
8
BLACK
6
CONTINUOUS
10
90.7
20
-50.6657
11
90.4714
21
-50.6657
0
LINE
8
BLACK
6
CONTINUOUS
10
91.3857
20
-50.9514
11
91.0429
21
-50.9514
0
LINE
8
BLACK
6
CONTINUOUS
10
91.2143
20
-50.9514
11
91.2143
21
-50.3514
0
LINE
8
BLACK
6
CONTINUOUS
10
91.2143
20
-50.3514
11
91.1571
21
-50.4371
0
LINE
8
BLACK
6
CONTINUOUS
10
91.1571
20
-50.4371
11
91.1
21
-50.4943
0
LINE
8
BLACK
6
CONTINUOUS
10
91.1
20
-50.4943
11
91.0429
21
-50.5229
0
LINE
8
BLACK
6
CONTINUOUS
10
91.7571
20
-50.3514
11
91.8143
21
-50.3514
0
LINE
8
BLACK
6
CONTINUOUS
10
91.8143
20
-50.3514
11
91.8714
21
-50.38
0
LINE
8
BLACK
6
CONTINUOUS
10
91.8714
20
-50.38
11
91.9
21
-50.4086
0
LINE
8
BLACK
6
CONTINUOUS
10
91.9
20
-50.4086
11
91.9286
21
-50.4657
0
LINE
8
BLACK
6
CONTINUOUS
10
91.9286
20
-50.4657
11
91.9571
21
-50.58
0
LINE
8
BLACK
6
CONTINUOUS
10
91.9571
20
-50.58
11
91.9571
21
-50.7229
0
LINE
8
BLACK
6
CONTINUOUS
10
91.9571
20
-50.7229
11
91.9286
21
-50.8371
0
LINE
8
BLACK
6
CONTINUOUS
10
91.9286
20
-50.8371
11
91.9
21
-50.8943
0
LINE
8
BLACK
6
CONTINUOUS
10
91.9
20
-50.8943
11
91.8714
21
-50.9229
0
LINE
8
BLACK
6
CONTINUOUS
10
91.8714
20
-50.9229
11
91.8143
21
-50.9514
0
LINE
8
BLACK
6
CONTINUOUS
10
91.8143
20
-50.9514
11
91.7571
21
-50.9514
0
LINE
8
BLACK
6
CONTINUOUS
10
91.7571
20
-50.9514
11
91.7
21
-50.9229
0
LINE
8
BLACK
6
CONTINUOUS
10
91.7
20
-50.9229
11
91.6714
21
-50.8943
0
LINE
8
BLACK
6
CONTINUOUS
10
91.6714
20
-50.8943
11
91.6429
21
-50.8371
0
LINE
8
BLACK
6
CONTINUOUS
10
91.6429
20
-50.8371
11
91.6143
21
-50.7229
0
LINE
8
BLACK
6
CONTINUOUS
10
91.6143
20
-50.7229
11
91.6143
21
-50.58
0
LINE
8
BLACK
6
CONTINUOUS
10
91.6143
20
-50.58
11
91.6429
21
-50.4657
0
LINE
8
BLACK
6
CONTINUOUS
10
91.6429
20
-50.4657
11
91.6714
21
-50.4086
0
LINE
8
BLACK
6
CONTINUOUS
10
91.6714
20
-50.4086
11
91.7
21
-50.38
0
LINE
8
BLACK
6
CONTINUOUS
10
91.7
20
-50.38
11
91.7571
21
-50.3514
0
LINE
8
BLACK
6
CONTINUOUS
10
90.8143
20
-56.0514
11
90.6143
21
-55.7657
0
LINE
8
BLACK
6
CONTINUOUS
10
90.4714
20
-56.0514
11
90.4714
21
-55.4514
0
LINE
8
BLACK
6
CONTINUOUS
10
90.4714
20
-55.4514
11
90.7
21
-55.4514
0
LINE
8
BLACK
6
CONTINUOUS
10
90.7
20
-55.4514
11
90.7571
21
-55.48
0
LINE
8
BLACK
6
CONTINUOUS
10
90.7571
20
-55.48
11
90.7857
21
-55.5086
0
LINE
8
BLACK
6
CONTINUOUS
10
90.7857
20
-55.5086
11
90.8143
21
-55.5657
0
LINE
8
BLACK
6
CONTINUOUS
10
90.8143
20
-55.5657
11
90.8143
21
-55.6514
0
LINE
8
BLACK
6
CONTINUOUS
10
90.8143
20
-55.6514
11
90.7857
21
-55.7086
0
LINE
8
BLACK
6
CONTINUOUS
10
90.7857
20
-55.7086
11
90.7571
21
-55.7371
0
LINE
8
BLACK
6
CONTINUOUS
10
90.7571
20
-55.7371
11
90.7
21
-55.7657
0
LINE
8
BLACK
6
CONTINUOUS
10
90.7
20
-55.7657
11
90.4714
21
-55.7657
0
LINE
8
BLACK
6
CONTINUOUS
10
91.3857
20
-56.0514
11
91.0429
21
-56.0514
0
LINE
8
BLACK
6
CONTINUOUS
10
91.2143
20
-56.0514
11
91.2143
21
-55.4514
0
LINE
8
BLACK
6
CONTINUOUS
10
91.2143
20
-55.4514
11
91.1571
21
-55.5371
0
LINE
8
BLACK
6
CONTINUOUS
10
91.1571
20
-55.5371
11
91.1
21
-55.5943
0
LINE
8
BLACK
6
CONTINUOUS
10
91.1
20
-55.5943
11
91.0429
21
-55.6229
0
LINE
8
BLACK
6
CONTINUOUS
10
91.6143
20
-55.5086
11
91.6429
21
-55.48
0
LINE
8
BLACK
6
CONTINUOUS
10
91.6429
20
-55.48
11
91.7
21
-55.4514
0
LINE
8
BLACK
6
CONTINUOUS
10
91.7
20
-55.4514
11
91.8429
21
-55.4514
0
LINE
8
BLACK
6
CONTINUOUS
10
91.8429
20
-55.4514
11
91.9
21
-55.48
0
LINE
8
BLACK
6
CONTINUOUS
10
91.9
20
-55.48
11
91.9286
21
-55.5086
0
LINE
8
BLACK
6
CONTINUOUS
10
91.9286
20
-55.5086
11
91.9571
21
-55.5657
0
LINE
8
BLACK
6
CONTINUOUS
10
91.9571
20
-55.5657
11
91.9571
21
-55.6229
0
LINE
8
BLACK
6
CONTINUOUS
10
91.9571
20
-55.6229
11
91.9286
21
-55.7086
0
LINE
8
BLACK
6
CONTINUOUS
10
91.9286
20
-55.7086
11
91.5857
21
-56.0514
0
LINE
8
BLACK
6
CONTINUOUS
10
91.5857
20
-56.0514
11
91.9571
21
-56.0514
0
LINE
8
BLACK
6
CONTINUOUS
10
90.8143
20
-52.6914
11
90.6143
21
-52.4057
0
LINE
8
BLACK
6
CONTINUOUS
10
90.4714
20
-52.6914
11
90.4714
21
-52.0914
0
LINE
8
BLACK
6
CONTINUOUS
10
90.4714
20
-52.0914
11
90.7
21
-52.0914
0
LINE
8
BLACK
6
CONTINUOUS
10
90.7
20
-52.0914
11
90.7571
21
-52.12
0
LINE
8
BLACK
6
CONTINUOUS
10
90.7571
20
-52.12
11
90.7857
21
-52.1486
0
LINE
8
BLACK
6
CONTINUOUS
10
90.7857
20
-52.1486
11
90.8143
21
-52.2057
0
LINE
8
BLACK
6
CONTINUOUS
10
90.8143
20
-52.2057
11
90.8143
21
-52.2914
0
LINE
8
BLACK
6
CONTINUOUS
10
90.8143
20
-52.2914
11
90.7857
21
-52.3486
0
LINE
8
BLACK
6
CONTINUOUS
10
90.7857
20
-52.3486
11
90.7571
21
-52.3771
0
LINE
8
BLACK
6
CONTINUOUS
10
90.7571
20
-52.3771
11
90.7
21
-52.4057
0
LINE
8
BLACK
6
CONTINUOUS
10
90.7
20
-52.4057
11
90.4714
21
-52.4057
0
LINE
8
BLACK
6
CONTINUOUS
10
91.3857
20
-52.6914
11
91.0429
21
-52.6914
0
LINE
8
BLACK
6
CONTINUOUS
10
91.2143
20
-52.6914
11
91.2143
21
-52.0914
0
LINE
8
BLACK
6
CONTINUOUS
10
91.2143
20
-52.0914
11
91.1571
21
-52.1771
0
LINE
8
BLACK
6
CONTINUOUS
10
91.1571
20
-52.1771
11
91.1
21
-52.2343
0
LINE
8
BLACK
6
CONTINUOUS
10
91.1
20
-52.2343
11
91.0429
21
-52.2629
0
LINE
8
BLACK
6
CONTINUOUS
10
91.5857
20
-52.0914
11
91.9571
21
-52.0914
0
LINE
8
BLACK
6
CONTINUOUS
10
91.9571
20
-52.0914
11
91.7571
21
-52.32
0
LINE
8
BLACK
6
CONTINUOUS
10
91.7571
20
-52.32
11
91.8429
21
-52.32
0
LINE
8
BLACK
6
CONTINUOUS
10
91.8429
20
-52.32
11
91.9
21
-52.3486
0
LINE
8
BLACK
6
CONTINUOUS
10
91.9
20
-52.3486
11
91.9286
21
-52.3771
0
LINE
8
BLACK
6
CONTINUOUS
10
91.9286
20
-52.3771
11
91.9571
21
-52.4343
0
LINE
8
BLACK
6
CONTINUOUS
10
91.9571
20
-52.4343
11
91.9571
21
-52.5771
0
LINE
8
BLACK
6
CONTINUOUS
10
91.9571
20
-52.5771
11
91.9286
21
-52.6343
0
LINE
8
BLACK
6
CONTINUOUS
10
91.9286
20
-52.6343
11
91.9
21
-52.6629
0
LINE
8
BLACK
6
CONTINUOUS
10
91.9
20
-52.6629
11
91.8429
21
-52.6914
0
LINE
8
BLACK
6
CONTINUOUS
10
91.8429
20
-52.6914
11
91.6714
21
-52.6914
0
LINE
8
BLACK
6
CONTINUOUS
10
91.6714
20
-52.6914
11
91.6143
21
-52.6629
0
LINE
8
BLACK
6
CONTINUOUS
10
91.6143
20
-52.6629
11
91.5857
21
-52.6343
0
LINE
8
BLACK
6
CONTINUOUS
10
78.9043
20
-48.4814
11
78.7043
21
-48.1957
0
LINE
8
BLACK
6
CONTINUOUS
10
78.5614
20
-48.4814
11
78.5614
21
-47.8814
0
LINE
8
BLACK
6
CONTINUOUS
10
78.5614
20
-47.8814
11
78.79
21
-47.8814
0
LINE
8
BLACK
6
CONTINUOUS
10
78.79
20
-47.8814
11
78.8471
21
-47.91
0
LINE
8
BLACK
6
CONTINUOUS
10
78.8471
20
-47.91
11
78.8757
21
-47.9386
0
LINE
8
BLACK
6
CONTINUOUS
10
78.8757
20
-47.9386
11
78.9043
21
-47.9957
0
LINE
8
BLACK
6
CONTINUOUS
10
78.9043
20
-47.9957
11
78.9043
21
-48.0814
0
LINE
8
BLACK
6
CONTINUOUS
10
78.9043
20
-48.0814
11
78.8757
21
-48.1386
0
LINE
8
BLACK
6
CONTINUOUS
10
78.8757
20
-48.1386
11
78.8471
21
-48.1671
0
LINE
8
BLACK
6
CONTINUOUS
10
78.8471
20
-48.1671
11
78.79
21
-48.1957
0
LINE
8
BLACK
6
CONTINUOUS
10
78.79
20
-48.1957
11
78.5614
21
-48.1957
0
LINE
8
BLACK
6
CONTINUOUS
10
79.4757
20
-48.4814
11
79.1329
21
-48.4814
0
LINE
8
BLACK
6
CONTINUOUS
10
79.3043
20
-48.4814
11
79.3043
21
-47.8814
0
LINE
8
BLACK
6
CONTINUOUS
10
79.3043
20
-47.8814
11
79.2471
21
-47.9671
0
LINE
8
BLACK
6
CONTINUOUS
10
79.2471
20
-47.9671
11
79.19
21
-48.0243
0
LINE
8
BLACK
6
CONTINUOUS
10
79.19
20
-48.0243
11
79.1329
21
-48.0529
0
LINE
8
BLACK
6
CONTINUOUS
10
80.0471
20
-48.4814
11
79.7043
21
-48.4814
0
LINE
8
BLACK
6
CONTINUOUS
10
79.8757
20
-48.4814
11
79.8757
21
-47.8814
0
LINE
8
BLACK
6
CONTINUOUS
10
79.8757
20
-47.8814
11
79.8186
21
-47.9671
0
LINE
8
BLACK
6
CONTINUOUS
10
79.8186
20
-47.9671
11
79.7614
21
-48.0243
0
LINE
8
BLACK
6
CONTINUOUS
10
79.7614
20
-48.0243
11
79.7043
21
-48.0529
0
LINE
8
BLACK
6
CONTINUOUS
10
74.855
20
-54.045
11
74.855
21
-55.395
0
LINE
8
BLACK
6
CONTINUOUS
10
73.105
20
-54.045
11
73.105
21
-55.395
0
LINE
8
BLACK
6
CONTINUOUS
10
75.1406
20
-50.92
11
74.8594
21
-50.92
0
LINE
8
BLACK
6
CONTINUOUS
10
75.1406
20
-51.94
11
74.8594
21
-51.94
0
LINE
8
BLACK
6
CONTINUOUS
10
81.29
20
-49.0006
11
81.29
21
-48.7194
0
LINE
8
BLACK
6
CONTINUOUS
10
82.31
20
-49.0006
11
82.31
21
-48.7194
0
LINE
8
BLACK
6
CONTINUOUS
10
81.39
20
-51.05
11
79.08
21
-51.05
0
LINE
8
BLACK
6
CONTINUOUS
10
81.39
20
-51.05
11
83.7
21
-51.05
0
LINE
8
BLACK
6
CONTINUOUS
10
83.7
20
-51.05
11
83.7
21
-51.325
0
LINE
8
BLACK
6
CONTINUOUS
10
83.7
20
-60.97
11
83.7
21
-60.695
0
LINE
8
BLACK
6
CONTINUOUS
10
79.08
20
-51.05
11
79.08
21
-51.325
0
LINE
8
BLACK
6
CONTINUOUS
10
81.39
20
-60.97
11
79.08
21
-60.97
0
LINE
8
BLACK
6
CONTINUOUS
10
79.08
20
-51.325
11
77.79
21
-51.325
0
LINE
8
BLACK
6
CONTINUOUS
10
81.39
20
-60.97
11
83.7
21
-60.97
0
LINE
8
BLACK
6
CONTINUOUS
10
79.08
20
-60.97
11
79.08
21
-60.695
0
LINE
8
BLACK
6
CONTINUOUS
10
87.3175
20
-63.7677
11
87.3175
21
-64.2423
0
LINE
8
BLACK
6
CONTINUOUS
10
88.3625
20
-63.7677
11
88.3625
21
-64.2423
0
LINE
8
BLACK
6
CONTINUOUS
10
87.2573
20
-61.0825
11
86.7827
21
-61.0825
0
LINE
8
BLACK
6
CONTINUOUS
10
87.2573
20
-62.1275
11
86.7827
21
-62.1275
0
LINE
8
BLACK
6
CONTINUOUS
10
71.6825
20
-64.1827
11
71.6825
21
-64.6573
0
LINE
8
BLACK
6
CONTINUOUS
10
70.6375
20
-64.1827
11
70.6375
21
-64.6573
0
LINE
8
BLACK
6
CONTINUOUS
10
68.0625
20
-59.7573
11
68.0625
21
-59.2827
0
LINE
8
BLACK
6
CONTINUOUS
10
67.0175
20
-59.7573
11
67.0175
21
-59.2827
0
LINE
8
BLACK
6
CONTINUOUS
10
65.4027
20
-53.6525
11
65.8773
21
-53.6525
0
LINE
8
BLACK
6
CONTINUOUS
10
65.4027
20
-52.6075
11
65.8773
21
-52.6075
0
LINE
8
BLACK
6
CONTINUOUS
10
63.25
20
-69.07
11
56.79
21
-69.07
0
LINE
8
BLACK
6
CONTINUOUS
10
63.25
20
-62.61
11
56.79
21
-62.61
0
LINE
8
BLACK
6
CONTINUOUS
10
56.79
20
-62.61
11
56.79
21
-62.64
0
LINE
8
BLACK
6
CONTINUOUS
10
63.25
20
-67.14
11
63.25
21
-64.54
0
LINE
8
BLACK
6
CONTINUOUS
10
63.25
20
-62.61
11
63.25
21
-62.64
0
LINE
8
BLACK
6
CONTINUOUS
10
56.79
20
-69.07
11
56.79
21
-69.04
0
LINE
8
BLACK
6
CONTINUOUS
10
63.25
20
-69.04
11
63.25
21
-69.07
0
LINE
8
BLACK
6
CONTINUOUS
10
56.79
20
-67.14
11
56.79
21
-64.54
0
LINE
8
BLACK
6
CONTINUOUS
10
105.037
20
-50.03
11
105.037
21
-51.39
0
LINE
8
BLACK
6
CONTINUOUS
10
105.607
20
-44.83
11
105.607
21
-50.03
0
LINE
8
BLACK
6
CONTINUOUS
10
105.607
20
-44.83
11
105.037
21
-44.83
0
LINE
8
BLACK
6
CONTINUOUS
10
95.327
20
-44.83
11
95.327
21
-50.03
0
LINE
8
BLACK
6
CONTINUOUS
10
103.517
20
-44.83
11
102.497
21
-44.83
0
LINE
8
BLACK
6
CONTINUOUS
10
98.437
20
-50.03
11
97.417
21
-50.03
0
LINE
8
BLACK
6
CONTINUOUS
10
100.977
20
-44.83
11
99.957
21
-44.83
0
LINE
8
BLACK
6
CONTINUOUS
10
105.607
20
-50.03
11
105.037
21
-50.03
0
LINE
8
BLACK
6
CONTINUOUS
10
103.517
20
-50.03
11
102.497
21
-50.03
0
LINE
8
BLACK
6
CONTINUOUS
10
100.977
20
-50.03
11
99.957
21
-50.03
0
LINE
8
BLACK
6
CONTINUOUS
10
95.897
20
-50.03
11
95.327
21
-50.03
0
LINE
8
BLACK
6
CONTINUOUS
10
98.437
20
-44.83
11
97.417
21
-44.83
0
LINE
8
BLACK
6
CONTINUOUS
10
95.897
20
-44.83
11
95.327
21
-44.83
0
LINE
8
BLACK
6
CONTINUOUS
10
57.414
20
-60.099
11
65.094
21
-60.099
0
LINE
8
BLACK
6
CONTINUOUS
10
65.094
20
-60.099
11
65.094
21
-57.439
0
LINE
8
BLACK
6
CONTINUOUS
10
54.814
20
-57.439
11
56.144
21
-57.439
0
LINE
8
BLACK
6
CONTINUOUS
10
57.414
20
-60.099
11
57.414
21
-57.439
0
LINE
8
BLACK
6
CONTINUOUS
10
54.814
20
-58.769
11
54.814
21
-57.439
0
LINE
8
BLACK
6
CONTINUOUS
10
57.414
20
-57.439
11
65.094
21
-57.439
0
LINE
8
BLACK
6
CONTINUOUS
10
76.6647
20
-45.6563
11
84.3447
21
-45.6563
0
LINE
8
BLACK
6
CONTINUOUS
10
74.0647
20
-44.3263
11
74.0647
21
-42.9963
0
LINE
8
BLACK
6
CONTINUOUS
10
84.3447
20
-45.6563
11
84.3447
21
-42.9963
0
LINE
8
BLACK
6
CONTINUOUS
10
76.6647
20
-45.6563
11
76.6647
21
-42.9963
0
LINE
8
BLACK
6
CONTINUOUS
10
74.0647
20
-42.9963
11
75.3947
21
-42.9963
0
LINE
8
BLACK
6
CONTINUOUS
10
76.6647
20
-42.9963
11
84.3447
21
-42.9963
0
LINE
8
BLACK
6
CONTINUOUS
10
83.3175
20
-48.4573
11
83.3175
21
-47.9827
0
LINE
8
BLACK
6
CONTINUOUS
10
84.3625
20
-48.4573
11
84.3625
21
-47.9827
0
LINE
8
BLACK
6
CONTINUOUS
10
85.0475
20
-49.5173
11
85.0475
21
-49.0427
0
LINE
8
BLACK
6
CONTINUOUS
10
86.0925
20
-49.5173
11
86.0925
21
-49.0427
0
LINE
8
BLACK
6
CONTINUOUS
10
89.0073
20
-54.6325
11
88.5327
21
-54.6325
0
LINE
8
BLACK
6
CONTINUOUS
10
89.0073
20
-53.5875
11
88.5327
21
-53.5875
0
LINE
8
BLACK
6
CONTINUOUS
10
89.0073
20
-51.2025
11
88.5327
21
-51.2025
0
LINE
8
BLACK
6
CONTINUOUS
10
89.0073
20
-50.1575
11
88.5327
21
-50.1575
0
LINE
8
BLACK
6
CONTINUOUS
10
89.0073
20
-56.3025
11
88.5327
21
-56.3025
0
LINE
8
BLACK
6
CONTINUOUS
10
89.0073
20
-55.2575
11
88.5327
21
-55.2575
0
LINE
8
BLACK
6
CONTINUOUS
10
89.0073
20
-51.8975
11
88.5327
21
-51.8975
0
LINE
8
BLACK
6
CONTINUOUS
10
89.0073
20
-52.9425
11
88.5327
21
-52.9425
0
LINE
8
BLACK
6
CONTINUOUS
10
79.0527
20
-50.1625
11
79.5273
21
-50.1625
0
LINE
8
BLACK
6
CONTINUOUS
10
79.0527
20
-49.1175
11
79.5273
21
-49.1175
  0
ENDSEC
  0
EOF
