  0
SECTION
  2
HEADER
  9
$ANGBASE
  50
0.0
  9
$ANGDIR
  70
1
  9
$MEASUREMENT
  70
1
  0
ENDSEC
  0
SECTION
  2
TABLES
  0
TABLE
  2
LTYPE
  70
4
  0
LTYPE
  5
40F
  2
CONTINUOUS
  70
0
  3
Solid line
  72
65
  73
0
  40
0.0
  0
LTYPE
  5
410
  2
DASHDOT
 70
0
  3
Dash Dot ____ _ ____ _
 72
65
 73
4
 40
2.0
 49
1.25
 49
-0.25
 49
0.25
 49
-0.25
  0
LTYPE
  5
411
  2
DASHED
 70
0
  3
Dashed __ __ __ __ __
 72
65
 73
2
 40
0.75
 49
0.5
 49
-0.25
  0
LTYPE
  5
43B
  2
DOTTED
 70
0
  3
Dotted .  .  .  .
 72
65
 73
2
 40
0.2
 49
0.0
 49
-0.2
  0
ENDTAB
  0
TABLE
  2
STYLE
  70
4
  0
STYLE
  2
KICAD
  70
0
  40
0
  41
1
  42
1
  50
0
  71
0
  3
isocp.shx
  0
STYLE
  2
KICADB
  70
0
  40
0
  41
1
  42
1
  50
0
  71
0
  3
isocp.shx
  0
STYLE
  2
KICADI
  70
0
  40
0
  41
1
  42
1
  50
15
  71
0
  3
isocp.shx
  0
STYLE
  2
KICADBI
  70
0
  40
0
  41
1
  42
1
  50
15
  71
0
  3
isocp.shx
  0
ENDTAB
  0
TABLE
  2
LAYER
  70
1
  0
LAYER
  2
BLACK
  70
0
  62
7
  6
CONTINUOUS
  0
ENDTAB
  0
ENDSEC
  0
SECTION
  2
ENTITIES
0
LINE
8
BLACK
6
CONTINUOUS
10
54.09
20
-40.87
11
108.29
21
-40.87
0
LINE
8
BLACK
6
CONTINUOUS
10
54.09
20
-71.17
11
54.09
21
-40.87
0
LINE
8
BLACK
6
CONTINUOUS
10
108.29
20
-71.07
11
54.09
21
-71.17
0
LINE
8
BLACK
6
CONTINUOUS
10
108.29
20
-40.87
11
108.29
21
-71.07
0
LINE
8
BLACK
6
CONTINUOUS
10
72.83
20
-52.72
11
72.83
21
-56.72
0
LINE
8
BLACK
6
CONTINUOUS
10
75.13
20
-56.72
11
72.83
21
-56.72
0
LINE
8
BLACK
6
CONTINUOUS
10
75.13
20
-52.72
11
75.13
21
-56.72
0
LINE
8
BLACK
6
CONTINUOUS
10
75.13
20
-52.72
11
72.83
21
-52.72
0
LINE
8
BLACK
6
CONTINUOUS
10
73.52
20
-50.7
11
76.48
21
-50.7
0
LINE
8
BLACK
6
CONTINUOUS
10
76.48
20
-52.16
11
73.52
21
-52.16
0
LINE
8
BLACK
6
CONTINUOUS
10
76.48
20
-50.7
11
76.48
21
-52.16
0
LINE
8
BLACK
6
CONTINUOUS
10
73.52
20
-52.16
11
73.52
21
-50.7
0
LINE
8
BLACK
6
CONTINUOUS
10
81.07
20
-47.38
11
82.53
21
-47.38
0
LINE
8
BLACK
6
CONTINUOUS
10
81.07
20
-50.34
11
81.07
21
-47.38
0
LINE
8
BLACK
6
CONTINUOUS
10
82.53
20
-47.38
11
82.53
21
-50.34
0
LINE
8
BLACK
6
CONTINUOUS
10
82.53
20
-50.34
11
81.07
21
-50.34
0
LINE
8
BLACK
6
CONTINUOUS
10
77.54
20
-61.11
11
85.24
21
-61.11
0
LINE
8
BLACK
6
CONTINUOUS
10
77.54
20
-50.91
11
77.54
21
-61.11
0
LINE
8
BLACK
6
CONTINUOUS
10
85.24
20
-61.11
11
85.24
21
-50.91
0
LINE
8
BLACK
6
CONTINUOUS
10
85.24
20
-50.91
11
77.54
21
-50.91
0
LINE
8
BLACK
6
CONTINUOUS
10
88.57
20
-65.485
11
87.11
21
-65.485
0
LINE
8
BLACK
6
CONTINUOUS
10
87.11
20
-62.525
11
88.57
21
-62.525
0
LINE
8
BLACK
6
CONTINUOUS
10
88.57
20
-62.525
11
88.57
21
-65.485
0
LINE
8
BLACK
6
CONTINUOUS
10
87.11
20
-65.485
11
87.11
21
-62.525
0
LINE
8
BLACK
6
CONTINUOUS
10
88.5
20
-62.335
11
85.54
21
-62.335
0
LINE
8
BLACK
6
CONTINUOUS
10
85.54
20
-62.335
11
85.54
21
-60.875
0
LINE
8
BLACK
6
CONTINUOUS
10
88.5
20
-60.875
11
88.5
21
-62.335
0
LINE
8
BLACK
6
CONTINUOUS
10
85.54
20
-60.875
11
88.5
21
-60.875
0
LINE
8
BLACK
6
CONTINUOUS
10
70.43
20
-62.94
11
71.89
21
-62.94
0
LINE
8
BLACK
6
CONTINUOUS
10
71.89
20
-62.94
11
71.89
21
-65.9
0
LINE
8
BLACK
6
CONTINUOUS
10
70.43
20
-65.9
11
70.43
21
-62.94
0
LINE
8
BLACK
6
CONTINUOUS
10
71.89
20
-65.9
11
70.43
21
-65.9
0
LINE
8
BLACK
6
CONTINUOUS
10
66.81
20
-61
11
66.81
21
-58.04
0
LINE
8
BLACK
6
CONTINUOUS
10
66.81
20
-58.04
11
68.27
21
-58.04
0
LINE
8
BLACK
6
CONTINUOUS
10
68.27
20
-61
11
66.81
21
-61
0
LINE
8
BLACK
6
CONTINUOUS
10
68.27
20
-58.04
11
68.27
21
-61
0
LINE
8
BLACK
6
CONTINUOUS
10
64.16
20
-52.4
11
67.12
21
-52.4
0
LINE
8
BLACK
6
CONTINUOUS
10
67.12
20
-52.4
11
67.12
21
-53.86
0
LINE
8
BLACK
6
CONTINUOUS
10
64.16
20
-53.86
11
64.16
21
-52.4
0
LINE
8
BLACK
6
CONTINUOUS
10
67.12
20
-53.86
11
64.16
21
-53.86
0
LINE
8
BLACK
6
CONTINUOUS
10
65.02
20
-62.59
11
55.02
21
-62.59
0
LINE
8
BLACK
6
CONTINUOUS
10
55.02
20
-62.59
11
55.02
21
-69.09
0
LINE
8
BLACK
6
CONTINUOUS
10
65.02
20
-69.09
11
55.02
21
-69.09
0
LINE
8
BLACK
6
CONTINUOUS
10
65.02
20
-69.09
11
65.02
21
-62.59
0
LINE
8
BLACK
6
CONTINUOUS
10
94.867
20
-42.88
11
106.067
21
-42.88
0
LINE
8
BLACK
6
CONTINUOUS
10
106.067
20
-51.93
11
94.867
21
-51.93
0
LINE
8
BLACK
6
CONTINUOUS
10
106.067
20
-42.88
11
106.067
21
-51.93
0
LINE
8
BLACK
6
CONTINUOUS
10
94.867
20
-51.93
11
94.867
21
-42.88
0
LINE
8
BLACK
6
CONTINUOUS
10
54.344
20
-60.569
11
54.344
21
-57.019
0
LINE
8
BLACK
6
CONTINUOUS
10
54.344
20
-57.019
11
65.544
21
-57.019
0
LINE
8
BLACK
6
CONTINUOUS
10
65.544
20
-60.569
11
54.344
21
-60.569
0
LINE
8
BLACK
6
CONTINUOUS
10
65.544
20
-57.019
11
65.544
21
-60.569
0
LINE
8
BLACK
6
CONTINUOUS
10
84.7947
20
-42.5763
11
84.7947
21
-46.1263
0
LINE
8
BLACK
6
CONTINUOUS
10
84.7947
20
-46.1263
11
73.5947
21
-46.1263
0
LINE
8
BLACK
6
CONTINUOUS
10
73.5947
20
-42.5763
11
84.7947
21
-42.5763
0
LINE
8
BLACK
6
CONTINUOUS
10
73.5947
20
-46.1263
11
73.5947
21
-42.5763
0
LINE
8
BLACK
6
CONTINUOUS
10
83.11
20
-46.74
11
84.57
21
-46.74
0
LINE
8
BLACK
6
CONTINUOUS
10
83.11
20
-49.7
11
83.11
21
-46.74
0
LINE
8
BLACK
6
CONTINUOUS
10
84.57
20
-49.7
11
83.11
21
-49.7
0
LINE
8
BLACK
6
CONTINUOUS
10
84.57
20
-46.74
11
84.57
21
-49.7
0
LINE
8
BLACK
6
CONTINUOUS
10
86.3
20
-47.8
11
86.3
21
-50.76
0
LINE
8
BLACK
6
CONTINUOUS
10
84.84
20
-47.8
11
86.3
21
-47.8
0
LINE
8
BLACK
6
CONTINUOUS
10
84.84
20
-50.76
11
84.84
21
-47.8
0
LINE
8
BLACK
6
CONTINUOUS
10
86.3
20
-50.76
11
84.84
21
-50.76
0
LINE
8
BLACK
6
CONTINUOUS
10
87.29
20
-54.84
11
87.29
21
-53.38
0
LINE
8
BLACK
6
CONTINUOUS
10
90.25
20
-53.38
11
90.25
21
-54.84
0
LINE
8
BLACK
6
CONTINUOUS
10
87.29
20
-53.38
11
90.25
21
-53.38
0
LINE
8
BLACK
6
CONTINUOUS
10
90.25
20
-54.84
11
87.29
21
-54.84
0
LINE
8
BLACK
6
CONTINUOUS
10
90.25
20
-49.95
11
90.25
21
-51.41
0
LINE
8
BLACK
6
CONTINUOUS
10
87.29
20
-51.41
11
87.29
21
-49.95
0
LINE
8
BLACK
6
CONTINUOUS
10
87.29
20
-49.95
11
90.25
21
-49.95
0
LINE
8
BLACK
6
CONTINUOUS
10
90.25
20
-51.41
11
87.29
21
-51.41
0
LINE
8
BLACK
6
CONTINUOUS
10
87.29
20
-56.51
11
87.29
21
-55.05
0
LINE
8
BLACK
6
CONTINUOUS
10
90.25
20
-55.05
11
90.25
21
-56.51
0
LINE
8
BLACK
6
CONTINUOUS
10
87.29
20
-55.05
11
90.25
21
-55.05
0
LINE
8
BLACK
6
CONTINUOUS
10
90.25
20
-56.51
11
87.29
21
-56.51
0
LINE
8
BLACK
6
CONTINUOUS
10
90.25
20
-51.69
11
90.25
21
-53.15
0
LINE
8
BLACK
6
CONTINUOUS
10
87.29
20
-53.15
11
87.29
21
-51.69
0
LINE
8
BLACK
6
CONTINUOUS
10
87.29
20
-51.69
11
90.25
21
-51.69
0
LINE
8
BLACK
6
CONTINUOUS
10
90.25
20
-53.15
11
87.29
21
-53.15
0
LINE
8
BLACK
6
CONTINUOUS
10
77.81
20
-50.37
11
77.81
21
-48.91
0
LINE
8
BLACK
6
CONTINUOUS
10
77.81
20
-48.91
11
80.77
21
-48.91
0
LINE
8
BLACK
6
CONTINUOUS
10
80.77
20
-48.91
11
80.77
21
-50.37
0
LINE
8
BLACK
6
CONTINUOUS
10
80.77
20
-50.37
11
77.81
21
-50.37
0
CIRCLE
8
BLACK
10
90.75
20
-68.02
40
2.15
0
CIRCLE
8
BLACK
10
106.21
20
-69.01
40
2.15
0
CIRCLE
8
BLACK
10
57.531
20
-49.784
40
3.05
0
CIRCLE
8
BLACK
10
56.2
20
-43
40
2.15
0
CIRCLE
8
BLACK
10
67.65
20
-44.45
40
2.15
0
CIRCLE
8
BLACK
10
67.65
20
-68.02
40
2.15
0
CIRCLE
8
BLACK
10
90.75
20
-44.45
40
2.15
  0
ENDSEC
  0
EOF
