0
SECTION
2
ENTITIES
0
LINE
8
FCrtYd
62
7
10
72.83
20
-52.72
11
72.83
21
-56.72
0
LINE
8
FCrtYd
62
7
10
75.13
20
-56.72
11
72.83
21
-56.72
0
LINE
8
FCrtYd
62
7
10
75.13
20
-52.72
11
75.13
21
-56.72
0
LINE
8
FCrtYd
62
7
10
75.13
20
-52.72
11
72.83
21
-52.72
0
LINE
8
FFab
62
5
10
74.73
20
-53.12
11
73.23
21
-53.12
0
LINE
8
FFab
62
5
10
74.73
20
-53.12
11
74.73
21
-56.32
0
LINE
8
FFab
62
5
10
74.73
20
-56.32
11
73.23
21
-56.32
0
LINE
8
FFab
62
5
10
73.23
20
-53.12
11
73.23
21
-56.32
0
LINE
8
FCrtYd
62
7
10
76.48
20
-52.16
11
73.52
21
-52.16
0
LINE
8
FCrtYd
62
7
10
73.52
20
-50.7
11
76.48
21
-50.7
0
LINE
8
FCrtYd
62
7
10
73.52
20
-52.16
11
73.52
21
-50.7
0
LINE
8
FCrtYd
62
7
10
76.48
20
-50.7
11
76.48
21
-52.16
0
LINE
8
FFab
62
5
10
75.8
20
-51.83
11
74.2
21
-51.83
0
LINE
8
FFab
62
5
10
74.2
20
-51.03
11
75.8
21
-51.03
0
LINE
8
FFab
62
5
10
74.2
20
-51.83
11
74.2
21
-51.03
0
LINE
8
FFab
62
5
10
75.8
20
-51.03
11
75.8
21
-51.83
0
LINE
8
FCrtYd
62
7
10
81.07
20
-47.38
11
82.53
21
-47.38
0
LINE
8
FCrtYd
62
7
10
81.07
20
-50.34
11
81.07
21
-47.38
0
LINE
8
FCrtYd
62
7
10
82.53
20
-47.38
11
82.53
21
-50.34
0
LINE
8
FCrtYd
62
7
10
82.53
20
-50.34
11
81.07
21
-50.34
0
LINE
8
FFab
62
5
10
82.2
20
-49.66
11
81.4
21
-49.66
0
LINE
8
FFab
62
5
10
81.4
20
-49.66
11
81.4
21
-48.06
0
LINE
8
FFab
62
5
10
82.2
20
-48.06
11
82.2
21
-49.66
0
LINE
8
FFab
62
5
10
81.4
20
-48.06
11
82.2
21
-48.06
0
LINE
8
FCrtYd
62
7
10
77.54
20
-61.11
11
85.24
21
-61.11
0
LINE
8
FCrtYd
62
7
10
77.54
20
-50.91
11
77.54
21
-61.11
0
LINE
8
FCrtYd
62
7
10
85.24
20
-61.11
11
85.24
21
-50.91
0
LINE
8
FCrtYd
62
7
10
85.24
20
-50.91
11
77.54
21
-50.91
0
LINE
8
FFab
62
5
10
80.19
20
-51.16
11
83.59
21
-51.16
0
LINE
8
FFab
62
5
10
83.59
20
-51.16
11
83.59
21
-60.86
0
LINE
8
FFab
62
5
10
83.59
20
-60.86
11
79.19
21
-60.86
0
LINE
8
FFab
62
5
10
79.19
20
-52.16
11
80.19
21
-51.16
0
LINE
8
FFab
62
5
10
79.19
20
-60.86
11
79.19
21
-52.16
0
LINE
8
FCrtYd
62
7
10
88.57
20
-65.485
11
87.11
21
-65.485
0
LINE
8
FCrtYd
62
7
10
87.11
20
-62.525
11
88.57
21
-62.525
0
LINE
8
FCrtYd
62
7
10
88.57
20
-62.525
11
88.57
21
-65.485
0
LINE
8
FCrtYd
62
7
10
87.11
20
-65.485
11
87.11
21
-62.525
0
LINE
8
FFab
62
5
10
88.2525
20
-64.805
11
87.4275
21
-64.805
0
LINE
8
FFab
62
5
10
88.2525
20
-63.205
11
88.2525
21
-64.805
0
LINE
8
FFab
62
5
10
87.4275
20
-64.805
11
87.4275
21
-63.205
0
LINE
8
FFab
62
5
10
87.4275
20
-63.205
11
88.2525
21
-63.205
0
LINE
8
FCrtYd
62
7
10
85.54
20
-60.875
11
88.5
21
-60.875
0
LINE
8
FCrtYd
62
7
10
88.5
20
-60.875
11
88.5
21
-62.335
0
LINE
8
FCrtYd
62
7
10
85.54
20
-62.335
11
85.54
21
-60.875
0
LINE
8
FCrtYd
62
7
10
88.5
20
-62.335
11
85.54
21
-62.335
0
LINE
8
FFab
62
5
10
87.82
20
-62.0175
11
86.22
21
-62.0175
0
LINE
8
FFab
62
5
10
86.22
20
-62.0175
11
86.22
21
-61.1925
0
LINE
8
FFab
62
5
10
87.82
20
-61.1925
11
87.82
21
-62.0175
0
LINE
8
FFab
62
5
10
86.22
20
-61.1925
11
87.82
21
-61.1925
0
LINE
8
FCrtYd
62
7
10
70.43
20
-62.94
11
71.89
21
-62.94
0
LINE
8
FCrtYd
62
7
10
71.89
20
-62.94
11
71.89
21
-65.9
0
LINE
8
FCrtYd
62
7
10
70.43
20
-65.9
11
70.43
21
-62.94
0
LINE
8
FCrtYd
62
7
10
71.89
20
-65.9
11
70.43
21
-65.9
0
LINE
8
FFab
62
5
10
71.5725
20
-63.62
11
71.5725
21
-65.22
0
LINE
8
FFab
62
5
10
70.7475
20
-63.62
11
71.5725
21
-63.62
0
LINE
8
FFab
62
5
10
71.5725
20
-65.22
11
70.7475
21
-65.22
0
LINE
8
FFab
62
5
10
70.7475
20
-65.22
11
70.7475
21
-63.62
0
LINE
8
FCrtYd
62
7
10
66.81
20
-61.0
11
66.81
21
-58.04
0
LINE
8
FCrtYd
62
7
10
66.81
20
-58.04
11
68.27
21
-58.04
0
LINE
8
FCrtYd
62
7
10
68.27
20
-61.0
11
66.81
21
-61.0
0
LINE
8
FCrtYd
62
7
10
68.27
20
-58.04
11
68.27
21
-61.0
0
LINE
8
FFab
62
5
10
67.1275
20
-58.72
11
67.9525
21
-58.72
0
LINE
8
FFab
62
5
10
67.9525
20
-60.32
11
67.1275
21
-60.32
0
LINE
8
FFab
62
5
10
67.9525
20
-58.72
11
67.9525
21
-60.32
0
LINE
8
FFab
62
5
10
67.1275
20
-60.32
11
67.1275
21
-58.72
0
LINE
8
FCrtYd
62
7
10
64.16
20
-52.4
11
67.12
21
-52.4
0
LINE
8
FCrtYd
62
7
10
67.12
20
-52.4
11
67.12
21
-53.86
0
LINE
8
FCrtYd
62
7
10
64.16
20
-53.86
11
64.16
21
-52.4
0
LINE
8
FCrtYd
62
7
10
67.12
20
-53.86
11
64.16
21
-53.86
0
LINE
8
FFab
62
5
10
64.84
20
-53.5425
11
64.84
21
-52.7175
0
LINE
8
FFab
62
5
10
66.44
20
-53.5425
11
64.84
21
-53.5425
0
LINE
8
FFab
62
5
10
64.84
20
-52.7175
11
66.44
21
-52.7175
0
LINE
8
FFab
62
5
10
66.44
20
-52.7175
11
66.44
21
-53.5425
0
LINE
8
FCrtYd
62
7
10
55.02
20
-69.09
11
65.02
21
-69.09
0
LINE
8
FCrtYd
62
7
10
65.02
20
-69.09
11
65.02
21
-62.59
0
LINE
8
FCrtYd
62
7
10
55.02
20
-62.59
11
65.02
21
-62.59
0
LINE
8
FCrtYd
62
7
10
55.02
20
-62.59
11
55.02
21
-69.09
0
LINE
8
FFab
62
5
10
57.02
20
-68.84
11
63.02
21
-68.84
0
LINE
8
FFab
62
5
10
57.02
20
-62.84
11
57.02
21
-68.84
0
LINE
8
FFab
62
5
10
63.02
20
-68.84
11
63.02
21
-62.84
0
LINE
8
FFab
62
5
10
63.02
20
-62.84
11
57.02
21
-62.84
0
CIRCLE
8
FFab
62
5
10
60.02
20
-65.84
40
1.750714
0
LINE
8
FCrtYd
62
7
10
94.867001
20
-42.879999
11
106.067001
21
-42.879999
0
LINE
8
FCrtYd
62
7
10
106.067001
20
-51.929999
11
94.867001
21
-51.929999
0
LINE
8
FCrtYd
62
7
10
106.067001
20
-42.879999
11
106.067001
21
-51.929999
0
LINE
8
FCrtYd
62
7
10
94.867001
20
-51.929999
11
94.867001
21
-42.879999
0
LINE
8
FFab
62
5
10
103.957001
20
-51.349999
11
103.957001
21
-49.969999
0
LINE
8
FFab
62
5
10
102.057001
20
-51.349999
11
101.417001
21
-51.349999
0
LINE
8
FFab
62
5
10
99.517001
20
-49.969999
11
99.517001
21
-51.349999
0
LINE
8
FFab
62
5
10
102.057001
20
-49.969999
11
102.057001
21
-51.349999
0
LINE
8
FFab
62
5
10
99.517001
20
-51.349999
11
98.877001
21
-51.349999
0
LINE
8
FFab
62
5
10
95.387001
20
-49.969999
11
95.387001
21
-44.889999
0
LINE
8
FFab
62
5
10
96.977001
20
-51.349999
11
96.337001
21
-51.349999
0
LINE
8
FFab
62
5
10
101.417001
20
-43.509999
11
102.057001
21
-43.509999
0
LINE
8
FFab
62
5
10
105.547001
20
-48.969999
11
104.547001
21
-49.969999
0
LINE
8
FFab
62
5
10
98.877001
20
-51.349999
11
98.877001
21
-49.969999
0
LINE
8
FFab
62
5
10
105.547001
20
-44.889999
11
105.547001
21
-48.969999
0
LINE
8
FFab
62
5
10
95.387001
20
-44.889999
11
105.547001
21
-44.889999
0
LINE
8
FFab
62
5
10
96.337001
20
-43.509999
11
96.977001
21
-43.509999
0
LINE
8
FFab
62
5
10
103.957001
20
-44.889999
11
103.957001
21
-43.509999
0
LINE
8
FFab
62
5
10
99.517001
20
-43.509999
11
99.517001
21
-44.889999
0
LINE
8
FFab
62
5
10
96.977001
20
-49.969999
11
96.977001
21
-51.349999
0
LINE
8
FFab
62
5
10
104.597001
20
-43.509999
11
104.597001
21
-44.889999
0
LINE
8
FFab
62
5
10
96.977001
20
-43.509999
11
96.977001
21
-44.889999
0
LINE
8
FFab
62
5
10
104.597001
20
-51.349999
11
103.957001
21
-51.349999
0
LINE
8
FFab
62
5
10
101.417001
20
-44.889999
11
101.417001
21
-43.509999
0
LINE
8
FFab
62
5
10
102.057001
20
-43.509999
11
102.057001
21
-44.889999
0
LINE
8
FFab
62
5
10
103.957001
20
-43.509999
11
104.597001
21
-43.509999
0
LINE
8
FFab
62
5
10
96.337001
20
-44.889999
11
96.337001
21
-43.509999
0
LINE
8
FFab
62
5
10
98.877001
20
-43.509999
11
99.517001
21
-43.509999
0
LINE
8
FFab
62
5
10
101.417001
20
-51.349999
11
101.417001
21
-49.969999
0
LINE
8
FFab
62
5
10
104.547001
20
-49.969999
11
95.387001
21
-49.969999
0
LINE
8
FFab
62
5
10
98.877001
20
-44.889999
11
98.877001
21
-43.509999
0
LINE
8
FFab
62
5
10
104.597001
20
-49.969999
11
104.597001
21
-51.349999
0
LINE
8
FFab
62
5
10
96.337001
20
-51.349999
11
96.337001
21
-49.969999
0
LINE
8
FCrtYd
62
7
10
54.344
20
-60.569
11
54.344
21
-57.019
0
LINE
8
FCrtYd
62
7
10
54.344
20
-57.019
11
65.544
21
-57.019
0
LINE
8
FCrtYd
62
7
10
65.544
20
-60.569
11
54.344
21
-60.569
0
LINE
8
FCrtYd
62
7
10
65.544
20
-57.019
11
65.544
21
-60.569
0
LINE
8
FFab
62
5
10
55.509
20
-57.499
11
65.034
21
-57.499
0
LINE
8
FFab
62
5
10
54.874
20
-58.134
11
55.509
21
-57.499
0
LINE
8
FFab
62
5
10
65.034
20
-57.499
11
65.034
21
-60.039
0
LINE
8
FFab
62
5
10
65.034
20
-60.039
11
54.874
21
-60.039
0
LINE
8
FFab
62
5
10
54.874
20
-60.039
11
54.874
21
-58.134
0
LINE
8
FCrtYd
62
7
10
84.794724
20
-42.5763
11
84.794724
21
-46.1263
0
LINE
8
FCrtYd
62
7
10
84.794724
20
-46.1263
11
73.594724
21
-46.1263
0
LINE
8
FCrtYd
62
7
10
73.594724
20
-42.5763
11
84.794724
21
-42.5763
0
LINE
8
FCrtYd
62
7
10
73.594724
20
-46.1263
11
73.594724
21
-42.5763
0
LINE
8
FFab
62
5
10
84.284724
20
-45.5963
11
74.124724
21
-45.5963
0
LINE
8
FFab
62
5
10
74.124724
20
-45.5963
11
74.124724
21
-43.6913
0
LINE
8
FFab
62
5
10
74.124724
20
-43.6913
11
74.759724
21
-43.0563
0
LINE
8
FFab
62
5
10
74.759724
20
-43.0563
11
84.284724
21
-43.0563
0
LINE
8
FFab
62
5
10
84.284724
20
-43.0563
11
84.284724
21
-45.5963
0
LINE
8
FCrtYd
62
7
10
83.11
20
-46.74
11
84.57
21
-46.74
0
LINE
8
FCrtYd
62
7
10
83.11
20
-49.7
11
83.11
21
-46.74
0
LINE
8
FCrtYd
62
7
10
84.57
20
-49.7
11
83.11
21
-49.7
0
LINE
8
FCrtYd
62
7
10
84.57
20
-46.74
11
84.57
21
-49.7
0
LINE
8
FFab
62
5
10
84.2525
20
-47.42
11
84.2525
21
-49.02
0
LINE
8
FFab
62
5
10
84.2525
20
-49.02
11
83.4275
21
-49.02
0
LINE
8
FFab
62
5
10
83.4275
20
-49.02
11
83.4275
21
-47.42
0
LINE
8
FFab
62
5
10
83.4275
20
-47.42
11
84.2525
21
-47.42
0
LINE
8
FCrtYd
62
7
10
86.3
20
-47.8
11
86.3
21
-50.76
0
LINE
8
FCrtYd
62
7
10
84.84
20
-47.8
11
86.3
21
-47.8
0
LINE
8
FCrtYd
62
7
10
84.84
20
-50.76
11
84.84
21
-47.8
0
LINE
8
FCrtYd
62
7
10
86.3
20
-50.76
11
84.84
21
-50.76
0
LINE
8
FFab
62
5
10
85.9825
20
-50.08
11
85.1575
21
-50.08
0
LINE
8
FFab
62
5
10
85.1575
20
-48.48
11
85.9825
21
-48.48
0
LINE
8
FFab
62
5
10
85.1575
20
-50.08
11
85.1575
21
-48.48
0
LINE
8
FFab
62
5
10
85.9825
20
-48.48
11
85.9825
21
-50.08
0
LINE
8
FCrtYd
62
7
10
90.25
20
-53.38
11
90.25
21
-54.84
0
LINE
8
FCrtYd
62
7
10
87.29
20
-54.84
11
87.29
21
-53.38
0
LINE
8
FCrtYd
62
7
10
90.25
20
-54.84
11
87.29
21
-54.84
0
LINE
8
FCrtYd
62
7
10
87.29
20
-53.38
11
90.25
21
-53.38
0
LINE
8
FFab
62
5
10
89.57
20
-54.5225
11
87.97
21
-54.5225
0
LINE
8
FFab
62
5
10
87.97
20
-53.6975
11
89.57
21
-53.6975
0
LINE
8
FFab
62
5
10
87.97
20
-54.5225
11
87.97
21
-53.6975
0
LINE
8
FFab
62
5
10
89.57
20
-53.6975
11
89.57
21
-54.5225
0
LINE
8
FCrtYd
62
7
10
87.29
20
-51.41
11
87.29
21
-49.95
0
LINE
8
FCrtYd
62
7
10
90.25
20
-49.95
11
90.25
21
-51.41
0
LINE
8
FCrtYd
62
7
10
90.25
20
-51.41
11
87.29
21
-51.41
0
LINE
8
FCrtYd
62
7
10
87.29
20
-49.95
11
90.25
21
-49.95
0
LINE
8
FFab
62
5
10
89.57
20
-50.2675
11
89.57
21
-51.0925
0
LINE
8
FFab
62
5
10
89.57
20
-51.0925
11
87.97
21
-51.0925
0
LINE
8
FFab
62
5
10
87.97
20
-50.2675
11
89.57
21
-50.2675
0
LINE
8
FFab
62
5
10
87.97
20
-51.0925
11
87.97
21
-50.2675
0
LINE
8
FCrtYd
62
7
10
90.25
20
-55.05
11
90.25
21
-56.51
0
LINE
8
FCrtYd
62
7
10
87.29
20
-56.51
11
87.29
21
-55.05
0
LINE
8
FCrtYd
62
7
10
90.25
20
-56.51
11
87.29
21
-56.51
0
LINE
8
FCrtYd
62
7
10
87.29
20
-55.05
11
90.25
21
-55.05
0
LINE
8
FFab
62
5
10
89.57
20
-55.3675
11
89.57
21
-56.1925
0
LINE
8
FFab
62
5
10
87.97
20
-56.1925
11
87.97
21
-55.3675
0
LINE
8
FFab
62
5
10
89.57
20
-56.1925
11
87.97
21
-56.1925
0
LINE
8
FFab
62
5
10
87.97
20
-55.3675
11
89.57
21
-55.3675
0
LINE
8
FCrtYd
62
7
10
87.29
20
-53.15
11
87.29
21
-51.69
0
LINE
8
FCrtYd
62
7
10
90.25
20
-51.69
11
90.25
21
-53.15
0
LINE
8
FCrtYd
62
7
10
90.25
20
-53.15
11
87.29
21
-53.15
0
LINE
8
FCrtYd
62
7
10
87.29
20
-51.69
11
90.25
21
-51.69
0
LINE
8
FFab
62
5
10
89.57
20
-52.0075
11
89.57
21
-52.8325
0
LINE
8
FFab
62
5
10
87.97
20
-52.8325
11
87.97
21
-52.0075
0
LINE
8
FFab
62
5
10
89.57
20
-52.8325
11
87.97
21
-52.8325
0
LINE
8
FFab
62
5
10
87.97
20
-52.0075
11
89.57
21
-52.0075
0
LINE
8
FCrtYd
62
7
10
77.81
20
-50.37
11
77.81
21
-48.91
0
LINE
8
FCrtYd
62
7
10
77.81
20
-48.91
11
80.77
21
-48.91
0
LINE
8
FCrtYd
62
7
10
80.77
20
-48.91
11
80.77
21
-50.37
0
LINE
8
FCrtYd
62
7
10
80.77
20
-50.37
11
77.81
21
-50.37
0
LINE
8
FFab
62
5
10
80.09
20
-49.2275
11
80.09
21
-50.0525
0
LINE
8
FFab
62
5
10
78.49
20
-49.2275
11
80.09
21
-49.2275
0
LINE
8
FFab
62
5
10
80.09
20
-50.0525
11
78.49
21
-50.0525
0
LINE
8
FFab
62
5
10
78.49
20
-50.0525
11
78.49
21
-49.2275
0
CIRCLE
8
Cmts
62
1
10
90.75
20
-68.02
40
1.9
0
CIRCLE
8
FCrtYd
62
7
10
90.75
20
-68.02
40
2.15
0
CIRCLE
8
Cmts
62
1
10
106.21
20
-69.01
40
1.9
0
CIRCLE
8
FCrtYd
62
7
10
106.21
20
-69.01
40
2.15
0
CIRCLE
8
Cmts
62
1
10
57.531
20
-49.784
40
2.8
0
CIRCLE
8
FCrtYd
62
7
10
57.531
20
-49.784
40
3.05
0
CIRCLE
8
Cmts
62
1
10
56.2
20
-43.0
40
1.9
0
CIRCLE
8
FCrtYd
62
7
10
56.2
20
-43.0
40
2.15
0
CIRCLE
8
Cmts
62
1
10
67.65
20
-44.45
40
1.9
0
CIRCLE
8
FCrtYd
62
7
10
67.65
20
-44.45
40
2.15
0
CIRCLE
8
Cmts
62
1
10
67.65
20
-68.02
40
1.9
0
CIRCLE
8
FCrtYd
62
7
10
67.65
20
-68.02
40
2.15
0
CIRCLE
8
Cmts
62
1
10
90.75
20
-44.45
40
1.9
0
CIRCLE
8
FCrtYd
62
7
10
90.75
20
-44.45
40
2.15
0
LINE
8
BCrtYd
62
8
10
91.52
20
-52.95
11
92.98
21
-52.95
0
LINE
8
BCrtYd
62
8
10
92.98
20
-49.99
11
91.52
21
-49.99
0
LINE
8
BCrtYd
62
8
10
92.98
20
-52.95
11
92.98
21
-49.99
0
LINE
8
BCrtYd
62
8
10
91.52
20
-49.99
11
91.52
21
-52.95
0
LINE
8
BFab
62
6
10
91.85
20
-50.67
11
91.85
21
-52.27
0
LINE
8
BFab
62
6
10
92.65
20
-50.67
11
91.85
21
-50.67
0
LINE
8
BFab
62
6
10
91.85
20
-52.27
11
92.65
21
-52.27
0
LINE
8
BFab
62
6
10
92.65
20
-52.27
11
92.65
21
-50.67
0
LINE
8
BCrtYd
62
8
10
103.44
20
-62.2825
11
101.48
21
-62.2825
0
LINE
8
BCrtYd
62
8
10
101.48
20
-62.2825
11
101.48
21
-65.6825
0
LINE
8
BCrtYd
62
8
10
101.48
20
-65.6825
11
103.44
21
-65.6825
0
LINE
8
BCrtYd
62
8
10
103.44
20
-65.6825
11
103.44
21
-62.2825
0
LINE
8
BFab
62
6
10
103.085
20
-62.9825
11
101.835
21
-62.9825
0
LINE
8
BFab
62
6
10
101.835
20
-64.9825
11
103.085
21
-64.9825
0
LINE
8
BFab
62
6
10
101.835
20
-62.9825
11
101.835
21
-64.9825
0
LINE
8
BFab
62
6
10
103.085
20
-64.9825
11
103.085
21
-62.9825
0
LINE
8
BCrtYd
62
8
10
102.23
20
-66.38
11
99.27
21
-66.38
0
LINE
8
BCrtYd
62
8
10
102.23
20
-67.84
11
102.23
21
-66.38
0
LINE
8
BCrtYd
62
8
10
99.27
20
-66.38
11
99.27
21
-67.84
0
LINE
8
BCrtYd
62
8
10
99.27
20
-67.84
11
102.23
21
-67.84
0
LINE
8
BFab
62
6
10
101.55
20
-66.71
11
99.95
21
-66.71
0
LINE
8
BFab
62
6
10
101.55
20
-67.51
11
101.55
21
-66.71
0
LINE
8
BFab
62
6
10
99.95
20
-66.71
11
99.95
21
-67.51
0
LINE
8
BFab
62
6
10
99.95
20
-67.51
11
101.55
21
-67.51
0
LINE
8
BCrtYd
62
8
10
94.94
20
-65.68
11
94.94
21
-62.28
0
LINE
8
BCrtYd
62
8
10
92.98
20
-65.68
11
94.94
21
-65.68
0
LINE
8
BCrtYd
62
8
10
94.94
20
-62.28
11
92.98
21
-62.28
0
LINE
8
BCrtYd
62
8
10
92.98
20
-62.28
11
92.98
21
-65.68
0
LINE
8
BFab
62
6
10
93.335
20
-64.98
11
94.585
21
-64.98
0
LINE
8
BFab
62
6
10
94.585
20
-64.98
11
94.585
21
-62.98
0
LINE
8
BFab
62
6
10
94.585
20
-62.98
11
93.335
21
-62.98
0
LINE
8
BFab
62
6
10
93.335
20
-62.98
11
93.335
21
-64.98
0
LINE
8
BCrtYd
62
8
10
95.17
20
-65.68
11
97.13
21
-65.68
0
LINE
8
BCrtYd
62
8
10
97.13
20
-65.68
11
97.13
21
-62.28
0
LINE
8
BCrtYd
62
8
10
95.17
20
-62.28
11
95.17
21
-65.68
0
LINE
8
BCrtYd
62
8
10
97.13
20
-62.28
11
95.17
21
-62.28
0
LINE
8
BFab
62
6
10
95.525
20
-64.98
11
96.775
21
-64.98
0
LINE
8
BFab
62
6
10
96.775
20
-64.98
11
96.775
21
-62.98
0
LINE
8
BFab
62
6
10
95.525
20
-62.98
11
95.525
21
-64.98
0
LINE
8
BFab
62
6
10
96.775
20
-62.98
11
95.525
21
-62.98
0
LINE
8
BCrtYd
62
8
10
95.19
20
-52.44
11
93.15
21
-52.44
0
LINE
8
BCrtYd
62
8
10
93.15
20
-54.84
11
95.19
21
-54.84
0
LINE
8
BCrtYd
62
8
10
93.15
20
-54.84
11
93.15
21
-52.44
0
LINE
8
BCrtYd
62
8
10
95.19
20
-52.44
11
95.19
21
-54.84
0
LINE
8
BFab
62
6
10
93.39
20
-54.415
11
93.39
21
-52.855
0
LINE
8
BFab
62
6
10
94.95
20
-52.855
11
93.39
21
-52.855
0
LINE
8
BFab
62
6
10
94.95
20
-52.855
11
94.95
21
-54.135
0
LINE
8
BFab
62
6
10
94.67
20
-54.415
11
93.39
21
-54.415
0
LINE
8
BFab
62
6
10
94.95
20
-54.135
11
94.67
21
-54.415
0
LINE
8
BCrtYd
62
8
10
97.98
20
-66.1225
11
97.98
21
-62.3625
0
LINE
8
BCrtYd
62
8
10
100.98
20
-66.1225
11
97.98
21
-66.1225
0
LINE
8
BCrtYd
62
8
10
100.98
20
-62.3625
11
100.98
21
-66.1225
0
LINE
8
BCrtYd
62
8
10
97.98
20
-62.3625
11
100.98
21
-62.3625
0
LINE
8
BFab
62
6
10
100.73
20
-62.9925
11
98.855
21
-62.9925
0
LINE
8
BFab
62
6
10
98.855
20
-62.9925
11
98.23
21
-63.6175
0
LINE
8
BFab
62
6
10
100.73
20
-65.4925
11
100.73
21
-62.9925
0
LINE
8
BFab
62
6
10
98.23
20
-65.4925
11
100.73
21
-65.4925
0
LINE
8
BFab
62
6
10
98.23
20
-63.6175
11
98.23
21
-65.4925
0
LINE
8
BCrtYd
62
8
10
103.43
20
-61.7225
11
100.53
21
-61.7225
0
LINE
8
BCrtYd
62
8
10
100.53
20
-64.1225
11
103.43
21
-64.1225
0
LINE
8
BCrtYd
62
8
10
103.43
20
-64.1225
11
103.43
21
-61.7225
0
LINE
8
BCrtYd
62
8
10
100.53
20
-61.7225
11
100.53
21
-64.1225
0
LINE
8
BCrtYd
62
8
10
96.45
20
-51.49
11
96.45
21
-50.03
0
LINE
8
BCrtYd
62
8
10
93.49
20
-50.03
11
93.49
21
-51.49
0
LINE
8
BCrtYd
62
8
10
93.49
20
-51.49
11
96.45
21
-51.49
0
LINE
8
BCrtYd
62
8
10
96.45
20
-50.03
11
93.49
21
-50.03
0
LINE
8
BFab
62
6
10
95.77
20
-50.3475
11
94.17
21
-50.3475
0
LINE
8
BFab
62
6
10
95.77
20
-51.1725
11
95.77
21
-50.3475
0
LINE
8
BFab
62
6
10
94.17
20
-51.1725
11
95.77
21
-51.1725
0
LINE
8
BFab
62
6
10
94.17
20
-50.3475
11
94.17
21
-51.1725
0
LINE
8
BCrtYd
62
8
10
95.43
20
-55.47
11
96.89
21
-55.47
0
LINE
8
BCrtYd
62
8
10
96.89
20
-52.51
11
95.43
21
-52.51
0
LINE
8
BCrtYd
62
8
10
95.43
20
-52.51
11
95.43
21
-55.47
0
LINE
8
BCrtYd
62
8
10
96.89
20
-55.47
11
96.89
21
-52.51
0
LINE
8
BFab
62
6
10
96.5725
20
-54.79
11
96.5725
21
-53.19
0
LINE
8
BFab
62
6
10
95.7475
20
-53.19
11
95.7475
21
-54.79
0
LINE
8
BFab
62
6
10
95.7475
20
-54.79
11
96.5725
21
-54.79
0
LINE
8
BFab
62
6
10
96.5725
20
-53.19
11
95.7475
21
-53.19
0
LINE
8
BCrtYd
62
8
10
96.3
20
-61.21
11
88.96
21
-61.21
0
LINE
8
BCrtYd
62
8
10
88.96
20
-55.71
11
88.96
21
-61.21
0
LINE
8
BCrtYd
62
8
10
96.3
20
-61.21
11
96.3
21
-55.71
0
LINE
8
BCrtYd
62
8
10
88.96
20
-55.71
11
96.3
21
-55.71
0
LINE
8
BFab
62
6
10
90.415
20
-59.31
11
89.415
21
-59.31
0
LINE
8
BFab
62
6
10
89.415
20
-60.61
11
89.415
21
-60.11
0
LINE
8
BFab
62
6
10
89.415
20
-60.61
11
90.415
21
-60.61
0
LINE
8
BFab
62
6
10
89.415
20
-58.06
11
89.415
21
-57.61
0
LINE
8
BFab
62
6
10
89.415
20
-58.86
11
90.415
21
-58.86
0
LINE
8
BFab
62
6
10
89.415
20
-60.11
11
90.415
21
-60.11
0
LINE
8
BFab
62
6
10
89.415
20
-56.76
11
89.415
21
-56.31
0
LINE
8
BFab
62
6
10
90.415
20
-60.96
11
90.415
21
-55.96
0
LINE
8
BFab
62
6
10
94.515
20
-60.96
11
90.415
21
-60.96
0
LINE
8
BFab
62
6
10
89.415
20
-57.61
11
90.415
21
-57.61
0
LINE
8
BFab
62
6
10
95.815
20
-60.66
11
95.815
21
-56.26
0
LINE
8
BFab
62
6
10
95.815
20
-56.26
11
94.515
21
-56.26
0
LINE
8
BFab
62
6
10
94.515
20
-55.96
11
94.515
21
-60.96
0
LINE
8
BFab
62
6
10
90.415
20
-58.06
11
89.415
21
-58.06
0
LINE
8
BFab
62
6
10
95.815
20
-60.66
11
94.515
21
-60.66
0
LINE
8
BFab
62
6
10
90.415
20
-56.76
11
89.415
21
-56.76
0
LINE
8
BFab
62
6
10
90.415
20
-55.96
11
94.515
21
-55.96
0
LINE
8
BFab
62
6
10
89.415
20
-56.31
11
90.415
21
-56.31
0
LINE
8
BFab
62
6
10
89.415
20
-59.31
11
89.415
21
-58.86
0
LINE
8
BCrtYd
62
8
10
100.57
20
-49.82
11
102.53
21
-49.82
0
LINE
8
BCrtYd
62
8
10
102.53
20
-46.42
11
100.57
21
-46.42
0
LINE
8
BCrtYd
62
8
10
102.53
20
-49.82
11
102.53
21
-46.42
0
LINE
8
BCrtYd
62
8
10
100.57
20
-46.42
11
100.57
21
-49.82
0
LINE
8
BFab
62
6
10
102.175
20
-47.12
11
100.925
21
-47.12
0
LINE
8
BFab
62
6
10
102.175
20
-49.12
11
102.175
21
-47.12
0
LINE
8
BFab
62
6
10
100.925
20
-47.12
11
100.925
21
-49.12
0
LINE
8
BFab
62
6
10
100.925
20
-49.12
11
102.175
21
-49.12
0
LINE
8
BCrtYd
62
8
10
100.06
20
-49.93
11
96.26
21
-49.93
0
LINE
8
BCrtYd
62
8
10
96.26
20
-46.33
11
100.06
21
-46.33
0
LINE
8
BCrtYd
62
8
10
100.06
20
-46.33
11
100.06
21
-49.93
0
LINE
8
BCrtYd
62
8
10
96.26
20
-49.93
11
96.26
21
-46.33
0
LINE
8
BFab
62
6
10
99.06
20
-49.68
11
97.91
21
-49.68
0
LINE
8
BFab
62
6
10
99.06
20
-49.68
11
99.06
21
-46.58
0
LINE
8
BFab
62
6
10
99.06
20
-46.58
11
97.26
21
-46.58
0
LINE
8
BFab
62
6
10
97.26
20
-49.03
11
97.91
21
-49.68
0
LINE
8
BFab
62
6
10
97.26
20
-49.03
11
97.26
21
-46.58
0
LINE
8
BCrtYd
62
8
10
107.68
20
-41.58
11
104.72
21
-41.58
0
LINE
8
BCrtYd
62
8
10
107.68
20
-43.04
11
107.68
21
-41.58
0
LINE
8
BCrtYd
62
8
10
104.72
20
-43.04
11
107.68
21
-43.04
0
LINE
8
BCrtYd
62
8
10
104.72
20
-41.58
11
104.72
21
-43.04
0
LINE
8
BFab
62
6
10
107.0
20
-42.71
11
105.7
21
-42.71
0
LINE
8
BFab
62
6
10
105.4
20
-42.41
11
105.4
21
-41.91
0
LINE
8
BFab
62
6
10
105.7
20
-42.71
11
105.4
21
-42.41
0
LINE
8
BFab
62
6
10
107.0
20
-41.91
11
107.0
21
-42.71
0
LINE
8
BFab
62
6
10
105.4
20
-41.91
11
107.0
21
-41.91
0
LINE
8
BCrtYd
62
8
10
101.58
20
-46.03
11
101.58
21
-44.57
0
LINE
8
BCrtYd
62
8
10
98.62
20
-44.57
11
98.62
21
-46.03
0
LINE
8
BCrtYd
62
8
10
98.62
20
-46.03
11
101.58
21
-46.03
0
LINE
8
BCrtYd
62
8
10
101.58
20
-44.57
11
98.62
21
-44.57
0
LINE
8
BFab
62
6
10
100.9
20
-45.7125
11
100.9
21
-44.8875
0
LINE
8
BFab
62
6
10
99.3
20
-44.8875
11
99.3
21
-45.7125
0
LINE
8
BFab
62
6
10
100.9
20
-44.8875
11
99.3
21
-44.8875
0
LINE
8
BFab
62
6
10
99.3
20
-45.7125
11
100.9
21
-45.7125
0
LINE
8
BCrtYd
62
8
10
100.66
20
-51.55
11
100.66
21
-50.09
0
LINE
8
BCrtYd
62
8
10
97.7
20
-50.09
11
97.7
21
-51.55
0
LINE
8
BCrtYd
62
8
10
100.66
20
-50.09
11
97.7
21
-50.09
0
LINE
8
BCrtYd
62
8
10
97.7
20
-51.55
11
100.66
21
-51.55
0
LINE
8
BFab
62
6
10
98.38
20
-51.2325
11
99.98
21
-51.2325
0
LINE
8
BFab
62
6
10
99.98
20
-50.4075
11
98.38
21
-50.4075
0
LINE
8
BFab
62
6
10
99.98
20
-51.2325
11
99.98
21
-50.4075
0
LINE
8
BFab
62
6
10
98.38
20
-50.4075
11
98.38
21
-51.2325
0
LINE
8
BCrtYd
62
8
10
107.67
20
-43.5
11
104.71
21
-43.5
0
LINE
8
BCrtYd
62
8
10
104.71
20
-44.96
11
107.67
21
-44.96
0
LINE
8
BCrtYd
62
8
10
104.71
20
-43.5
11
104.71
21
-44.96
0
LINE
8
BCrtYd
62
8
10
107.67
20
-44.96
11
107.67
21
-43.5
0
LINE
8
BFab
62
6
10
105.39
20
-43.8175
11
105.39
21
-44.6425
0
LINE
8
BFab
62
6
10
105.39
20
-44.6425
11
106.99
21
-44.6425
0
LINE
8
BFab
62
6
10
106.99
20
-44.6425
11
106.99
21
-43.8175
0
LINE
8
BFab
62
6
10
106.99
20
-43.8175
11
105.39
21
-43.8175
0
LINE
8
BCrtYd
62
8
10
108.285
20
-61.76
11
108.285
21
-55.71
0
LINE
8
BCrtYd
62
8
10
103.735
20
-64.51
11
108.285
21
-64.51
0
LINE
8
BCrtYd
62
8
10
108.285
20
-55.71
11
103.735
21
-55.71
0
LINE
8
BCrtYd
62
8
10
108.285
20
-64.51
11
108.285
21
-61.76
0
LINE
8
BCrtYd
62
8
10
103.735
20
-55.71
11
103.735
21
-64.51
0
LINE
8
BFab
62
6
10
107.785
20
-63.46
11
105.185
21
-63.46
0
LINE
8
BFab
62
6
10
107.785
20
-56.76
11
107.785
21
-63.46
0
LINE
8
BFab
62
6
10
105.185
20
-63.46
11
105.185
21
-56.76
0
LINE
8
BFab
62
6
10
105.185
20
-56.76
11
107.785
21
-56.76
0
LINE
8
BCrtYd
62
8
10
103.0
20
-45.68
11
103.0
21
-55.08
0
LINE
8
BCrtYd
62
8
10
103.0
20
-55.08
11
108.15
21
-55.08
0
LINE
8
BCrtYd
62
8
10
108.15
20
-55.08
11
108.15
21
-45.68
0
LINE
8
BCrtYd
62
8
10
108.15
20
-45.68
11
103.0
21
-45.68
0
LINE
8
BFab
62
6
10
109.0
20
-46.63
11
104.0
21
-46.63
0
LINE
8
BFab
62
6
10
104.0
20
-54.13
11
109.0
21
-54.13
0
LINE
8
BFab
62
6
10
108.3
20
-47.13
11
108.3
21
-53.63
0
LINE
8
BFab
62
6
10
104.0
20
-46.63
11
104.0
21
-54.13
0
LINE
8
BFab
62
6
10
109.0
20
-54.13
11
109.0
21
-46.63
0
LINE
8
BCrtYd
62
8
10
101.51
20
-49.73
11
101.51
21
-55.88
0
LINE
8
BCrtYd
62
8
10
97.91
20
-55.88
11
97.91
21
-49.73
0
LINE
8
BCrtYd
62
8
10
97.91
20
-49.73
11
101.51
21
-49.73
0
LINE
8
BCrtYd
62
8
10
101.51
20
-55.88
11
97.91
21
-55.88
0
LINE
8
BFab
62
6
10
100.98
20
-50.27
11
98.44
21
-50.27
0
LINE
8
BFab
62
6
10
98.44
20
-54.715
11
99.075
21
-55.35
0
LINE
8
BFab
62
6
10
99.075
20
-55.35
11
100.98
21
-55.35
0
LINE
8
BFab
62
6
10
98.44
20
-50.27
11
98.44
21
-54.715
0
LINE
8
BFab
62
6
10
100.98
20
-55.35
11
100.98
21
-50.27
0
LINE
8
Edge
62
2
10
54.09
20
-40.87
11
108.29
21
-40.87
0
LINE
8
Edge
62
2
10
54.09
20
-71.17
11
54.09
21
-40.87
0
LINE
8
Edge
62
2
10
108.29
20
-71.07
11
54.09
21
-71.17
0
LINE
8
Edge
62
2
10
108.29
20
-40.87
11
108.29
21
-71.07
0
ENDSEC
0
EOF
