  0
SECTION
  2
HEADER
  9
$ANGBASE
  50
0.0
  9
$ANGDIR
  70
1
  9
$MEASUREMENT
  70
1
  0
ENDSEC
  0
SECTION
  2
TABLES
  0
TABLE
  2
LTYPE
  70
4
  0
LTYPE
  5
40F
  2
CONTINUOUS
  70
0
  3
Solid line
  72
65
  73
0
  40
0.0
  0
LTYPE
  5
410
  2
DASHDOT
 70
0
  3
Dash Dot ____ _ ____ _
 72
65
 73
4
 40
2.0
 49
1.25
 49
-0.25
 49
0.25
 49
-0.25
  0
LTYPE
  5
411
  2
DASHED
 70
0
  3
Dashed __ __ __ __ __
 72
65
 73
2
 40
0.75
 49
0.5
 49
-0.25
  0
LTYPE
  5
43B
  2
DOTTED
 70
0
  3
Dotted .  .  .  .
 72
65
 73
2
 40
0.2
 49
0.0
 49
-0.2
  0
ENDTAB
  0
TABLE
  2
STYLE
  70
4
  0
STYLE
  2
KICAD
  70
0
  40
0
  41
1
  42
1
  50
0
  71
0
  3
isocp.shx
  0
STYLE
  2
KICADB
  70
0
  40
0
  41
1
  42
1
  50
0
  71
0
  3
isocp.shx
  0
STYLE
  2
KICADI
  70
0
  40
0
  41
1
  42
1
  50
15
  71
0
  3
isocp.shx
  0
STYLE
  2
KICADBI
  70
0
  40
0
  41
1
  42
1
  50
15
  71
0
  3
isocp.shx
  0
ENDTAB
  0
TABLE
  2
LAYER
  70
1
  0
LAYER
  2
BLACK
  70
0
  62
7
  6
CONTINUOUS
  0
ENDTAB
  0
ENDSEC
  0
SECTION
  2
ENTITIES
0
LINE
8
BLACK
6
CONTINUOUS
10
54.09
20
-40.87
11
108.29
21
-40.87
0
LINE
8
BLACK
6
CONTINUOUS
10
54.09
20
-71.17
11
54.09
21
-40.87
0
LINE
8
BLACK
6
CONTINUOUS
10
108.29
20
-71.07
11
54.09
21
-71.17
0
LINE
8
BLACK
6
CONTINUOUS
10
108.29
20
-40.87
11
108.29
21
-71.07
0
LINE
8
BLACK
6
CONTINUOUS
10
108.285
20
-61.76
11
108.285
21
-55.71
0
LINE
8
BLACK
6
CONTINUOUS
10
103.735
20
-64.51
11
108.285
21
-64.51
0
LINE
8
BLACK
6
CONTINUOUS
10
108.285
20
-55.71
11
103.735
21
-55.71
0
LINE
8
BLACK
6
CONTINUOUS
10
108.285
20
-64.51
11
108.285
21
-61.76
0
LINE
8
BLACK
6
CONTINUOUS
10
103.735
20
-55.71
11
103.735
21
-64.51
0
LINE
8
BLACK
6
CONTINUOUS
10
103
20
-45.68
11
103
21
-55.08
0
LINE
8
BLACK
6
CONTINUOUS
10
103
20
-55.08
11
108.15
21
-55.08
0
LINE
8
BLACK
6
CONTINUOUS
10
108.15
20
-55.08
11
108.15
21
-45.68
0
LINE
8
BLACK
6
CONTINUOUS
10
108.15
20
-45.68
11
103
21
-45.68
0
LINE
8
BLACK
6
CONTINUOUS
10
91.52
20
-52.95
11
92.98
21
-52.95
0
LINE
8
BLACK
6
CONTINUOUS
10
92.98
20
-49.99
11
91.52
21
-49.99
0
LINE
8
BLACK
6
CONTINUOUS
10
92.98
20
-52.95
11
92.98
21
-49.99
0
LINE
8
BLACK
6
CONTINUOUS
10
91.52
20
-49.99
11
91.52
21
-52.95
0
LINE
8
BLACK
6
CONTINUOUS
10
103.44
20
-62.2825
11
101.48
21
-62.2825
0
LINE
8
BLACK
6
CONTINUOUS
10
101.48
20
-62.2825
11
101.48
21
-65.6825
0
LINE
8
BLACK
6
CONTINUOUS
10
101.48
20
-65.6825
11
103.44
21
-65.6825
0
LINE
8
BLACK
6
CONTINUOUS
10
103.44
20
-65.6825
11
103.44
21
-62.2825
0
LINE
8
BLACK
6
CONTINUOUS
10
102.23
20
-66.38
11
99.27
21
-66.38
0
LINE
8
BLACK
6
CONTINUOUS
10
102.23
20
-67.84
11
102.23
21
-66.38
0
LINE
8
BLACK
6
CONTINUOUS
10
99.27
20
-66.38
11
99.27
21
-67.84
0
LINE
8
BLACK
6
CONTINUOUS
10
99.27
20
-67.84
11
102.23
21
-67.84
0
LINE
8
BLACK
6
CONTINUOUS
10
94.94
20
-65.68
11
94.94
21
-62.28
0
LINE
8
BLACK
6
CONTINUOUS
10
92.98
20
-65.68
11
94.94
21
-65.68
0
LINE
8
BLACK
6
CONTINUOUS
10
94.94
20
-62.28
11
92.98
21
-62.28
0
LINE
8
BLACK
6
CONTINUOUS
10
92.98
20
-62.28
11
92.98
21
-65.68
0
LINE
8
BLACK
6
CONTINUOUS
10
95.17
20
-65.68
11
97.13
21
-65.68
0
LINE
8
BLACK
6
CONTINUOUS
10
97.13
20
-65.68
11
97.13
21
-62.28
0
LINE
8
BLACK
6
CONTINUOUS
10
95.17
20
-62.28
11
95.17
21
-65.68
0
LINE
8
BLACK
6
CONTINUOUS
10
97.13
20
-62.28
11
95.17
21
-62.28
0
LINE
8
BLACK
6
CONTINUOUS
10
95.19
20
-52.44
11
93.15
21
-52.44
0
LINE
8
BLACK
6
CONTINUOUS
10
93.15
20
-54.84
11
95.19
21
-54.84
0
LINE
8
BLACK
6
CONTINUOUS
10
93.15
20
-54.84
11
93.15
21
-52.44
0
LINE
8
BLACK
6
CONTINUOUS
10
95.19
20
-52.44
11
95.19
21
-54.84
0
LINE
8
BLACK
6
CONTINUOUS
10
97.98
20
-66.1225
11
97.98
21
-62.3625
0
LINE
8
BLACK
6
CONTINUOUS
10
100.98
20
-66.1225
11
97.98
21
-66.1225
0
LINE
8
BLACK
6
CONTINUOUS
10
100.98
20
-62.3625
11
100.98
21
-66.1225
0
LINE
8
BLACK
6
CONTINUOUS
10
97.98
20
-62.3625
11
100.98
21
-62.3625
0
LINE
8
BLACK
6
CONTINUOUS
10
98.03
20
-62.1225
11
100.93
21
-62.1225
0
LINE
8
BLACK
6
CONTINUOUS
10
100.93
20
-59.7225
11
98.03
21
-59.7225
0
LINE
8
BLACK
6
CONTINUOUS
10
98.03
20
-59.7225
11
98.03
21
-62.1225
0
LINE
8
BLACK
6
CONTINUOUS
10
100.93
20
-62.1225
11
100.93
21
-59.7225
0
LINE
8
BLACK
6
CONTINUOUS
10
93.49
20
-50.03
11
93.49
21
-51.49
0
LINE
8
BLACK
6
CONTINUOUS
10
96.45
20
-51.49
11
96.45
21
-50.03
0
LINE
8
BLACK
6
CONTINUOUS
10
96.45
20
-50.03
11
93.49
21
-50.03
0
LINE
8
BLACK
6
CONTINUOUS
10
93.49
20
-51.49
11
96.45
21
-51.49
0
LINE
8
BLACK
6
CONTINUOUS
10
95.43
20
-55.47
11
96.89
21
-55.47
0
LINE
8
BLACK
6
CONTINUOUS
10
96.89
20
-52.51
11
95.43
21
-52.51
0
LINE
8
BLACK
6
CONTINUOUS
10
95.43
20
-52.51
11
95.43
21
-55.47
0
LINE
8
BLACK
6
CONTINUOUS
10
96.89
20
-55.47
11
96.89
21
-52.51
0
LINE
8
BLACK
6
CONTINUOUS
10
88.96
20
-55.71
11
96.3
21
-55.71
0
LINE
8
BLACK
6
CONTINUOUS
10
96.3
20
-61.21
11
96.3
21
-55.71
0
LINE
8
BLACK
6
CONTINUOUS
10
88.96
20
-55.71
11
88.96
21
-61.21
0
LINE
8
BLACK
6
CONTINUOUS
10
96.3
20
-61.21
11
88.96
21
-61.21
0
LINE
8
BLACK
6
CONTINUOUS
10
100.57
20
-49.82
11
102.53
21
-49.82
0
LINE
8
BLACK
6
CONTINUOUS
10
102.53
20
-46.42
11
100.57
21
-46.42
0
LINE
8
BLACK
6
CONTINUOUS
10
102.53
20
-49.82
11
102.53
21
-46.42
0
LINE
8
BLACK
6
CONTINUOUS
10
100.57
20
-46.42
11
100.57
21
-49.82
0
LINE
8
BLACK
6
CONTINUOUS
10
100.06
20
-49.93
11
96.26
21
-49.93
0
LINE
8
BLACK
6
CONTINUOUS
10
96.26
20
-46.33
11
100.06
21
-46.33
0
LINE
8
BLACK
6
CONTINUOUS
10
100.06
20
-46.33
11
100.06
21
-49.93
0
LINE
8
BLACK
6
CONTINUOUS
10
96.26
20
-49.93
11
96.26
21
-46.33
0
LINE
8
BLACK
6
CONTINUOUS
10
107.68
20
-41.58
11
104.72
21
-41.58
0
LINE
8
BLACK
6
CONTINUOUS
10
107.68
20
-43.04
11
107.68
21
-41.58
0
LINE
8
BLACK
6
CONTINUOUS
10
104.72
20
-43.04
11
107.68
21
-43.04
0
LINE
8
BLACK
6
CONTINUOUS
10
104.72
20
-41.58
11
104.72
21
-43.04
0
LINE
8
BLACK
6
CONTINUOUS
10
101.58
20
-46.03
11
101.58
21
-44.57
0
LINE
8
BLACK
6
CONTINUOUS
10
98.62
20
-44.57
11
98.62
21
-46.03
0
LINE
8
BLACK
6
CONTINUOUS
10
98.62
20
-46.03
11
101.58
21
-46.03
0
LINE
8
BLACK
6
CONTINUOUS
10
101.58
20
-44.57
11
98.62
21
-44.57
0
LINE
8
BLACK
6
CONTINUOUS
10
100.66
20
-51.55
11
100.66
21
-50.09
0
LINE
8
BLACK
6
CONTINUOUS
10
97.7
20
-50.09
11
97.7
21
-51.55
0
LINE
8
BLACK
6
CONTINUOUS
10
100.66
20
-50.09
11
97.7
21
-50.09
0
LINE
8
BLACK
6
CONTINUOUS
10
97.7
20
-51.55
11
100.66
21
-51.55
0
LINE
8
BLACK
6
CONTINUOUS
10
104.71
20
-44.96
11
107.67
21
-44.96
0
LINE
8
BLACK
6
CONTINUOUS
10
107.67
20
-43.5
11
104.71
21
-43.5
0
LINE
8
BLACK
6
CONTINUOUS
10
107.67
20
-44.96
11
107.67
21
-43.5
0
LINE
8
BLACK
6
CONTINUOUS
10
104.71
20
-43.5
11
104.71
21
-44.96
0
LINE
8
BLACK
6
CONTINUOUS
10
97.91
20
-58.43
11
97.91
21
-52.28
0
LINE
8
BLACK
6
CONTINUOUS
10
101.51
20
-52.28
11
101.51
21
-58.43
0
LINE
8
BLACK
6
CONTINUOUS
10
101.51
20
-58.43
11
97.91
21
-58.43
0
LINE
8
BLACK
6
CONTINUOUS
10
97.91
20
-52.28
11
101.51
21
-52.28
  0
ENDSEC
  0
EOF
