  0
SECTION
  2
HEADER
  9
$ANGBASE
  50
0.0
  9
$ANGDIR
  70
1
  9
$MEASUREMENT
  70
1
  0
ENDSEC
  0
SECTION
  2
TABLES
  0
TABLE
  2
LTYPE
  70
4
  0
LTYPE
  5
40F
  2
CONTINUOUS
  70
0
  3
Solid line
  72
65
  73
0
  40
0.0
  0
LTYPE
  5
410
  2
DASHDOT
 70
0
  3
Dash Dot ____ _ ____ _
 72
65
 73
4
 40
2.0
 49
1.25
 49
-0.25
 49
0.25
 49
-0.25
  0
LTYPE
  5
411
  2
DASHED
 70
0
  3
Dashed __ __ __ __ __
 72
65
 73
2
 40
0.75
 49
0.5
 49
-0.25
  0
LTYPE
  5
43B
  2
DOTTED
 70
0
  3
Dotted .  .  .  .
 72
65
 73
2
 40
0.2
 49
0.0
 49
-0.2
  0
ENDTAB
  0
TABLE
  2
STYLE
  70
4
  0
STYLE
  2
KICAD
  70
0
  40
0
  41
1
  42
1
  50
0
  71
0
  3
isocp.shx
  0
STYLE
  2
KICADB
  70
0
  40
0
  41
1
  42
1
  50
0
  71
0
  3
isocp.shx
  0
STYLE
  2
KICADI
  70
0
  40
0
  41
1
  42
1
  50
15
  71
0
  3
isocp.shx
  0
STYLE
  2
KICADBI
  70
0
  40
0
  41
1
  42
1
  50
15
  71
0
  3
isocp.shx
  0
ENDTAB
  0
TABLE
  2
LAYER
  70
1
  0
LAYER
  2
BLACK
  70
0
  62
7
  6
CONTINUOUS
  0
ENDTAB
  0
ENDSEC
  0
SECTION
  2
ENTITIES
0
LINE
8
BLACK
6
CONTINUOUS
10
108.308
20
-40.8523
11
108.315
21
-40.87
0
LINE
8
BLACK
6
CONTINUOUS
10
108.315
20
-40.87
11
108.315
21
-71.07
0
LINE
8
BLACK
6
CONTINUOUS
10
108.315
20
-71.07
11
108.311
21
-71.079
0
LINE
8
BLACK
6
CONTINUOUS
10
108.311
20
-71.079
11
108.308
21
-71.0876
0
LINE
8
BLACK
6
CONTINUOUS
10
108.308
20
-71.0876
11
108.308
21
-71.0877
0
LINE
8
BLACK
6
CONTINUOUS
10
108.308
20
-71.0877
11
108.308
21
-71.0877
0
LINE
8
BLACK
6
CONTINUOUS
10
108.308
20
-71.0877
11
108.299
21
-71.0914
0
LINE
8
BLACK
6
CONTINUOUS
10
108.299
20
-71.0914
11
108.29
21
-71.095
0
LINE
8
BLACK
6
CONTINUOUS
10
108.29
20
-71.095
11
54.09
21
-71.195
0
LINE
8
BLACK
6
CONTINUOUS
10
54.09
20
-71.195
11
54.09
21
-71.195
0
LINE
8
BLACK
6
CONTINUOUS
10
54.09
20
-71.195
11
54.09
21
-71.195
0
LINE
8
BLACK
6
CONTINUOUS
10
54.09
20
-71.195
11
54.0813
21
-71.1914
0
LINE
8
BLACK
6
CONTINUOUS
10
54.0813
20
-71.1914
11
54.0724
21
-71.1877
0
LINE
8
BLACK
6
CONTINUOUS
10
54.0724
20
-71.1877
11
54.0723
21
-71.1877
0
LINE
8
BLACK
6
CONTINUOUS
10
54.0723
20
-71.1877
11
54.0723
21
-71.1877
0
LINE
8
BLACK
6
CONTINUOUS
10
54.0723
20
-71.1877
11
54.0687
21
-71.1788
0
LINE
8
BLACK
6
CONTINUOUS
10
54.0687
20
-71.1788
11
54.065
21
-71.17
0
LINE
8
BLACK
6
CONTINUOUS
10
54.065
20
-71.17
11
54.065
21
-71.17
0
LINE
8
BLACK
6
CONTINUOUS
10
54.065
20
-71.17
11
54.065
21
-71.17
0
LINE
8
BLACK
6
CONTINUOUS
10
54.065
20
-71.17
11
54.065
21
-40.87
0
LINE
8
BLACK
6
CONTINUOUS
10
54.065
20
-40.87
11
54.0723
21
-40.8523
0
LINE
8
BLACK
6
CONTINUOUS
10
54.0723
20
-40.8523
11
54.09
21
-40.845
0
LINE
8
BLACK
6
CONTINUOUS
10
54.09
20
-40.845
11
108.29
21
-40.845
0
LINE
8
BLACK
6
CONTINUOUS
10
108.29
20
-40.845
11
108.308
21
-40.8523
0
LINE
8
BLACK
6
CONTINUOUS
10
54.115
20
-40.895
11
54.115
21
-71.145
0
LINE
8
BLACK
6
CONTINUOUS
10
54.115
20
-71.145
11
108.265
21
-71.045
0
LINE
8
BLACK
6
CONTINUOUS
10
108.265
20
-71.045
11
108.265
21
-40.895
0
LINE
8
BLACK
6
CONTINUOUS
10
108.265
20
-40.895
11
54.115
21
-40.895
0
LINE
8
BLACK
6
CONTINUOUS
10
55.0023
20
-69.1077
11
54.995
21
-69.09
0
LINE
8
BLACK
6
CONTINUOUS
10
54.995
20
-69.09
11
54.995
21
-62.59
0
LINE
8
BLACK
6
CONTINUOUS
10
54.995
20
-62.59
11
55.0023
21
-62.5723
0
LINE
8
BLACK
6
CONTINUOUS
10
55.0023
20
-62.5723
11
55.02
21
-62.565
0
LINE
8
BLACK
6
CONTINUOUS
10
55.02
20
-62.565
11
65.02
21
-62.565
0
LINE
8
BLACK
6
CONTINUOUS
10
65.02
20
-62.565
11
65.0377
21
-62.5723
0
LINE
8
BLACK
6
CONTINUOUS
10
65.0377
20
-62.5723
11
65.045
21
-62.59
0
LINE
8
BLACK
6
CONTINUOUS
10
65.045
20
-62.59
11
65.045
21
-69.09
0
LINE
8
BLACK
6
CONTINUOUS
10
65.045
20
-69.09
11
65.0377
21
-69.1077
0
LINE
8
BLACK
6
CONTINUOUS
10
65.0377
20
-69.1077
11
65.02
21
-69.115
0
LINE
8
BLACK
6
CONTINUOUS
10
65.02
20
-69.115
11
55.02
21
-69.115
0
LINE
8
BLACK
6
CONTINUOUS
10
55.02
20
-69.115
11
55.0023
21
-69.1077
0
LINE
8
BLACK
6
CONTINUOUS
10
55.045
20
-62.615
11
55.045
21
-69.065
0
LINE
8
BLACK
6
CONTINUOUS
10
55.045
20
-69.065
11
64.995
21
-69.065
0
LINE
8
BLACK
6
CONTINUOUS
10
64.995
20
-69.065
11
64.995
21
-62.615
0
LINE
8
BLACK
6
CONTINUOUS
10
64.995
20
-62.615
11
55.045
21
-62.615
0
LINE
8
BLACK
6
CONTINUOUS
10
70.4123
20
-65.9177
11
70.405
21
-65.9
0
LINE
8
BLACK
6
CONTINUOUS
10
70.405
20
-65.9
11
70.405
21
-62.94
0
LINE
8
BLACK
6
CONTINUOUS
10
70.405
20
-62.94
11
70.4123
21
-62.9223
0
LINE
8
BLACK
6
CONTINUOUS
10
70.4123
20
-62.9223
11
70.43
21
-62.915
0
LINE
8
BLACK
6
CONTINUOUS
10
70.43
20
-62.915
11
71.89
21
-62.915
0
LINE
8
BLACK
6
CONTINUOUS
10
71.89
20
-62.915
11
71.9077
21
-62.9223
0
LINE
8
BLACK
6
CONTINUOUS
10
71.9077
20
-62.9223
11
71.915
21
-62.94
0
LINE
8
BLACK
6
CONTINUOUS
10
71.915
20
-62.94
11
71.915
21
-65.9
0
LINE
8
BLACK
6
CONTINUOUS
10
71.915
20
-65.9
11
71.9077
21
-65.9177
0
LINE
8
BLACK
6
CONTINUOUS
10
71.9077
20
-65.9177
11
71.89
21
-65.925
0
LINE
8
BLACK
6
CONTINUOUS
10
71.89
20
-65.925
11
70.43
21
-65.925
0
LINE
8
BLACK
6
CONTINUOUS
10
70.43
20
-65.925
11
70.4123
21
-65.9177
0
LINE
8
BLACK
6
CONTINUOUS
10
70.455
20
-62.965
11
70.455
21
-65.875
0
LINE
8
BLACK
6
CONTINUOUS
10
70.455
20
-65.875
11
71.865
21
-65.875
0
LINE
8
BLACK
6
CONTINUOUS
10
71.865
20
-65.875
11
71.865
21
-62.965
0
LINE
8
BLACK
6
CONTINUOUS
10
71.865
20
-62.965
11
70.455
21
-62.965
0
LINE
8
BLACK
6
CONTINUOUS
10
87.0923
20
-65.5027
11
87.085
21
-65.485
0
LINE
8
BLACK
6
CONTINUOUS
10
87.085
20
-65.485
11
87.085
21
-62.525
0
LINE
8
BLACK
6
CONTINUOUS
10
87.085
20
-62.525
11
87.0923
21
-62.5073
0
LINE
8
BLACK
6
CONTINUOUS
10
87.0923
20
-62.5073
11
87.11
21
-62.5
0
LINE
8
BLACK
6
CONTINUOUS
10
87.11
20
-62.5
11
88.57
21
-62.5
0
LINE
8
BLACK
6
CONTINUOUS
10
88.57
20
-62.5
11
88.5877
21
-62.5073
0
LINE
8
BLACK
6
CONTINUOUS
10
88.5877
20
-62.5073
11
88.595
21
-62.525
0
LINE
8
BLACK
6
CONTINUOUS
10
88.595
20
-62.525
11
88.595
21
-65.485
0
LINE
8
BLACK
6
CONTINUOUS
10
88.595
20
-65.485
11
88.5877
21
-65.5027
0
LINE
8
BLACK
6
CONTINUOUS
10
88.5877
20
-65.5027
11
88.57
21
-65.51
0
LINE
8
BLACK
6
CONTINUOUS
10
88.57
20
-65.51
11
87.11
21
-65.51
0
LINE
8
BLACK
6
CONTINUOUS
10
87.11
20
-65.51
11
87.0923
21
-65.5027
0
LINE
8
BLACK
6
CONTINUOUS
10
87.135
20
-62.55
11
87.135
21
-65.46
0
LINE
8
BLACK
6
CONTINUOUS
10
87.135
20
-65.46
11
88.545
21
-65.46
0
LINE
8
BLACK
6
CONTINUOUS
10
88.545
20
-65.46
11
88.545
21
-62.55
0
LINE
8
BLACK
6
CONTINUOUS
10
88.545
20
-62.55
11
87.135
21
-62.55
0
LINE
8
BLACK
6
CONTINUOUS
10
85.5223
20
-62.3527
11
85.515
21
-62.335
0
LINE
8
BLACK
6
CONTINUOUS
10
85.515
20
-62.335
11
85.515
21
-60.875
0
LINE
8
BLACK
6
CONTINUOUS
10
85.515
20
-60.875
11
85.5223
21
-60.8573
0
LINE
8
BLACK
6
CONTINUOUS
10
85.5223
20
-60.8573
11
85.54
21
-60.85
0
LINE
8
BLACK
6
CONTINUOUS
10
85.54
20
-60.85
11
88.5
21
-60.85
0
LINE
8
BLACK
6
CONTINUOUS
10
88.5
20
-60.85
11
88.5177
21
-60.8573
0
LINE
8
BLACK
6
CONTINUOUS
10
88.5177
20
-60.8573
11
88.525
21
-60.875
0
LINE
8
BLACK
6
CONTINUOUS
10
88.525
20
-60.875
11
88.525
21
-62.335
0
LINE
8
BLACK
6
CONTINUOUS
10
88.525
20
-62.335
11
88.5177
21
-62.3527
0
LINE
8
BLACK
6
CONTINUOUS
10
88.5177
20
-62.3527
11
88.5
21
-62.36
0
LINE
8
BLACK
6
CONTINUOUS
10
88.5
20
-62.36
11
85.54
21
-62.36
0
LINE
8
BLACK
6
CONTINUOUS
10
85.54
20
-62.36
11
85.5223
21
-62.3527
0
LINE
8
BLACK
6
CONTINUOUS
10
85.565
20
-60.9
11
85.565
21
-62.31
0
LINE
8
BLACK
6
CONTINUOUS
10
85.565
20
-62.31
11
88.475
21
-62.31
0
LINE
8
BLACK
6
CONTINUOUS
10
88.475
20
-62.31
11
88.475
21
-60.9
0
LINE
8
BLACK
6
CONTINUOUS
10
88.475
20
-60.9
11
85.565
21
-60.9
0
LINE
8
BLACK
6
CONTINUOUS
10
77.5223
20
-61.1277
11
77.515
21
-61.11
0
LINE
8
BLACK
6
CONTINUOUS
10
77.515
20
-61.11
11
77.515
21
-50.91
0
LINE
8
BLACK
6
CONTINUOUS
10
77.515
20
-50.91
11
77.5223
21
-50.8923
0
LINE
8
BLACK
6
CONTINUOUS
10
77.5223
20
-50.8923
11
77.54
21
-50.885
0
LINE
8
BLACK
6
CONTINUOUS
10
77.54
20
-50.885
11
85.24
21
-50.885
0
LINE
8
BLACK
6
CONTINUOUS
10
85.24
20
-50.885
11
85.2577
21
-50.8923
0
LINE
8
BLACK
6
CONTINUOUS
10
85.2577
20
-50.8923
11
85.265
21
-50.91
0
LINE
8
BLACK
6
CONTINUOUS
10
85.265
20
-50.91
11
85.265
21
-61.11
0
LINE
8
BLACK
6
CONTINUOUS
10
85.265
20
-61.11
11
85.2577
21
-61.1277
0
LINE
8
BLACK
6
CONTINUOUS
10
85.2577
20
-61.1277
11
85.24
21
-61.135
0
LINE
8
BLACK
6
CONTINUOUS
10
85.24
20
-61.135
11
77.54
21
-61.135
0
LINE
8
BLACK
6
CONTINUOUS
10
77.54
20
-61.135
11
77.5223
21
-61.1277
0
LINE
8
BLACK
6
CONTINUOUS
10
77.565
20
-50.935
11
77.565
21
-61.085
0
LINE
8
BLACK
6
CONTINUOUS
10
77.565
20
-61.085
11
85.215
21
-61.085
0
LINE
8
BLACK
6
CONTINUOUS
10
85.215
20
-61.085
11
85.215
21
-50.935
0
LINE
8
BLACK
6
CONTINUOUS
10
85.215
20
-50.935
11
77.565
21
-50.935
0
LINE
8
BLACK
6
CONTINUOUS
10
66.7923
20
-61.0177
11
66.785
21
-61
0
LINE
8
BLACK
6
CONTINUOUS
10
66.785
20
-61
11
66.785
21
-58.04
0
LINE
8
BLACK
6
CONTINUOUS
10
66.785
20
-58.04
11
66.7923
21
-58.0223
0
LINE
8
BLACK
6
CONTINUOUS
10
66.7923
20
-58.0223
11
66.81
21
-58.015
0
LINE
8
BLACK
6
CONTINUOUS
10
66.81
20
-58.015
11
68.27
21
-58.015
0
LINE
8
BLACK
6
CONTINUOUS
10
68.27
20
-58.015
11
68.2877
21
-58.0223
0
LINE
8
BLACK
6
CONTINUOUS
10
68.2877
20
-58.0223
11
68.295
21
-58.04
0
LINE
8
BLACK
6
CONTINUOUS
10
68.295
20
-58.04
11
68.295
21
-61
0
LINE
8
BLACK
6
CONTINUOUS
10
68.295
20
-61
11
68.2877
21
-61.0177
0
LINE
8
BLACK
6
CONTINUOUS
10
68.2877
20
-61.0177
11
68.27
21
-61.025
0
LINE
8
BLACK
6
CONTINUOUS
10
68.27
20
-61.025
11
66.81
21
-61.025
0
LINE
8
BLACK
6
CONTINUOUS
10
66.81
20
-61.025
11
66.7923
21
-61.0177
0
LINE
8
BLACK
6
CONTINUOUS
10
66.835
20
-58.065
11
66.835
21
-60.975
0
LINE
8
BLACK
6
CONTINUOUS
10
66.835
20
-60.975
11
68.245
21
-60.975
0
LINE
8
BLACK
6
CONTINUOUS
10
68.245
20
-60.975
11
68.245
21
-58.065
0
LINE
8
BLACK
6
CONTINUOUS
10
68.245
20
-58.065
11
66.835
21
-58.065
0
LINE
8
BLACK
6
CONTINUOUS
10
54.3263
20
-60.5867
11
54.319
21
-60.569
0
LINE
8
BLACK
6
CONTINUOUS
10
54.319
20
-60.569
11
54.319
21
-57.019
0
LINE
8
BLACK
6
CONTINUOUS
10
54.319
20
-57.019
11
54.3263
21
-57.0013
0
LINE
8
BLACK
6
CONTINUOUS
10
54.3263
20
-57.0013
11
54.344
21
-56.994
0
LINE
8
BLACK
6
CONTINUOUS
10
54.344
20
-56.994
11
65.544
21
-56.994
0
LINE
8
BLACK
6
CONTINUOUS
10
65.544
20
-56.994
11
65.5617
21
-57.0013
0
LINE
8
BLACK
6
CONTINUOUS
10
65.5617
20
-57.0013
11
65.569
21
-57.019
0
LINE
8
BLACK
6
CONTINUOUS
10
65.569
20
-57.019
11
65.569
21
-60.569
0
LINE
8
BLACK
6
CONTINUOUS
10
65.569
20
-60.569
11
65.5617
21
-60.5867
0
LINE
8
BLACK
6
CONTINUOUS
10
65.5617
20
-60.5867
11
65.544
21
-60.594
0
LINE
8
BLACK
6
CONTINUOUS
10
65.544
20
-60.594
11
54.344
21
-60.594
0
LINE
8
BLACK
6
CONTINUOUS
10
54.344
20
-60.594
11
54.3263
21
-60.5867
0
LINE
8
BLACK
6
CONTINUOUS
10
54.369
20
-57.044
11
54.369
21
-60.544
0
LINE
8
BLACK
6
CONTINUOUS
10
54.369
20
-60.544
11
65.519
21
-60.544
0
LINE
8
BLACK
6
CONTINUOUS
10
65.519
20
-60.544
11
65.519
21
-57.044
0
LINE
8
BLACK
6
CONTINUOUS
10
65.519
20
-57.044
11
54.369
21
-57.044
0
LINE
8
BLACK
6
CONTINUOUS
10
72.8123
20
-56.7377
11
72.805
21
-56.72
0
LINE
8
BLACK
6
CONTINUOUS
10
72.805
20
-56.72
11
72.805
21
-52.72
0
LINE
8
BLACK
6
CONTINUOUS
10
72.805
20
-52.72
11
72.8123
21
-52.7023
0
LINE
8
BLACK
6
CONTINUOUS
10
72.8123
20
-52.7023
11
72.83
21
-52.695
0
LINE
8
BLACK
6
CONTINUOUS
10
72.83
20
-52.695
11
75.13
21
-52.695
0
LINE
8
BLACK
6
CONTINUOUS
10
75.13
20
-52.695
11
75.1477
21
-52.7023
0
LINE
8
BLACK
6
CONTINUOUS
10
75.1477
20
-52.7023
11
75.155
21
-52.72
0
LINE
8
BLACK
6
CONTINUOUS
10
75.155
20
-52.72
11
75.155
21
-56.72
0
LINE
8
BLACK
6
CONTINUOUS
10
75.155
20
-56.72
11
75.1477
21
-56.7377
0
LINE
8
BLACK
6
CONTINUOUS
10
75.1477
20
-56.7377
11
75.13
21
-56.745
0
LINE
8
BLACK
6
CONTINUOUS
10
75.13
20
-56.745
11
72.83
21
-56.745
0
LINE
8
BLACK
6
CONTINUOUS
10
72.83
20
-56.745
11
72.8123
21
-56.7377
0
LINE
8
BLACK
6
CONTINUOUS
10
72.855
20
-52.745
11
72.855
21
-56.695
0
LINE
8
BLACK
6
CONTINUOUS
10
72.855
20
-56.695
11
75.105
21
-56.695
0
LINE
8
BLACK
6
CONTINUOUS
10
75.105
20
-56.695
11
75.105
21
-52.745
0
LINE
8
BLACK
6
CONTINUOUS
10
75.105
20
-52.745
11
72.855
21
-52.745
0
LINE
8
BLACK
6
CONTINUOUS
10
87.2723
20
-56.5277
11
87.265
21
-56.51
0
LINE
8
BLACK
6
CONTINUOUS
10
87.265
20
-56.51
11
87.265
21
-55.05
0
LINE
8
BLACK
6
CONTINUOUS
10
87.265
20
-55.05
11
87.2723
21
-55.0323
0
LINE
8
BLACK
6
CONTINUOUS
10
87.2723
20
-55.0323
11
87.29
21
-55.025
0
LINE
8
BLACK
6
CONTINUOUS
10
87.29
20
-55.025
11
90.25
21
-55.025
0
LINE
8
BLACK
6
CONTINUOUS
10
90.25
20
-55.025
11
90.2677
21
-55.0323
0
LINE
8
BLACK
6
CONTINUOUS
10
90.2677
20
-55.0323
11
90.275
21
-55.05
0
LINE
8
BLACK
6
CONTINUOUS
10
90.275
20
-55.05
11
90.275
21
-56.51
0
LINE
8
BLACK
6
CONTINUOUS
10
90.275
20
-56.51
11
90.2677
21
-56.5277
0
LINE
8
BLACK
6
CONTINUOUS
10
90.2677
20
-56.5277
11
90.25
21
-56.535
0
LINE
8
BLACK
6
CONTINUOUS
10
90.25
20
-56.535
11
87.29
21
-56.535
0
LINE
8
BLACK
6
CONTINUOUS
10
87.29
20
-56.535
11
87.2723
21
-56.5277
0
LINE
8
BLACK
6
CONTINUOUS
10
87.315
20
-55.075
11
87.315
21
-56.485
0
LINE
8
BLACK
6
CONTINUOUS
10
87.315
20
-56.485
11
90.225
21
-56.485
0
LINE
8
BLACK
6
CONTINUOUS
10
90.225
20
-56.485
11
90.225
21
-55.075
0
LINE
8
BLACK
6
CONTINUOUS
10
90.225
20
-55.075
11
87.315
21
-55.075
0
LINE
8
BLACK
6
CONTINUOUS
10
87.2723
20
-54.8577
11
87.265
21
-54.84
0
LINE
8
BLACK
6
CONTINUOUS
10
87.265
20
-54.84
11
87.265
21
-53.38
0
LINE
8
BLACK
6
CONTINUOUS
10
87.265
20
-53.38
11
87.2723
21
-53.3623
0
LINE
8
BLACK
6
CONTINUOUS
10
87.2723
20
-53.3623
11
87.29
21
-53.355
0
LINE
8
BLACK
6
CONTINUOUS
10
87.29
20
-53.355
11
90.25
21
-53.355
0
LINE
8
BLACK
6
CONTINUOUS
10
90.25
20
-53.355
11
90.2677
21
-53.3623
0
LINE
8
BLACK
6
CONTINUOUS
10
90.2677
20
-53.3623
11
90.275
21
-53.38
0
LINE
8
BLACK
6
CONTINUOUS
10
90.275
20
-53.38
11
90.275
21
-54.84
0
LINE
8
BLACK
6
CONTINUOUS
10
90.275
20
-54.84
11
90.2677
21
-54.8577
0
LINE
8
BLACK
6
CONTINUOUS
10
90.2677
20
-54.8577
11
90.25
21
-54.865
0
LINE
8
BLACK
6
CONTINUOUS
10
90.25
20
-54.865
11
87.29
21
-54.865
0
LINE
8
BLACK
6
CONTINUOUS
10
87.29
20
-54.865
11
87.2723
21
-54.8577
0
LINE
8
BLACK
6
CONTINUOUS
10
87.315
20
-53.405
11
87.315
21
-54.815
0
LINE
8
BLACK
6
CONTINUOUS
10
87.315
20
-54.815
11
90.225
21
-54.815
0
LINE
8
BLACK
6
CONTINUOUS
10
90.225
20
-54.815
11
90.225
21
-53.405
0
LINE
8
BLACK
6
CONTINUOUS
10
90.225
20
-53.405
11
87.315
21
-53.405
0
LINE
8
BLACK
6
CONTINUOUS
10
64.1423
20
-53.8777
11
64.135
21
-53.86
0
LINE
8
BLACK
6
CONTINUOUS
10
64.135
20
-53.86
11
64.135
21
-52.4
0
LINE
8
BLACK
6
CONTINUOUS
10
64.135
20
-52.4
11
64.1423
21
-52.3823
0
LINE
8
BLACK
6
CONTINUOUS
10
64.1423
20
-52.3823
11
64.16
21
-52.375
0
LINE
8
BLACK
6
CONTINUOUS
10
64.16
20
-52.375
11
67.12
21
-52.375
0
LINE
8
BLACK
6
CONTINUOUS
10
67.12
20
-52.375
11
67.1377
21
-52.3823
0
LINE
8
BLACK
6
CONTINUOUS
10
67.1377
20
-52.3823
11
67.145
21
-52.4
0
LINE
8
BLACK
6
CONTINUOUS
10
67.145
20
-52.4
11
67.145
21
-53.86
0
LINE
8
BLACK
6
CONTINUOUS
10
67.145
20
-53.86
11
67.1377
21
-53.8777
0
LINE
8
BLACK
6
CONTINUOUS
10
67.1377
20
-53.8777
11
67.12
21
-53.885
0
LINE
8
BLACK
6
CONTINUOUS
10
67.12
20
-53.885
11
64.16
21
-53.885
0
LINE
8
BLACK
6
CONTINUOUS
10
64.16
20
-53.885
11
64.1423
21
-53.8777
0
LINE
8
BLACK
6
CONTINUOUS
10
64.185
20
-52.425
11
64.185
21
-53.835
0
LINE
8
BLACK
6
CONTINUOUS
10
64.185
20
-53.835
11
67.095
21
-53.835
0
LINE
8
BLACK
6
CONTINUOUS
10
67.095
20
-53.835
11
67.095
21
-52.425
0
LINE
8
BLACK
6
CONTINUOUS
10
67.095
20
-52.425
11
64.185
21
-52.425
0
LINE
8
BLACK
6
CONTINUOUS
10
87.2723
20
-53.1677
11
87.265
21
-53.15
0
LINE
8
BLACK
6
CONTINUOUS
10
87.265
20
-53.15
11
87.265
21
-51.69
0
LINE
8
BLACK
6
CONTINUOUS
10
87.265
20
-51.69
11
87.2723
21
-51.6723
0
LINE
8
BLACK
6
CONTINUOUS
10
87.2723
20
-51.6723
11
87.29
21
-51.665
0
LINE
8
BLACK
6
CONTINUOUS
10
87.29
20
-51.665
11
90.25
21
-51.665
0
LINE
8
BLACK
6
CONTINUOUS
10
90.25
20
-51.665
11
90.2677
21
-51.6723
0
LINE
8
BLACK
6
CONTINUOUS
10
90.2677
20
-51.6723
11
90.275
21
-51.69
0
LINE
8
BLACK
6
CONTINUOUS
10
90.275
20
-51.69
11
90.275
21
-53.15
0
LINE
8
BLACK
6
CONTINUOUS
10
90.275
20
-53.15
11
90.2677
21
-53.1677
0
LINE
8
BLACK
6
CONTINUOUS
10
90.2677
20
-53.1677
11
90.25
21
-53.175
0
LINE
8
BLACK
6
CONTINUOUS
10
90.25
20
-53.175
11
87.29
21
-53.175
0
LINE
8
BLACK
6
CONTINUOUS
10
87.29
20
-53.175
11
87.2723
21
-53.1677
0
LINE
8
BLACK
6
CONTINUOUS
10
87.315
20
-51.715
11
87.315
21
-53.125
0
LINE
8
BLACK
6
CONTINUOUS
10
87.315
20
-53.125
11
90.225
21
-53.125
0
LINE
8
BLACK
6
CONTINUOUS
10
90.225
20
-53.125
11
90.225
21
-51.715
0
LINE
8
BLACK
6
CONTINUOUS
10
90.225
20
-51.715
11
87.315
21
-51.715
0
LINE
8
BLACK
6
CONTINUOUS
10
73.5023
20
-52.1777
11
73.495
21
-52.16
0
LINE
8
BLACK
6
CONTINUOUS
10
73.495
20
-52.16
11
73.495
21
-50.7
0
LINE
8
BLACK
6
CONTINUOUS
10
73.495
20
-50.7
11
73.5023
21
-50.6823
0
LINE
8
BLACK
6
CONTINUOUS
10
73.5023
20
-50.6823
11
73.52
21
-50.675
0
LINE
8
BLACK
6
CONTINUOUS
10
73.52
20
-50.675
11
76.48
21
-50.675
0
LINE
8
BLACK
6
CONTINUOUS
10
76.48
20
-50.675
11
76.4977
21
-50.6823
0
LINE
8
BLACK
6
CONTINUOUS
10
76.4977
20
-50.6823
11
76.505
21
-50.7
0
LINE
8
BLACK
6
CONTINUOUS
10
76.505
20
-50.7
11
76.505
21
-52.16
0
LINE
8
BLACK
6
CONTINUOUS
10
76.505
20
-52.16
11
76.4977
21
-52.1777
0
LINE
8
BLACK
6
CONTINUOUS
10
76.4977
20
-52.1777
11
76.48
21
-52.185
0
LINE
8
BLACK
6
CONTINUOUS
10
76.48
20
-52.185
11
73.52
21
-52.185
0
LINE
8
BLACK
6
CONTINUOUS
10
73.52
20
-52.185
11
73.5023
21
-52.1777
0
LINE
8
BLACK
6
CONTINUOUS
10
73.545
20
-50.725
11
73.545
21
-52.135
0
LINE
8
BLACK
6
CONTINUOUS
10
73.545
20
-52.135
11
76.455
21
-52.135
0
LINE
8
BLACK
6
CONTINUOUS
10
76.455
20
-52.135
11
76.455
21
-50.725
0
LINE
8
BLACK
6
CONTINUOUS
10
76.455
20
-50.725
11
73.545
21
-50.725
0
LINE
8
BLACK
6
CONTINUOUS
10
94.8493
20
-51.9477
11
94.842
21
-51.93
0
LINE
8
BLACK
6
CONTINUOUS
10
94.842
20
-51.93
11
94.842
21
-42.88
0
LINE
8
BLACK
6
CONTINUOUS
10
94.842
20
-42.88
11
94.8493
21
-42.8623
0
LINE
8
BLACK
6
CONTINUOUS
10
94.8493
20
-42.8623
11
94.867
21
-42.855
0
LINE
8
BLACK
6
CONTINUOUS
10
94.867
20
-42.855
11
106.067
21
-42.855
0
LINE
8
BLACK
6
CONTINUOUS
10
106.067
20
-42.855
11
106.085
21
-42.8623
0
LINE
8
BLACK
6
CONTINUOUS
10
106.085
20
-42.8623
11
106.092
21
-42.88
0
LINE
8
BLACK
6
CONTINUOUS
10
106.092
20
-42.88
11
106.092
21
-51.93
0
LINE
8
BLACK
6
CONTINUOUS
10
106.092
20
-51.93
11
106.085
21
-51.9477
0
LINE
8
BLACK
6
CONTINUOUS
10
106.085
20
-51.9477
11
106.067
21
-51.955
0
LINE
8
BLACK
6
CONTINUOUS
10
106.067
20
-51.955
11
94.867
21
-51.955
0
LINE
8
BLACK
6
CONTINUOUS
10
94.867
20
-51.955
11
94.8493
21
-51.9477
0
LINE
8
BLACK
6
CONTINUOUS
10
94.892
20
-42.905
11
94.892
21
-51.905
0
LINE
8
BLACK
6
CONTINUOUS
10
94.892
20
-51.905
11
106.042
21
-51.905
0
LINE
8
BLACK
6
CONTINUOUS
10
106.042
20
-51.905
11
106.042
21
-42.905
0
LINE
8
BLACK
6
CONTINUOUS
10
106.042
20
-42.905
11
94.892
21
-42.905
0
LINE
8
BLACK
6
CONTINUOUS
10
87.2723
20
-51.4277
11
87.265
21
-51.41
0
LINE
8
BLACK
6
CONTINUOUS
10
87.265
20
-51.41
11
87.265
21
-49.95
0
LINE
8
BLACK
6
CONTINUOUS
10
87.265
20
-49.95
11
87.2723
21
-49.9323
0
LINE
8
BLACK
6
CONTINUOUS
10
87.2723
20
-49.9323
11
87.29
21
-49.925
0
LINE
8
BLACK
6
CONTINUOUS
10
87.29
20
-49.925
11
90.25
21
-49.925
0
LINE
8
BLACK
6
CONTINUOUS
10
90.25
20
-49.925
11
90.2677
21
-49.9323
0
LINE
8
BLACK
6
CONTINUOUS
10
90.2677
20
-49.9323
11
90.275
21
-49.95
0
LINE
8
BLACK
6
CONTINUOUS
10
90.275
20
-49.95
11
90.275
21
-51.41
0
LINE
8
BLACK
6
CONTINUOUS
10
90.275
20
-51.41
11
90.2677
21
-51.4277
0
LINE
8
BLACK
6
CONTINUOUS
10
90.2677
20
-51.4277
11
90.25
21
-51.435
0
LINE
8
BLACK
6
CONTINUOUS
10
90.25
20
-51.435
11
87.29
21
-51.435
0
LINE
8
BLACK
6
CONTINUOUS
10
87.29
20
-51.435
11
87.2723
21
-51.4277
0
LINE
8
BLACK
6
CONTINUOUS
10
87.315
20
-49.975
11
87.315
21
-51.385
0
LINE
8
BLACK
6
CONTINUOUS
10
87.315
20
-51.385
11
90.225
21
-51.385
0
LINE
8
BLACK
6
CONTINUOUS
10
90.225
20
-51.385
11
90.225
21
-49.975
0
LINE
8
BLACK
6
CONTINUOUS
10
90.225
20
-49.975
11
87.315
21
-49.975
0
LINE
8
BLACK
6
CONTINUOUS
10
84.8223
20
-50.7777
11
84.815
21
-50.76
0
LINE
8
BLACK
6
CONTINUOUS
10
84.815
20
-50.76
11
84.815
21
-47.8
0
LINE
8
BLACK
6
CONTINUOUS
10
84.815
20
-47.8
11
84.8223
21
-47.7823
0
LINE
8
BLACK
6
CONTINUOUS
10
84.8223
20
-47.7823
11
84.84
21
-47.775
0
LINE
8
BLACK
6
CONTINUOUS
10
84.84
20
-47.775
11
86.3
21
-47.775
0
LINE
8
BLACK
6
CONTINUOUS
10
86.3
20
-47.775
11
86.3177
21
-47.7823
0
LINE
8
BLACK
6
CONTINUOUS
10
86.3177
20
-47.7823
11
86.325
21
-47.8
0
LINE
8
BLACK
6
CONTINUOUS
10
86.325
20
-47.8
11
86.325
21
-50.76
0
LINE
8
BLACK
6
CONTINUOUS
10
86.325
20
-50.76
11
86.3177
21
-50.7777
0
LINE
8
BLACK
6
CONTINUOUS
10
86.3177
20
-50.7777
11
86.3
21
-50.785
0
LINE
8
BLACK
6
CONTINUOUS
10
86.3
20
-50.785
11
84.84
21
-50.785
0
LINE
8
BLACK
6
CONTINUOUS
10
84.84
20
-50.785
11
84.8223
21
-50.7777
0
LINE
8
BLACK
6
CONTINUOUS
10
84.865
20
-47.825
11
84.865
21
-50.735
0
LINE
8
BLACK
6
CONTINUOUS
10
84.865
20
-50.735
11
86.275
21
-50.735
0
LINE
8
BLACK
6
CONTINUOUS
10
86.275
20
-50.735
11
86.275
21
-47.825
0
LINE
8
BLACK
6
CONTINUOUS
10
86.275
20
-47.825
11
84.865
21
-47.825
0
LINE
8
BLACK
6
CONTINUOUS
10
77.7923
20
-50.3877
11
77.785
21
-50.37
0
LINE
8
BLACK
6
CONTINUOUS
10
77.785
20
-50.37
11
77.785
21
-48.91
0
LINE
8
BLACK
6
CONTINUOUS
10
77.785
20
-48.91
11
77.7923
21
-48.8923
0
LINE
8
BLACK
6
CONTINUOUS
10
77.7923
20
-48.8923
11
77.81
21
-48.885
0
LINE
8
BLACK
6
CONTINUOUS
10
77.81
20
-48.885
11
80.77
21
-48.885
0
LINE
8
BLACK
6
CONTINUOUS
10
80.77
20
-48.885
11
80.7877
21
-48.8923
0
LINE
8
BLACK
6
CONTINUOUS
10
80.7877
20
-48.8923
11
80.795
21
-48.91
0
LINE
8
BLACK
6
CONTINUOUS
10
80.795
20
-48.91
11
80.795
21
-50.37
0
LINE
8
BLACK
6
CONTINUOUS
10
80.795
20
-50.37
11
80.7877
21
-50.3877
0
LINE
8
BLACK
6
CONTINUOUS
10
80.7877
20
-50.3877
11
80.77
21
-50.395
0
LINE
8
BLACK
6
CONTINUOUS
10
80.77
20
-50.395
11
77.81
21
-50.395
0
LINE
8
BLACK
6
CONTINUOUS
10
77.81
20
-50.395
11
77.7923
21
-50.3877
0
LINE
8
BLACK
6
CONTINUOUS
10
77.835
20
-48.935
11
77.835
21
-50.345
0
LINE
8
BLACK
6
CONTINUOUS
10
77.835
20
-50.345
11
80.745
21
-50.345
0
LINE
8
BLACK
6
CONTINUOUS
10
80.745
20
-50.345
11
80.745
21
-48.935
0
LINE
8
BLACK
6
CONTINUOUS
10
80.745
20
-48.935
11
77.835
21
-48.935
0
LINE
8
BLACK
6
CONTINUOUS
10
81.0523
20
-50.3577
11
81.045
21
-50.34
0
LINE
8
BLACK
6
CONTINUOUS
10
81.045
20
-50.34
11
81.045
21
-47.38
0
LINE
8
BLACK
6
CONTINUOUS
10
81.045
20
-47.38
11
81.0523
21
-47.3623
0
LINE
8
BLACK
6
CONTINUOUS
10
81.0523
20
-47.3623
11
81.07
21
-47.355
0
LINE
8
BLACK
6
CONTINUOUS
10
81.07
20
-47.355
11
82.53
21
-47.355
0
LINE
8
BLACK
6
CONTINUOUS
10
82.53
20
-47.355
11
82.5477
21
-47.3623
0
LINE
8
BLACK
6
CONTINUOUS
10
82.5477
20
-47.3623
11
82.555
21
-47.38
0
LINE
8
BLACK
6
CONTINUOUS
10
82.555
20
-47.38
11
82.555
21
-50.34
0
LINE
8
BLACK
6
CONTINUOUS
10
82.555
20
-50.34
11
82.5477
21
-50.3577
0
LINE
8
BLACK
6
CONTINUOUS
10
82.5477
20
-50.3577
11
82.53
21
-50.365
0
LINE
8
BLACK
6
CONTINUOUS
10
82.53
20
-50.365
11
81.07
21
-50.365
0
LINE
8
BLACK
6
CONTINUOUS
10
81.07
20
-50.365
11
81.0523
21
-50.3577
0
LINE
8
BLACK
6
CONTINUOUS
10
81.095
20
-47.405
11
81.095
21
-50.315
0
LINE
8
BLACK
6
CONTINUOUS
10
81.095
20
-50.315
11
82.505
21
-50.315
0
LINE
8
BLACK
6
CONTINUOUS
10
82.505
20
-50.315
11
82.505
21
-47.405
0
LINE
8
BLACK
6
CONTINUOUS
10
82.505
20
-47.405
11
81.095
21
-47.405
0
LINE
8
BLACK
6
CONTINUOUS
10
83.0923
20
-49.7177
11
83.085
21
-49.7
0
LINE
8
BLACK
6
CONTINUOUS
10
83.085
20
-49.7
11
83.085
21
-46.74
0
LINE
8
BLACK
6
CONTINUOUS
10
83.085
20
-46.74
11
83.0923
21
-46.7223
0
LINE
8
BLACK
6
CONTINUOUS
10
83.0923
20
-46.7223
11
83.11
21
-46.715
0
LINE
8
BLACK
6
CONTINUOUS
10
83.11
20
-46.715
11
84.57
21
-46.715
0
LINE
8
BLACK
6
CONTINUOUS
10
84.57
20
-46.715
11
84.5877
21
-46.7223
0
LINE
8
BLACK
6
CONTINUOUS
10
84.5877
20
-46.7223
11
84.595
21
-46.74
0
LINE
8
BLACK
6
CONTINUOUS
10
84.595
20
-46.74
11
84.595
21
-49.7
0
LINE
8
BLACK
6
CONTINUOUS
10
84.595
20
-49.7
11
84.5877
21
-49.7177
0
LINE
8
BLACK
6
CONTINUOUS
10
84.5877
20
-49.7177
11
84.57
21
-49.725
0
LINE
8
BLACK
6
CONTINUOUS
10
84.57
20
-49.725
11
83.11
21
-49.725
0
LINE
8
BLACK
6
CONTINUOUS
10
83.11
20
-49.725
11
83.0923
21
-49.7177
0
LINE
8
BLACK
6
CONTINUOUS
10
83.135
20
-46.765
11
83.135
21
-49.675
0
LINE
8
BLACK
6
CONTINUOUS
10
83.135
20
-49.675
11
84.545
21
-49.675
0
LINE
8
BLACK
6
CONTINUOUS
10
84.545
20
-49.675
11
84.545
21
-46.765
0
LINE
8
BLACK
6
CONTINUOUS
10
84.545
20
-46.765
11
83.135
21
-46.765
0
LINE
8
BLACK
6
CONTINUOUS
10
73.577
20
-46.144
11
73.5697
21
-46.1263
0
LINE
8
BLACK
6
CONTINUOUS
10
73.5697
20
-46.1263
11
73.5697
21
-42.5763
0
LINE
8
BLACK
6
CONTINUOUS
10
73.5697
20
-42.5763
11
73.577
21
-42.5586
0
LINE
8
BLACK
6
CONTINUOUS
10
73.577
20
-42.5586
11
73.5947
21
-42.5513
0
LINE
8
BLACK
6
CONTINUOUS
10
73.5947
20
-42.5513
11
84.7947
21
-42.5513
0
LINE
8
BLACK
6
CONTINUOUS
10
84.7947
20
-42.5513
11
84.8124
21
-42.5586
0
LINE
8
BLACK
6
CONTINUOUS
10
84.8124
20
-42.5586
11
84.8197
21
-42.5763
0
LINE
8
BLACK
6
CONTINUOUS
10
84.8197
20
-42.5763
11
84.8197
21
-46.1263
0
LINE
8
BLACK
6
CONTINUOUS
10
84.8197
20
-46.1263
11
84.8124
21
-46.144
0
LINE
8
BLACK
6
CONTINUOUS
10
84.8124
20
-46.144
11
84.7947
21
-46.1513
0
LINE
8
BLACK
6
CONTINUOUS
10
84.7947
20
-46.1513
11
73.5947
21
-46.1513
0
LINE
8
BLACK
6
CONTINUOUS
10
73.5947
20
-46.1513
11
73.577
21
-46.144
0
LINE
8
BLACK
6
CONTINUOUS
10
73.6197
20
-42.6013
11
73.6197
21
-46.1013
0
LINE
8
BLACK
6
CONTINUOUS
10
73.6197
20
-46.1013
11
84.7697
21
-46.1013
0
LINE
8
BLACK
6
CONTINUOUS
10
84.7697
20
-46.1013
11
84.7697
21
-42.6013
0
LINE
8
BLACK
6
CONTINUOUS
10
84.7697
20
-42.6013
11
73.6197
21
-42.6013
0
LINE
8
BLACK
6
CONTINUOUS
10
104.058
20
-68.6923
11
104.121
21
-68.4032
0
LINE
8
BLACK
6
CONTINUOUS
10
104.121
20
-68.4032
11
104.223
21
-68.1253
0
LINE
8
BLACK
6
CONTINUOUS
10
104.223
20
-68.1253
11
104.361
21
-67.8639
0
LINE
8
BLACK
6
CONTINUOUS
10
104.361
20
-67.8639
11
104.534
21
-67.6236
0
LINE
8
BLACK
6
CONTINUOUS
10
104.534
20
-67.6236
11
104.738
21
-67.409
0
LINE
8
BLACK
6
CONTINUOUS
10
104.738
20
-67.409
11
104.969
21
-67.224
0
LINE
8
BLACK
6
CONTINUOUS
10
104.969
20
-67.224
11
105.223
21
-67.0721
0
LINE
8
BLACK
6
CONTINUOUS
10
105.223
20
-67.0721
11
105.495
21
-66.956
0
LINE
8
BLACK
6
CONTINUOUS
10
105.495
20
-66.956
11
105.78
21
-66.8779
0
LINE
8
BLACK
6
CONTINUOUS
10
105.78
20
-66.8779
11
106.073
21
-66.8393
0
LINE
8
BLACK
6
CONTINUOUS
10
106.073
20
-66.8393
11
106.369
21
-66.8408
0
LINE
8
BLACK
6
CONTINUOUS
10
106.369
20
-66.8408
11
106.662
21
-66.8825
0
LINE
8
BLACK
6
CONTINUOUS
10
106.662
20
-66.8825
11
106.947
21
-66.9636
0
LINE
8
BLACK
6
CONTINUOUS
10
106.947
20
-66.9636
11
107.218
21
-67.0825
0
LINE
8
BLACK
6
CONTINUOUS
10
107.218
20
-67.0825
11
107.47
21
-67.2371
0
LINE
8
BLACK
6
CONTINUOUS
10
107.47
20
-67.2371
11
107.699
21
-67.4245
0
LINE
8
BLACK
6
CONTINUOUS
10
107.699
20
-67.4245
11
107.9
21
-67.6412
0
LINE
8
BLACK
6
CONTINUOUS
10
107.9
20
-67.6412
11
108.07
21
-67.8833
0
LINE
8
BLACK
6
CONTINUOUS
10
108.07
20
-67.8833
11
108.206
21
-68.1462
0
LINE
8
BLACK
6
CONTINUOUS
10
108.206
20
-68.1462
11
108.305
21
-68.4251
0
LINE
8
BLACK
6
CONTINUOUS
10
108.305
20
-68.4251
11
108.365
21
-68.7148
0
LINE
8
BLACK
6
CONTINUOUS
10
108.365
20
-68.7148
11
108.385
21
-69.01
0
LINE
8
BLACK
6
CONTINUOUS
10
108.385
20
-69.01
11
108.385
21
-69.0555
0
LINE
8
BLACK
6
CONTINUOUS
10
108.385
20
-69.0555
11
108.358
21
-69.3502
0
LINE
8
BLACK
6
CONTINUOUS
10
108.358
20
-69.3502
11
108.292
21
-69.6386
0
LINE
8
BLACK
6
CONTINUOUS
10
108.292
20
-69.6386
11
108.188
21
-69.9154
0
LINE
8
BLACK
6
CONTINUOUS
10
108.188
20
-69.9154
11
108.046
21
-70.1754
0
LINE
8
BLACK
6
CONTINUOUS
10
108.046
20
-70.1754
11
107.871
21
-70.4139
0
LINE
8
BLACK
6
CONTINUOUS
10
107.871
20
-70.4139
11
107.665
21
-70.6263
0
LINE
8
BLACK
6
CONTINUOUS
10
107.665
20
-70.6263
11
107.433
21
-70.8089
0
LINE
8
BLACK
6
CONTINUOUS
10
107.433
20
-70.8089
11
107.177
21
-70.9582
0
LINE
8
BLACK
6
CONTINUOUS
10
107.177
20
-70.9582
11
106.904
21
-71.0714
0
LINE
8
BLACK
6
CONTINUOUS
10
106.904
20
-71.0714
11
106.618
21
-71.1465
0
LINE
8
BLACK
6
CONTINUOUS
10
106.618
20
-71.1465
11
106.324
21
-71.182
0
LINE
8
BLACK
6
CONTINUOUS
10
106.324
20
-71.182
11
106.028
21
-71.1774
0
LINE
8
BLACK
6
CONTINUOUS
10
106.028
20
-71.1774
11
105.736
21
-71.1326
0
LINE
8
BLACK
6
CONTINUOUS
10
105.736
20
-71.1326
11
105.452
21
-71.0486
0
LINE
8
BLACK
6
CONTINUOUS
10
105.452
20
-71.0486
11
105.182
21
-70.9268
0
LINE
8
BLACK
6
CONTINUOUS
10
105.182
20
-70.9268
11
104.932
21
-70.7696
0
LINE
8
BLACK
6
CONTINUOUS
10
104.932
20
-70.7696
11
104.705
21
-70.5798
0
LINE
8
BLACK
6
CONTINUOUS
10
104.705
20
-70.5798
11
104.505
21
-70.361
0
LINE
8
BLACK
6
CONTINUOUS
10
104.505
20
-70.361
11
104.338
21
-70.1172
0
LINE
8
BLACK
6
CONTINUOUS
10
104.338
20
-70.1172
11
104.205
21
-69.8528
0
LINE
8
BLACK
6
CONTINUOUS
10
104.205
20
-69.8528
11
104.109
21
-69.5729
0
LINE
8
BLACK
6
CONTINUOUS
10
104.109
20
-69.5729
11
104.052
21
-69.2826
0
LINE
8
BLACK
6
CONTINUOUS
10
104.052
20
-69.2826
11
104.035
21
-68.9877
0
LINE
8
BLACK
6
CONTINUOUS
10
104.035
20
-68.9877
11
104.035
21
-68.9872
0
LINE
8
BLACK
6
CONTINUOUS
10
104.035
20
-68.9872
11
104.058
21
-68.6923
0
LINE
8
BLACK
6
CONTINUOUS
10
104.153
20
-69.5613
11
104.246
21
-69.8354
0
LINE
8
BLACK
6
CONTINUOUS
10
104.246
20
-69.8354
11
104.377
21
-70.0942
0
LINE
8
BLACK
6
CONTINUOUS
10
104.377
20
-70.0942
11
104.541
21
-70.333
0
LINE
8
BLACK
6
CONTINUOUS
10
104.541
20
-70.333
11
104.736
21
-70.5473
0
LINE
8
BLACK
6
CONTINUOUS
10
104.736
20
-70.5473
11
104.958
21
-70.7332
0
LINE
8
BLACK
6
CONTINUOUS
10
104.958
20
-70.7332
11
105.203
21
-70.8871
0
LINE
8
BLACK
6
CONTINUOUS
10
105.203
20
-70.8871
11
105.468
21
-71.0064
0
LINE
8
BLACK
6
CONTINUOUS
10
105.468
20
-71.0064
11
105.745
21
-71.0887
0
LINE
8
BLACK
6
CONTINUOUS
10
105.745
20
-71.0887
11
106.032
21
-71.1325
0
LINE
8
BLACK
6
CONTINUOUS
10
106.032
20
-71.1325
11
106.321
21
-71.137
0
LINE
8
BLACK
6
CONTINUOUS
10
106.321
20
-71.137
11
106.609
21
-71.1022
0
LINE
8
BLACK
6
CONTINUOUS
10
106.609
20
-71.1022
11
106.889
21
-71.0287
0
LINE
8
BLACK
6
CONTINUOUS
10
106.889
20
-71.0287
11
107.157
21
-70.9178
0
LINE
8
BLACK
6
CONTINUOUS
10
107.157
20
-70.9178
11
107.407
21
-70.7717
0
LINE
8
BLACK
6
CONTINUOUS
10
107.407
20
-70.7717
11
107.635
21
-70.5929
0
LINE
8
BLACK
6
CONTINUOUS
10
107.635
20
-70.5929
11
107.837
21
-70.3848
0
LINE
8
BLACK
6
CONTINUOUS
10
107.837
20
-70.3848
11
108.008
21
-70.1513
0
LINE
8
BLACK
6
CONTINUOUS
10
108.008
20
-70.1513
11
108.147
21
-69.8967
0
LINE
8
BLACK
6
CONTINUOUS
10
108.147
20
-69.8967
11
108.249
21
-69.6256
0
LINE
8
BLACK
6
CONTINUOUS
10
108.249
20
-69.6256
11
108.314
21
-69.3432
0
LINE
8
BLACK
6
CONTINUOUS
10
108.314
20
-69.3432
11
108.339
21
-69.0546
0
LINE
8
BLACK
6
CONTINUOUS
10
108.339
20
-69.0546
11
108.34
21
-69.01
0
LINE
8
BLACK
6
CONTINUOUS
10
108.34
20
-69.01
11
108.32
21
-68.7209
0
LINE
8
BLACK
6
CONTINUOUS
10
108.32
20
-68.7209
11
108.262
21
-68.4372
0
LINE
8
BLACK
6
CONTINUOUS
10
108.262
20
-68.4372
11
108.165
21
-68.1641
0
LINE
8
BLACK
6
CONTINUOUS
10
108.165
20
-68.1641
11
108.032
21
-67.9066
0
LINE
8
BLACK
6
CONTINUOUS
10
108.032
20
-67.9066
11
107.865
21
-67.6696
0
LINE
8
BLACK
6
CONTINUOUS
10
107.865
20
-67.6696
11
107.668
21
-67.4573
0
LINE
8
BLACK
6
CONTINUOUS
10
107.668
20
-67.4573
11
107.444
21
-67.2738
0
LINE
8
BLACK
6
CONTINUOUS
10
107.444
20
-67.2738
11
107.197
21
-67.1224
0
LINE
8
BLACK
6
CONTINUOUS
10
107.197
20
-67.1224
11
106.931
21
-67.006
0
LINE
8
BLACK
6
CONTINUOUS
10
106.931
20
-67.006
11
106.653
21
-66.9266
0
LINE
8
BLACK
6
CONTINUOUS
10
106.653
20
-66.9266
11
106.366
21
-66.8858
0
LINE
8
BLACK
6
CONTINUOUS
10
106.366
20
-66.8858
11
106.076
21
-66.8842
0
LINE
8
BLACK
6
CONTINUOUS
10
106.076
20
-66.8842
11
105.789
21
-66.9221
0
LINE
8
BLACK
6
CONTINUOUS
10
105.789
20
-66.9221
11
105.51
21
-66.9985
0
LINE
8
BLACK
6
CONTINUOUS
10
105.51
20
-66.9985
11
105.243
21
-67.1122
0
LINE
8
BLACK
6
CONTINUOUS
10
105.243
20
-67.1122
11
104.994
21
-67.261
0
LINE
8
BLACK
6
CONTINUOUS
10
104.994
20
-67.261
11
104.768
21
-67.4421
0
LINE
8
BLACK
6
CONTINUOUS
10
104.768
20
-67.4421
11
104.569
21
-67.6523
0
LINE
8
BLACK
6
CONTINUOUS
10
104.569
20
-67.6523
11
104.4
21
-67.8876
0
LINE
8
BLACK
6
CONTINUOUS
10
104.4
20
-67.8876
11
104.264
21
-68.1437
0
LINE
8
BLACK
6
CONTINUOUS
10
104.264
20
-68.1437
11
104.165
21
-68.4158
0
LINE
8
BLACK
6
CONTINUOUS
10
104.165
20
-68.4158
11
104.103
21
-68.6988
0
LINE
8
BLACK
6
CONTINUOUS
10
104.103
20
-68.6988
11
104.08
21
-68.9877
0
LINE
8
BLACK
6
CONTINUOUS
10
104.08
20
-68.9877
11
104.097
21
-69.277
0
LINE
8
BLACK
6
CONTINUOUS
10
104.097
20
-69.277
11
104.153
21
-69.5613
0
LINE
8
BLACK
6
CONTINUOUS
10
65.4983
20
-67.7023
11
65.5614
21
-67.4132
0
LINE
8
BLACK
6
CONTINUOUS
10
65.5614
20
-67.4132
11
65.663
21
-67.1353
0
LINE
8
BLACK
6
CONTINUOUS
10
65.663
20
-67.1353
11
65.8015
21
-66.8739
0
LINE
8
BLACK
6
CONTINUOUS
10
65.8015
20
-66.8739
11
65.9741
21
-66.6336
0
LINE
8
BLACK
6
CONTINUOUS
10
65.9741
20
-66.6336
11
66.1778
21
-66.419
0
LINE
8
BLACK
6
CONTINUOUS
10
66.1778
20
-66.419
11
66.4087
21
-66.234
0
LINE
8
BLACK
6
CONTINUOUS
10
66.4087
20
-66.234
11
66.6626
21
-66.0821
0
LINE
8
BLACK
6
CONTINUOUS
10
66.6626
20
-66.0821
11
66.9347
21
-65.966
0
LINE
8
BLACK
6
CONTINUOUS
10
66.9347
20
-65.966
11
67.2201
21
-65.8879
0
LINE
8
BLACK
6
CONTINUOUS
10
67.2201
20
-65.8879
11
67.5134
21
-65.8493
0
LINE
8
BLACK
6
CONTINUOUS
10
67.5134
20
-65.8493
11
67.8093
21
-65.8508
0
LINE
8
BLACK
6
CONTINUOUS
10
67.8093
20
-65.8508
11
68.1022
21
-65.8925
0
LINE
8
BLACK
6
CONTINUOUS
10
68.1022
20
-65.8925
11
68.3868
21
-65.9736
0
LINE
8
BLACK
6
CONTINUOUS
10
68.3868
20
-65.9736
11
68.6577
21
-66.0925
0
LINE
8
BLACK
6
CONTINUOUS
10
68.6577
20
-66.0925
11
68.9099
21
-66.2471
0
LINE
8
BLACK
6
CONTINUOUS
10
68.9099
20
-66.2471
11
69.1389
21
-66.4345
0
LINE
8
BLACK
6
CONTINUOUS
10
69.1389
20
-66.4345
11
69.3403
21
-66.6512
0
LINE
8
BLACK
6
CONTINUOUS
10
69.3403
20
-66.6512
11
69.5104
21
-66.8933
0
LINE
8
BLACK
6
CONTINUOUS
10
69.5104
20
-66.8933
11
69.6461
21
-67.1562
0
LINE
8
BLACK
6
CONTINUOUS
10
69.6461
20
-67.1562
11
69.7449
21
-67.4351
0
LINE
8
BLACK
6
CONTINUOUS
10
69.7449
20
-67.4351
11
69.8049
21
-67.7248
0
LINE
8
BLACK
6
CONTINUOUS
10
69.8049
20
-67.7248
11
69.825
21
-68.02
0
LINE
8
BLACK
6
CONTINUOUS
10
69.825
20
-68.02
11
69.8245
21
-68.0656
0
LINE
8
BLACK
6
CONTINUOUS
10
69.8245
20
-68.0656
11
69.7982
21
-68.3602
0
LINE
8
BLACK
6
CONTINUOUS
10
69.7982
20
-68.3602
11
69.7322
21
-68.6486
0
LINE
8
BLACK
6
CONTINUOUS
10
69.7322
20
-68.6486
11
69.6276
21
-68.9254
0
LINE
8
BLACK
6
CONTINUOUS
10
69.6276
20
-68.9254
11
69.4864
21
-69.1854
0
LINE
8
BLACK
6
CONTINUOUS
10
69.4864
20
-69.1854
11
69.3113
21
-69.4239
0
LINE
8
BLACK
6
CONTINUOUS
10
69.3113
20
-69.4239
11
69.1054
21
-69.6363
0
LINE
8
BLACK
6
CONTINUOUS
10
69.1054
20
-69.6363
11
68.8725
21
-69.8189
0
LINE
8
BLACK
6
CONTINUOUS
10
68.8725
20
-69.8189
11
68.6171
21
-69.9682
0
LINE
8
BLACK
6
CONTINUOUS
10
68.6171
20
-69.9682
11
68.3437
21
-70.0814
0
LINE
8
BLACK
6
CONTINUOUS
10
68.3437
20
-70.0814
11
68.0576
21
-70.1565
0
LINE
8
BLACK
6
CONTINUOUS
10
68.0576
20
-70.1565
11
67.7638
21
-70.192
0
LINE
8
BLACK
6
CONTINUOUS
10
67.7638
20
-70.192
11
67.468
21
-70.1874
0
LINE
8
BLACK
6
CONTINUOUS
10
67.468
20
-70.1874
11
67.1755
21
-70.1426
0
LINE
8
BLACK
6
CONTINUOUS
10
67.1755
20
-70.1426
11
66.8919
21
-70.0586
0
LINE
8
BLACK
6
CONTINUOUS
10
66.8919
20
-70.0586
11
66.6222
21
-69.9368
0
LINE
8
BLACK
6
CONTINUOUS
10
66.6222
20
-69.9368
11
66.3716
21
-69.7796
0
LINE
8
BLACK
6
CONTINUOUS
10
66.3716
20
-69.7796
11
66.1446
21
-69.5898
0
LINE
8
BLACK
6
CONTINUOUS
10
66.1446
20
-69.5898
11
65.9455
21
-69.371
0
LINE
8
BLACK
6
CONTINUOUS
10
65.9455
20
-69.371
11
65.7779
21
-69.1272
0
LINE
8
BLACK
6
CONTINUOUS
10
65.7779
20
-69.1272
11
65.6449
21
-68.8628
0
LINE
8
BLACK
6
CONTINUOUS
10
65.6449
20
-68.8628
11
65.5491
21
-68.5829
0
LINE
8
BLACK
6
CONTINUOUS
10
65.5491
20
-68.5829
11
65.4922
21
-68.2926
0
LINE
8
BLACK
6
CONTINUOUS
10
65.4922
20
-68.2926
11
65.4751
21
-67.9977
0
LINE
8
BLACK
6
CONTINUOUS
10
65.4751
20
-67.9977
11
65.4751
21
-67.9972
0
LINE
8
BLACK
6
CONTINUOUS
10
65.4751
20
-67.9972
11
65.4983
21
-67.7023
0
LINE
8
BLACK
6
CONTINUOUS
10
65.5926
20
-68.5713
11
65.6865
21
-68.8454
0
LINE
8
BLACK
6
CONTINUOUS
10
65.6865
20
-68.8454
11
65.8166
21
-69.1042
0
LINE
8
BLACK
6
CONTINUOUS
10
65.8166
20
-69.1042
11
65.9808
21
-69.343
0
LINE
8
BLACK
6
CONTINUOUS
10
65.9808
20
-69.343
11
66.1758
21
-69.5573
0
LINE
8
BLACK
6
CONTINUOUS
10
66.1758
20
-69.5573
11
66.398
21
-69.7432
0
LINE
8
BLACK
6
CONTINUOUS
10
66.398
20
-69.7432
11
66.6435
21
-69.8971
0
LINE
8
BLACK
6
CONTINUOUS
10
66.6435
20
-69.8971
11
66.9076
21
-70.0164
0
LINE
8
BLACK
6
CONTINUOUS
10
66.9076
20
-70.0164
11
67.1854
21
-70.0987
0
LINE
8
BLACK
6
CONTINUOUS
10
67.1854
20
-70.0987
11
67.4718
21
-70.1425
0
LINE
8
BLACK
6
CONTINUOUS
10
67.4718
20
-70.1425
11
67.7615
21
-70.147
0
LINE
8
BLACK
6
CONTINUOUS
10
67.7615
20
-70.147
11
68.0491
21
-70.1122
0
LINE
8
BLACK
6
CONTINUOUS
10
68.0491
20
-70.1122
11
68.3294
21
-70.0387
0
LINE
8
BLACK
6
CONTINUOUS
10
68.3294
20
-70.0387
11
68.5971
21
-69.9278
0
LINE
8
BLACK
6
CONTINUOUS
10
68.5971
20
-69.9278
11
68.8472
21
-69.7817
0
LINE
8
BLACK
6
CONTINUOUS
10
68.8472
20
-69.7817
11
69.0752
21
-69.6029
0
LINE
8
BLACK
6
CONTINUOUS
10
69.0752
20
-69.6029
11
69.2769
21
-69.3948
0
LINE
8
BLACK
6
CONTINUOUS
10
69.2769
20
-69.3948
11
69.4484
21
-69.1613
0
LINE
8
BLACK
6
CONTINUOUS
10
69.4484
20
-69.1613
11
69.5866
21
-68.9067
0
LINE
8
BLACK
6
CONTINUOUS
10
69.5866
20
-68.9067
11
69.6891
21
-68.6356
0
LINE
8
BLACK
6
CONTINUOUS
10
69.6891
20
-68.6356
11
69.7537
21
-68.3532
0
LINE
8
BLACK
6
CONTINUOUS
10
69.7537
20
-68.3532
11
69.7795
21
-68.0646
0
LINE
8
BLACK
6
CONTINUOUS
10
69.7795
20
-68.0646
11
69.78
21
-68.02
0
LINE
8
BLACK
6
CONTINUOUS
10
69.78
20
-68.02
11
69.7603
21
-67.7309
0
LINE
8
BLACK
6
CONTINUOUS
10
69.7603
20
-67.7309
11
69.7015
21
-67.4472
0
LINE
8
BLACK
6
CONTINUOUS
10
69.7015
20
-67.4472
11
69.6048
21
-67.1741
0
LINE
8
BLACK
6
CONTINUOUS
10
69.6048
20
-67.1741
11
69.4719
21
-66.9166
0
LINE
8
BLACK
6
CONTINUOUS
10
69.4719
20
-66.9166
11
69.3053
21
-66.6796
0
LINE
8
BLACK
6
CONTINUOUS
10
69.3053
20
-66.6796
11
69.1081
21
-66.4673
0
LINE
8
BLACK
6
CONTINUOUS
10
69.1081
20
-66.4673
11
68.8838
21
-66.2838
0
LINE
8
BLACK
6
CONTINUOUS
10
68.8838
20
-66.2838
11
68.6368
21
-66.1324
0
LINE
8
BLACK
6
CONTINUOUS
10
68.6368
20
-66.1324
11
68.3715
21
-66.016
0
LINE
8
BLACK
6
CONTINUOUS
10
68.3715
20
-66.016
11
68.0928
21
-65.9366
0
LINE
8
BLACK
6
CONTINUOUS
10
68.0928
20
-65.9366
11
67.806
21
-65.8958
0
LINE
8
BLACK
6
CONTINUOUS
10
67.806
20
-65.8958
11
67.5163
21
-65.8942
0
LINE
8
BLACK
6
CONTINUOUS
10
67.5163
20
-65.8942
11
67.229
21
-65.9321
0
LINE
8
BLACK
6
CONTINUOUS
10
67.229
20
-65.9321
11
66.9495
21
-66.0085
0
LINE
8
BLACK
6
CONTINUOUS
10
66.9495
20
-66.0085
11
66.683
21
-66.1222
0
LINE
8
BLACK
6
CONTINUOUS
10
66.683
20
-66.1222
11
66.4344
21
-66.271
0
LINE
8
BLACK
6
CONTINUOUS
10
66.4344
20
-66.271
11
66.2083
21
-66.4521
0
LINE
8
BLACK
6
CONTINUOUS
10
66.2083
20
-66.4521
11
66.0088
21
-66.6623
0
LINE
8
BLACK
6
CONTINUOUS
10
66.0088
20
-66.6623
11
65.8398
21
-66.8976
0
LINE
8
BLACK
6
CONTINUOUS
10
65.8398
20
-66.8976
11
65.7042
21
-67.1537
0
LINE
8
BLACK
6
CONTINUOUS
10
65.7042
20
-67.1537
11
65.6046
21
-67.4258
0
LINE
8
BLACK
6
CONTINUOUS
10
65.6046
20
-67.4258
11
65.5429
21
-67.7088
0
LINE
8
BLACK
6
CONTINUOUS
10
65.5429
20
-67.7088
11
65.5202
21
-67.9977
0
LINE
8
BLACK
6
CONTINUOUS
10
65.5202
20
-67.9977
11
65.5368
21
-68.287
0
LINE
8
BLACK
6
CONTINUOUS
10
65.5368
20
-68.287
11
65.5926
21
-68.5713
0
LINE
8
BLACK
6
CONTINUOUS
10
88.5983
20
-67.7023
11
88.6614
21
-67.4132
0
LINE
8
BLACK
6
CONTINUOUS
10
88.6614
20
-67.4132
11
88.763
21
-67.1353
0
LINE
8
BLACK
6
CONTINUOUS
10
88.763
20
-67.1353
11
88.9015
21
-66.8739
0
LINE
8
BLACK
6
CONTINUOUS
10
88.9015
20
-66.8739
11
89.0741
21
-66.6336
0
LINE
8
BLACK
6
CONTINUOUS
10
89.0741
20
-66.6336
11
89.2778
21
-66.419
0
LINE
8
BLACK
6
CONTINUOUS
10
89.2778
20
-66.419
11
89.5087
21
-66.234
0
LINE
8
BLACK
6
CONTINUOUS
10
89.5087
20
-66.234
11
89.7626
21
-66.0821
0
LINE
8
BLACK
6
CONTINUOUS
10
89.7626
20
-66.0821
11
90.0347
21
-65.966
0
LINE
8
BLACK
6
CONTINUOUS
10
90.0347
20
-65.966
11
90.3201
21
-65.8879
0
LINE
8
BLACK
6
CONTINUOUS
10
90.3201
20
-65.8879
11
90.6134
21
-65.8493
0
LINE
8
BLACK
6
CONTINUOUS
10
90.6134
20
-65.8493
11
90.9093
21
-65.8508
0
LINE
8
BLACK
6
CONTINUOUS
10
90.9093
20
-65.8508
11
91.2022
21
-65.8925
0
LINE
8
BLACK
6
CONTINUOUS
10
91.2022
20
-65.8925
11
91.4868
21
-65.9736
0
LINE
8
BLACK
6
CONTINUOUS
10
91.4868
20
-65.9736
11
91.7577
21
-66.0925
0
LINE
8
BLACK
6
CONTINUOUS
10
91.7577
20
-66.0925
11
92.0099
21
-66.2471
0
LINE
8
BLACK
6
CONTINUOUS
10
92.0099
20
-66.2471
11
92.2389
21
-66.4345
0
LINE
8
BLACK
6
CONTINUOUS
10
92.2389
20
-66.4345
11
92.4403
21
-66.6512
0
LINE
8
BLACK
6
CONTINUOUS
10
92.4403
20
-66.6512
11
92.6104
21
-66.8933
0
LINE
8
BLACK
6
CONTINUOUS
10
92.6104
20
-66.8933
11
92.7461
21
-67.1562
0
LINE
8
BLACK
6
CONTINUOUS
10
92.7461
20
-67.1562
11
92.8449
21
-67.4351
0
LINE
8
BLACK
6
CONTINUOUS
10
92.8449
20
-67.4351
11
92.9049
21
-67.7248
0
LINE
8
BLACK
6
CONTINUOUS
10
92.9049
20
-67.7248
11
92.925
21
-68.02
0
LINE
8
BLACK
6
CONTINUOUS
10
92.925
20
-68.02
11
92.9245
21
-68.0656
0
LINE
8
BLACK
6
CONTINUOUS
10
92.9245
20
-68.0656
11
92.8982
21
-68.3602
0
LINE
8
BLACK
6
CONTINUOUS
10
92.8982
20
-68.3602
11
92.8322
21
-68.6486
0
LINE
8
BLACK
6
CONTINUOUS
10
92.8322
20
-68.6486
11
92.7276
21
-68.9254
0
LINE
8
BLACK
6
CONTINUOUS
10
92.7276
20
-68.9254
11
92.5864
21
-69.1854
0
LINE
8
BLACK
6
CONTINUOUS
10
92.5864
20
-69.1854
11
92.4113
21
-69.4239
0
LINE
8
BLACK
6
CONTINUOUS
10
92.4113
20
-69.4239
11
92.2054
21
-69.6363
0
LINE
8
BLACK
6
CONTINUOUS
10
92.2054
20
-69.6363
11
91.9725
21
-69.8189
0
LINE
8
BLACK
6
CONTINUOUS
10
91.9725
20
-69.8189
11
91.7171
21
-69.9682
0
LINE
8
BLACK
6
CONTINUOUS
10
91.7171
20
-69.9682
11
91.4437
21
-70.0814
0
LINE
8
BLACK
6
CONTINUOUS
10
91.4437
20
-70.0814
11
91.1576
21
-70.1565
0
LINE
8
BLACK
6
CONTINUOUS
10
91.1576
20
-70.1565
11
90.8638
21
-70.192
0
LINE
8
BLACK
6
CONTINUOUS
10
90.8638
20
-70.192
11
90.568
21
-70.1874
0
LINE
8
BLACK
6
CONTINUOUS
10
90.568
20
-70.1874
11
90.2755
21
-70.1426
0
LINE
8
BLACK
6
CONTINUOUS
10
90.2755
20
-70.1426
11
89.9919
21
-70.0586
0
LINE
8
BLACK
6
CONTINUOUS
10
89.9919
20
-70.0586
11
89.7222
21
-69.9368
0
LINE
8
BLACK
6
CONTINUOUS
10
89.7222
20
-69.9368
11
89.4716
21
-69.7796
0
LINE
8
BLACK
6
CONTINUOUS
10
89.4716
20
-69.7796
11
89.2446
21
-69.5898
0
LINE
8
BLACK
6
CONTINUOUS
10
89.2446
20
-69.5898
11
89.0455
21
-69.371
0
LINE
8
BLACK
6
CONTINUOUS
10
89.0455
20
-69.371
11
88.8779
21
-69.1272
0
LINE
8
BLACK
6
CONTINUOUS
10
88.8779
20
-69.1272
11
88.7449
21
-68.8628
0
LINE
8
BLACK
6
CONTINUOUS
10
88.7449
20
-68.8628
11
88.6491
21
-68.5829
0
LINE
8
BLACK
6
CONTINUOUS
10
88.6491
20
-68.5829
11
88.5922
21
-68.2926
0
LINE
8
BLACK
6
CONTINUOUS
10
88.5922
20
-68.2926
11
88.5751
21
-67.9977
0
LINE
8
BLACK
6
CONTINUOUS
10
88.5751
20
-67.9977
11
88.5751
21
-67.9972
0
LINE
8
BLACK
6
CONTINUOUS
10
88.5751
20
-67.9972
11
88.5983
21
-67.7023
0
LINE
8
BLACK
6
CONTINUOUS
10
88.6926
20
-68.5713
11
88.7865
21
-68.8454
0
LINE
8
BLACK
6
CONTINUOUS
10
88.7865
20
-68.8454
11
88.9166
21
-69.1042
0
LINE
8
BLACK
6
CONTINUOUS
10
88.9166
20
-69.1042
11
89.0808
21
-69.343
0
LINE
8
BLACK
6
CONTINUOUS
10
89.0808
20
-69.343
11
89.2758
21
-69.5573
0
LINE
8
BLACK
6
CONTINUOUS
10
89.2758
20
-69.5573
11
89.498
21
-69.7432
0
LINE
8
BLACK
6
CONTINUOUS
10
89.498
20
-69.7432
11
89.7435
21
-69.8971
0
LINE
8
BLACK
6
CONTINUOUS
10
89.7435
20
-69.8971
11
90.0076
21
-70.0164
0
LINE
8
BLACK
6
CONTINUOUS
10
90.0076
20
-70.0164
11
90.2854
21
-70.0987
0
LINE
8
BLACK
6
CONTINUOUS
10
90.2854
20
-70.0987
11
90.5718
21
-70.1425
0
LINE
8
BLACK
6
CONTINUOUS
10
90.5718
20
-70.1425
11
90.8615
21
-70.147
0
LINE
8
BLACK
6
CONTINUOUS
10
90.8615
20
-70.147
11
91.1491
21
-70.1122
0
LINE
8
BLACK
6
CONTINUOUS
10
91.1491
20
-70.1122
11
91.4294
21
-70.0387
0
LINE
8
BLACK
6
CONTINUOUS
10
91.4294
20
-70.0387
11
91.6971
21
-69.9278
0
LINE
8
BLACK
6
CONTINUOUS
10
91.6971
20
-69.9278
11
91.9472
21
-69.7817
0
LINE
8
BLACK
6
CONTINUOUS
10
91.9472
20
-69.7817
11
92.1752
21
-69.6029
0
LINE
8
BLACK
6
CONTINUOUS
10
92.1752
20
-69.6029
11
92.3769
21
-69.3948
0
LINE
8
BLACK
6
CONTINUOUS
10
92.3769
20
-69.3948
11
92.5484
21
-69.1613
0
LINE
8
BLACK
6
CONTINUOUS
10
92.5484
20
-69.1613
11
92.6866
21
-68.9067
0
LINE
8
BLACK
6
CONTINUOUS
10
92.6866
20
-68.9067
11
92.7891
21
-68.6356
0
LINE
8
BLACK
6
CONTINUOUS
10
92.7891
20
-68.6356
11
92.8537
21
-68.3532
0
LINE
8
BLACK
6
CONTINUOUS
10
92.8537
20
-68.3532
11
92.8795
21
-68.0646
0
LINE
8
BLACK
6
CONTINUOUS
10
92.8795
20
-68.0646
11
92.88
21
-68.02
0
LINE
8
BLACK
6
CONTINUOUS
10
92.88
20
-68.02
11
92.8603
21
-67.7309
0
LINE
8
BLACK
6
CONTINUOUS
10
92.8603
20
-67.7309
11
92.8015
21
-67.4472
0
LINE
8
BLACK
6
CONTINUOUS
10
92.8015
20
-67.4472
11
92.7048
21
-67.1741
0
LINE
8
BLACK
6
CONTINUOUS
10
92.7048
20
-67.1741
11
92.5719
21
-66.9166
0
LINE
8
BLACK
6
CONTINUOUS
10
92.5719
20
-66.9166
11
92.4053
21
-66.6796
0
LINE
8
BLACK
6
CONTINUOUS
10
92.4053
20
-66.6796
11
92.2081
21
-66.4673
0
LINE
8
BLACK
6
CONTINUOUS
10
92.2081
20
-66.4673
11
91.9838
21
-66.2838
0
LINE
8
BLACK
6
CONTINUOUS
10
91.9838
20
-66.2838
11
91.7368
21
-66.1324
0
LINE
8
BLACK
6
CONTINUOUS
10
91.7368
20
-66.1324
11
91.4715
21
-66.016
0
LINE
8
BLACK
6
CONTINUOUS
10
91.4715
20
-66.016
11
91.1928
21
-65.9366
0
LINE
8
BLACK
6
CONTINUOUS
10
91.1928
20
-65.9366
11
90.906
21
-65.8958
0
LINE
8
BLACK
6
CONTINUOUS
10
90.906
20
-65.8958
11
90.6163
21
-65.8942
0
LINE
8
BLACK
6
CONTINUOUS
10
90.6163
20
-65.8942
11
90.329
21
-65.9321
0
LINE
8
BLACK
6
CONTINUOUS
10
90.329
20
-65.9321
11
90.0495
21
-66.0085
0
LINE
8
BLACK
6
CONTINUOUS
10
90.0495
20
-66.0085
11
89.783
21
-66.1222
0
LINE
8
BLACK
6
CONTINUOUS
10
89.783
20
-66.1222
11
89.5344
21
-66.271
0
LINE
8
BLACK
6
CONTINUOUS
10
89.5344
20
-66.271
11
89.3083
21
-66.4521
0
LINE
8
BLACK
6
CONTINUOUS
10
89.3083
20
-66.4521
11
89.1088
21
-66.6623
0
LINE
8
BLACK
6
CONTINUOUS
10
89.1088
20
-66.6623
11
88.9398
21
-66.8976
0
LINE
8
BLACK
6
CONTINUOUS
10
88.9398
20
-66.8976
11
88.8042
21
-67.1537
0
LINE
8
BLACK
6
CONTINUOUS
10
88.8042
20
-67.1537
11
88.7046
21
-67.4258
0
LINE
8
BLACK
6
CONTINUOUS
10
88.7046
20
-67.4258
11
88.6429
21
-67.7088
0
LINE
8
BLACK
6
CONTINUOUS
10
88.6429
20
-67.7088
11
88.6202
21
-67.9977
0
LINE
8
BLACK
6
CONTINUOUS
10
88.6202
20
-67.9977
11
88.6368
21
-68.287
0
LINE
8
BLACK
6
CONTINUOUS
10
88.6368
20
-68.287
11
88.6926
21
-68.5713
0
LINE
8
BLACK
6
CONTINUOUS
10
54.4802
20
-49.3986
11
54.5422
21
-49.0609
0
LINE
8
BLACK
6
CONTINUOUS
10
54.5422
20
-49.0609
11
54.6414
21
-48.7323
0
LINE
8
BLACK
6
CONTINUOUS
10
54.6414
20
-48.7323
11
54.7767
21
-48.4167
0
LINE
8
BLACK
6
CONTINUOUS
10
54.7767
20
-48.4167
11
54.9463
21
-48.1182
0
LINE
8
BLACK
6
CONTINUOUS
10
54.9463
20
-48.1182
11
55.148
21
-47.8405
0
LINE
8
BLACK
6
CONTINUOUS
10
55.148
20
-47.8405
11
55.3795
21
-47.587
0
LINE
8
BLACK
6
CONTINUOUS
10
55.3795
20
-47.587
11
55.6378
21
-47.3609
0
LINE
8
BLACK
6
CONTINUOUS
10
55.6378
20
-47.3609
11
55.9197
21
-47.1649
0
LINE
8
BLACK
6
CONTINUOUS
10
55.9197
20
-47.1649
11
56.2217
21
-47.0017
0
LINE
8
BLACK
6
CONTINUOUS
10
56.2217
20
-47.0017
11
56.54
21
-46.8731
0
LINE
8
BLACK
6
CONTINUOUS
10
56.54
20
-46.8731
11
56.8707
21
-46.7807
0
LINE
8
BLACK
6
CONTINUOUS
10
56.8707
20
-46.7807
11
57.2096
21
-46.7258
0
LINE
8
BLACK
6
CONTINUOUS
10
57.2096
20
-46.7258
11
57.5525
21
-46.7091
0
LINE
8
BLACK
6
CONTINUOUS
10
57.5525
20
-46.7091
11
57.8951
21
-46.7306
0
LINE
8
BLACK
6
CONTINUOUS
10
57.8951
20
-46.7306
11
58.2332
21
-46.7902
0
LINE
8
BLACK
6
CONTINUOUS
10
58.2332
20
-46.7902
11
58.5625
21
-46.8872
0
LINE
8
BLACK
6
CONTINUOUS
10
58.5625
20
-46.8872
11
58.879
21
-47.0202
0
LINE
8
BLACK
6
CONTINUOUS
10
58.879
20
-47.0202
11
59.1787
21
-47.1877
0
LINE
8
BLACK
6
CONTINUOUS
10
59.1787
20
-47.1877
11
59.4578
21
-47.3875
0
LINE
8
BLACK
6
CONTINUOUS
10
59.4578
20
-47.3875
11
59.7129
21
-47.6172
0
LINE
8
BLACK
6
CONTINUOUS
10
59.7129
20
-47.6172
11
59.9409
21
-47.874
0
LINE
8
BLACK
6
CONTINUOUS
10
59.9409
20
-47.874
11
60.1387
21
-48.1545
0
LINE
8
BLACK
6
CONTINUOUS
10
60.1387
20
-48.1545
11
60.3041
21
-48.4553
0
LINE
8
BLACK
6
CONTINUOUS
10
60.3041
20
-48.4553
11
60.435
21
-48.7727
0
LINE
8
BLACK
6
CONTINUOUS
10
60.435
20
-48.7727
11
60.5296
21
-49.1027
0
LINE
8
BLACK
6
CONTINUOUS
10
60.5296
20
-49.1027
11
60.5868
21
-49.4412
0
LINE
8
BLACK
6
CONTINUOUS
10
60.5868
20
-49.4412
11
60.606
21
-49.784
0
LINE
8
BLACK
6
CONTINUOUS
10
60.606
20
-49.784
11
60.6048
21
-49.8699
0
LINE
8
BLACK
6
CONTINUOUS
10
60.6048
20
-49.8699
11
60.5761
21
-50.212
0
LINE
8
BLACK
6
CONTINUOUS
10
60.5761
20
-50.212
11
60.5094
21
-50.5487
0
LINE
8
BLACK
6
CONTINUOUS
10
60.5094
20
-50.5487
11
60.4056
21
-50.876
0
LINE
8
BLACK
6
CONTINUOUS
10
60.4056
20
-50.876
11
60.266
21
-51.1896
0
LINE
8
BLACK
6
CONTINUOUS
10
60.266
20
-51.1896
11
60.0922
21
-51.4857
0
LINE
8
BLACK
6
CONTINUOUS
10
60.0922
20
-51.4857
11
59.8866
21
-51.7606
0
LINE
8
BLACK
6
CONTINUOUS
10
59.8866
20
-51.7606
11
59.6516
21
-52.0108
0
LINE
8
BLACK
6
CONTINUOUS
10
59.6516
20
-52.0108
11
59.3901
21
-52.2333
0
LINE
8
BLACK
6
CONTINUOUS
10
59.3901
20
-52.2333
11
59.1055
21
-52.4253
0
LINE
8
BLACK
6
CONTINUOUS
10
59.1055
20
-52.4253
11
58.8013
21
-52.5844
0
LINE
8
BLACK
6
CONTINUOUS
10
58.8013
20
-52.5844
11
58.4812
21
-52.7085
0
LINE
8
BLACK
6
CONTINUOUS
10
58.4812
20
-52.7085
11
58.1493
21
-52.7962
0
LINE
8
BLACK
6
CONTINUOUS
10
58.1493
20
-52.7962
11
57.8097
21
-52.8463
0
LINE
8
BLACK
6
CONTINUOUS
10
57.8097
20
-52.8463
11
57.4666
21
-52.8583
0
LINE
8
BLACK
6
CONTINUOUS
10
57.4666
20
-52.8583
11
57.1243
21
-52.832
0
LINE
8
BLACK
6
CONTINUOUS
10
57.1243
20
-52.832
11
56.7871
21
-52.7677
0
LINE
8
BLACK
6
CONTINUOUS
10
56.7871
20
-52.7677
11
56.4591
21
-52.6661
0
LINE
8
BLACK
6
CONTINUOUS
10
56.4591
20
-52.6661
11
56.1446
21
-52.5287
0
LINE
8
BLACK
6
CONTINUOUS
10
56.1446
20
-52.5287
11
55.8472
21
-52.3571
0
LINE
8
BLACK
6
CONTINUOUS
10
55.8472
20
-52.3571
11
55.5709
21
-52.1533
0
LINE
8
BLACK
6
CONTINUOUS
10
55.5709
20
-52.1533
11
55.319
21
-51.9201
0
LINE
8
BLACK
6
CONTINUOUS
10
55.319
20
-51.9201
11
55.0947
21
-51.6602
0
LINE
8
BLACK
6
CONTINUOUS
10
55.0947
20
-51.6602
11
54.9008
21
-51.3769
0
LINE
8
BLACK
6
CONTINUOUS
10
54.9008
20
-51.3769
11
54.7396
21
-51.0738
0
LINE
8
BLACK
6
CONTINUOUS
10
54.7396
20
-51.0738
11
54.6132
21
-50.7546
0
LINE
8
BLACK
6
CONTINUOUS
10
54.6132
20
-50.7546
11
54.5232
21
-50.4233
0
LINE
8
BLACK
6
CONTINUOUS
10
54.5232
20
-50.4233
11
54.4707
21
-50.0841
0
LINE
8
BLACK
6
CONTINUOUS
10
54.4707
20
-50.0841
11
54.4563
21
-49.7417
0
LINE
8
BLACK
6
CONTINUOUS
10
54.4563
20
-49.7417
11
54.4563
21
-49.7411
0
LINE
8
BLACK
6
CONTINUOUS
10
54.4563
20
-49.7411
11
54.4802
21
-49.3986
0
LINE
8
BLACK
6
CONTINUOUS
10
54.5674
20
-50.4139
11
54.6561
21
-50.7403
0
LINE
8
BLACK
6
CONTINUOUS
10
54.6561
20
-50.7403
11
54.7806
21
-51.0548
0
LINE
8
BLACK
6
CONTINUOUS
10
54.7806
20
-51.0548
11
54.9394
21
-51.3535
0
LINE
8
BLACK
6
CONTINUOUS
10
54.9394
20
-51.3535
11
55.1305
21
-51.6326
0
LINE
8
BLACK
6
CONTINUOUS
10
55.1305
20
-51.6326
11
55.3516
21
-51.8887
0
LINE
8
BLACK
6
CONTINUOUS
10
55.3516
20
-51.8887
11
55.5998
21
-52.1185
0
LINE
8
BLACK
6
CONTINUOUS
10
55.5998
20
-52.1185
11
55.872
21
-52.3192
0
LINE
8
BLACK
6
CONTINUOUS
10
55.872
20
-52.3192
11
56.1649
21
-52.4883
0
LINE
8
BLACK
6
CONTINUOUS
10
56.1649
20
-52.4883
11
56.4749
21
-52.6237
0
LINE
8
BLACK
6
CONTINUOUS
10
56.4749
20
-52.6237
11
56.798
21
-52.7238
0
LINE
8
BLACK
6
CONTINUOUS
10
56.798
20
-52.7238
11
57.1303
21
-52.7872
0
LINE
8
BLACK
6
CONTINUOUS
10
57.1303
20
-52.7872
11
57.4675
21
-52.8131
0
LINE
8
BLACK
6
CONTINUOUS
10
57.4675
20
-52.8131
11
57.8056
21
-52.8013
0
LINE
8
BLACK
6
CONTINUOUS
10
57.8056
20
-52.8013
11
58.1402
21
-52.7519
0
LINE
8
BLACK
6
CONTINUOUS
10
58.1402
20
-52.7519
11
58.4672
21
-52.6655
0
LINE
8
BLACK
6
CONTINUOUS
10
58.4672
20
-52.6655
11
58.7826
21
-52.5432
0
LINE
8
BLACK
6
CONTINUOUS
10
58.7826
20
-52.5432
11
59.0824
21
-52.3864
0
LINE
8
BLACK
6
CONTINUOUS
10
59.0824
20
-52.3864
11
59.3628
21
-52.1973
0
LINE
8
BLACK
6
CONTINUOUS
10
59.3628
20
-52.1973
11
59.6204
21
-51.9781
0
LINE
8
BLACK
6
CONTINUOUS
10
59.6204
20
-51.9781
11
59.8519
21
-51.7315
0
LINE
8
BLACK
6
CONTINUOUS
10
59.8519
20
-51.7315
11
60.0546
21
-51.4606
0
LINE
8
BLACK
6
CONTINUOUS
10
60.0546
20
-51.4606
11
60.2257
21
-51.1689
0
LINE
8
BLACK
6
CONTINUOUS
10
60.2257
20
-51.1689
11
60.3633
21
-50.8599
0
LINE
8
BLACK
6
CONTINUOUS
10
60.3633
20
-50.8599
11
60.4656
21
-50.5375
0
LINE
8
BLACK
6
CONTINUOUS
10
60.4656
20
-50.5375
11
60.5313
21
-50.2057
0
LINE
8
BLACK
6
CONTINUOUS
10
60.5313
20
-50.2057
11
60.5596
21
-49.8686
0
LINE
8
BLACK
6
CONTINUOUS
10
60.5596
20
-49.8686
11
60.5608
21
-49.784
0
LINE
8
BLACK
6
CONTINUOUS
10
60.5608
20
-49.784
11
60.5419
21
-49.4463
0
LINE
8
BLACK
6
CONTINUOUS
10
60.5419
20
-49.4463
11
60.4855
21
-49.1128
0
LINE
8
BLACK
6
CONTINUOUS
10
60.4855
20
-49.1128
11
60.3922
21
-48.7876
0
LINE
8
BLACK
6
CONTINUOUS
10
60.3922
20
-48.7876
11
60.2633
21
-48.4749
0
LINE
8
BLACK
6
CONTINUOUS
10
60.2633
20
-48.4749
11
60.1004
21
-48.1785
0
LINE
8
BLACK
6
CONTINUOUS
10
60.1004
20
-48.1785
11
59.9054
21
-47.9021
0
LINE
8
BLACK
6
CONTINUOUS
10
59.9054
20
-47.9021
11
59.6808
21
-47.6491
0
LINE
8
BLACK
6
CONTINUOUS
10
59.6808
20
-47.6491
11
59.4295
21
-47.4228
0
LINE
8
BLACK
6
CONTINUOUS
10
59.4295
20
-47.4228
11
59.1544
21
-47.2259
0
LINE
8
BLACK
6
CONTINUOUS
10
59.1544
20
-47.2259
11
58.8592
21
-47.0609
0
LINE
8
BLACK
6
CONTINUOUS
10
58.8592
20
-47.0609
11
58.5473
21
-46.9298
0
LINE
8
BLACK
6
CONTINUOUS
10
58.5473
20
-46.9298
11
58.2228
21
-46.8343
0
LINE
8
BLACK
6
CONTINUOUS
10
58.2228
20
-46.8343
11
57.8897
21
-46.7755
0
LINE
8
BLACK
6
CONTINUOUS
10
57.8897
20
-46.7755
11
57.5522
21
-46.7543
0
LINE
8
BLACK
6
CONTINUOUS
10
57.5522
20
-46.7543
11
57.2143
21
-46.7708
0
LINE
8
BLACK
6
CONTINUOUS
10
57.2143
20
-46.7708
11
56.8804
21
-46.8249
0
LINE
8
BLACK
6
CONTINUOUS
10
56.8804
20
-46.8249
11
56.5546
21
-46.9159
0
LINE
8
BLACK
6
CONTINUOUS
10
56.5546
20
-46.9159
11
56.241
21
-47.0426
0
LINE
8
BLACK
6
CONTINUOUS
10
56.241
20
-47.0426
11
55.9434
21
-47.2035
0
LINE
8
BLACK
6
CONTINUOUS
10
55.9434
20
-47.2035
11
55.6657
21
-47.3965
0
LINE
8
BLACK
6
CONTINUOUS
10
55.6657
20
-47.3965
11
55.4112
21
-47.6193
0
LINE
8
BLACK
6
CONTINUOUS
10
55.4112
20
-47.6193
11
55.1831
21
-47.8691
0
LINE
8
BLACK
6
CONTINUOUS
10
55.1831
20
-47.8691
11
54.9843
21
-48.1428
0
LINE
8
BLACK
6
CONTINUOUS
10
54.9843
20
-48.1428
11
54.8172
21
-48.4369
0
LINE
8
BLACK
6
CONTINUOUS
10
54.8172
20
-48.4369
11
54.684
21
-48.7478
0
LINE
8
BLACK
6
CONTINUOUS
10
54.684
20
-48.7478
11
54.5862
21
-49.0716
0
LINE
8
BLACK
6
CONTINUOUS
10
54.5862
20
-49.0716
11
54.5251
21
-49.4043
0
LINE
8
BLACK
6
CONTINUOUS
10
54.5251
20
-49.4043
11
54.5015
21
-49.7417
0
LINE
8
BLACK
6
CONTINUOUS
10
54.5015
20
-49.7417
11
54.5157
21
-50.0797
0
LINE
8
BLACK
6
CONTINUOUS
10
54.5157
20
-50.0797
11
54.5674
21
-50.4139
0
LINE
8
BLACK
6
CONTINUOUS
10
65.4983
20
-44.1323
11
65.5614
21
-43.8432
0
LINE
8
BLACK
6
CONTINUOUS
10
65.5614
20
-43.8432
11
65.663
21
-43.5653
0
LINE
8
BLACK
6
CONTINUOUS
10
65.663
20
-43.5653
11
65.8015
21
-43.3039
0
LINE
8
BLACK
6
CONTINUOUS
10
65.8015
20
-43.3039
11
65.9741
21
-43.0636
0
LINE
8
BLACK
6
CONTINUOUS
10
65.9741
20
-43.0636
11
66.1778
21
-42.849
0
LINE
8
BLACK
6
CONTINUOUS
10
66.1778
20
-42.849
11
66.4087
21
-42.664
0
LINE
8
BLACK
6
CONTINUOUS
10
66.4087
20
-42.664
11
66.6626
21
-42.5121
0
LINE
8
BLACK
6
CONTINUOUS
10
66.6626
20
-42.5121
11
66.9347
21
-42.396
0
LINE
8
BLACK
6
CONTINUOUS
10
66.9347
20
-42.396
11
67.2201
21
-42.3179
0
LINE
8
BLACK
6
CONTINUOUS
10
67.2201
20
-42.3179
11
67.5134
21
-42.2793
0
LINE
8
BLACK
6
CONTINUOUS
10
67.5134
20
-42.2793
11
67.8093
21
-42.2808
0
LINE
8
BLACK
6
CONTINUOUS
10
67.8093
20
-42.2808
11
68.1022
21
-42.3225
0
LINE
8
BLACK
6
CONTINUOUS
10
68.1022
20
-42.3225
11
68.3868
21
-42.4036
0
LINE
8
BLACK
6
CONTINUOUS
10
68.3868
20
-42.4036
11
68.6577
21
-42.5225
0
LINE
8
BLACK
6
CONTINUOUS
10
68.6577
20
-42.5225
11
68.9099
21
-42.6771
0
LINE
8
BLACK
6
CONTINUOUS
10
68.9099
20
-42.6771
11
69.1389
21
-42.8645
0
LINE
8
BLACK
6
CONTINUOUS
10
69.1389
20
-42.8645
11
69.3403
21
-43.0812
0
LINE
8
BLACK
6
CONTINUOUS
10
69.3403
20
-43.0812
11
69.5104
21
-43.3233
0
LINE
8
BLACK
6
CONTINUOUS
10
69.5104
20
-43.3233
11
69.6461
21
-43.5862
0
LINE
8
BLACK
6
CONTINUOUS
10
69.6461
20
-43.5862
11
69.7449
21
-43.8651
0
LINE
8
BLACK
6
CONTINUOUS
10
69.7449
20
-43.8651
11
69.8049
21
-44.1548
0
LINE
8
BLACK
6
CONTINUOUS
10
69.8049
20
-44.1548
11
69.825
21
-44.45
0
LINE
8
BLACK
6
CONTINUOUS
10
69.825
20
-44.45
11
69.8245
21
-44.4956
0
LINE
8
BLACK
6
CONTINUOUS
10
69.8245
20
-44.4956
11
69.7982
21
-44.7902
0
LINE
8
BLACK
6
CONTINUOUS
10
69.7982
20
-44.7902
11
69.7322
21
-45.0786
0
LINE
8
BLACK
6
CONTINUOUS
10
69.7322
20
-45.0786
11
69.6276
21
-45.3554
0
LINE
8
BLACK
6
CONTINUOUS
10
69.6276
20
-45.3554
11
69.4864
21
-45.6154
0
LINE
8
BLACK
6
CONTINUOUS
10
69.4864
20
-45.6154
11
69.3113
21
-45.8539
0
LINE
8
BLACK
6
CONTINUOUS
10
69.3113
20
-45.8539
11
69.1054
21
-46.0663
0
LINE
8
BLACK
6
CONTINUOUS
10
69.1054
20
-46.0663
11
68.8725
21
-46.2489
0
LINE
8
BLACK
6
CONTINUOUS
10
68.8725
20
-46.2489
11
68.6171
21
-46.3982
0
LINE
8
BLACK
6
CONTINUOUS
10
68.6171
20
-46.3982
11
68.3437
21
-46.5114
0
LINE
8
BLACK
6
CONTINUOUS
10
68.3437
20
-46.5114
11
68.0576
21
-46.5865
0
LINE
8
BLACK
6
CONTINUOUS
10
68.0576
20
-46.5865
11
67.7638
21
-46.622
0
LINE
8
BLACK
6
CONTINUOUS
10
67.7638
20
-46.622
11
67.468
21
-46.6174
0
LINE
8
BLACK
6
CONTINUOUS
10
67.468
20
-46.6174
11
67.1755
21
-46.5726
0
LINE
8
BLACK
6
CONTINUOUS
10
67.1755
20
-46.5726
11
66.8919
21
-46.4886
0
LINE
8
BLACK
6
CONTINUOUS
10
66.8919
20
-46.4886
11
66.6222
21
-46.3668
0
LINE
8
BLACK
6
CONTINUOUS
10
66.6222
20
-46.3668
11
66.3716
21
-46.2096
0
LINE
8
BLACK
6
CONTINUOUS
10
66.3716
20
-46.2096
11
66.1446
21
-46.0198
0
LINE
8
BLACK
6
CONTINUOUS
10
66.1446
20
-46.0198
11
65.9455
21
-45.801
0
LINE
8
BLACK
6
CONTINUOUS
10
65.9455
20
-45.801
11
65.7779
21
-45.5572
0
LINE
8
BLACK
6
CONTINUOUS
10
65.7779
20
-45.5572
11
65.6449
21
-45.2928
0
LINE
8
BLACK
6
CONTINUOUS
10
65.6449
20
-45.2928
11
65.5491
21
-45.0129
0
LINE
8
BLACK
6
CONTINUOUS
10
65.5491
20
-45.0129
11
65.4922
21
-44.7226
0
LINE
8
BLACK
6
CONTINUOUS
10
65.4922
20
-44.7226
11
65.4751
21
-44.4277
0
LINE
8
BLACK
6
CONTINUOUS
10
65.4751
20
-44.4277
11
65.4751
21
-44.4272
0
LINE
8
BLACK
6
CONTINUOUS
10
65.4751
20
-44.4272
11
65.4983
21
-44.1323
0
LINE
8
BLACK
6
CONTINUOUS
10
65.5926
20
-45.0013
11
65.6865
21
-45.2754
0
LINE
8
BLACK
6
CONTINUOUS
10
65.6865
20
-45.2754
11
65.8166
21
-45.5342
0
LINE
8
BLACK
6
CONTINUOUS
10
65.8166
20
-45.5342
11
65.9808
21
-45.773
0
LINE
8
BLACK
6
CONTINUOUS
10
65.9808
20
-45.773
11
66.1758
21
-45.9873
0
LINE
8
BLACK
6
CONTINUOUS
10
66.1758
20
-45.9873
11
66.398
21
-46.1732
0
LINE
8
BLACK
6
CONTINUOUS
10
66.398
20
-46.1732
11
66.6435
21
-46.3271
0
LINE
8
BLACK
6
CONTINUOUS
10
66.6435
20
-46.3271
11
66.9076
21
-46.4464
0
LINE
8
BLACK
6
CONTINUOUS
10
66.9076
20
-46.4464
11
67.1854
21
-46.5287
0
LINE
8
BLACK
6
CONTINUOUS
10
67.1854
20
-46.5287
11
67.4718
21
-46.5725
0
LINE
8
BLACK
6
CONTINUOUS
10
67.4718
20
-46.5725
11
67.7615
21
-46.577
0
LINE
8
BLACK
6
CONTINUOUS
10
67.7615
20
-46.577
11
68.0491
21
-46.5422
0
LINE
8
BLACK
6
CONTINUOUS
10
68.0491
20
-46.5422
11
68.3294
21
-46.4687
0
LINE
8
BLACK
6
CONTINUOUS
10
68.3294
20
-46.4687
11
68.5971
21
-46.3578
0
LINE
8
BLACK
6
CONTINUOUS
10
68.5971
20
-46.3578
11
68.8472
21
-46.2117
0
LINE
8
BLACK
6
CONTINUOUS
10
68.8472
20
-46.2117
11
69.0752
21
-46.0329
0
LINE
8
BLACK
6
CONTINUOUS
10
69.0752
20
-46.0329
11
69.2769
21
-45.8248
0
LINE
8
BLACK
6
CONTINUOUS
10
69.2769
20
-45.8248
11
69.4484
21
-45.5913
0
LINE
8
BLACK
6
CONTINUOUS
10
69.4484
20
-45.5913
11
69.5866
21
-45.3367
0
LINE
8
BLACK
6
CONTINUOUS
10
69.5866
20
-45.3367
11
69.6891
21
-45.0656
0
LINE
8
BLACK
6
CONTINUOUS
10
69.6891
20
-45.0656
11
69.7537
21
-44.7832
0
LINE
8
BLACK
6
CONTINUOUS
10
69.7537
20
-44.7832
11
69.7795
21
-44.4946
0
LINE
8
BLACK
6
CONTINUOUS
10
69.7795
20
-44.4946
11
69.78
21
-44.45
0
LINE
8
BLACK
6
CONTINUOUS
10
69.78
20
-44.45
11
69.7603
21
-44.1609
0
LINE
8
BLACK
6
CONTINUOUS
10
69.7603
20
-44.1609
11
69.7015
21
-43.8772
0
LINE
8
BLACK
6
CONTINUOUS
10
69.7015
20
-43.8772
11
69.6048
21
-43.6041
0
LINE
8
BLACK
6
CONTINUOUS
10
69.6048
20
-43.6041
11
69.4719
21
-43.3466
0
LINE
8
BLACK
6
CONTINUOUS
10
69.4719
20
-43.3466
11
69.3053
21
-43.1096
0
LINE
8
BLACK
6
CONTINUOUS
10
69.3053
20
-43.1096
11
69.1081
21
-42.8973
0
LINE
8
BLACK
6
CONTINUOUS
10
69.1081
20
-42.8973
11
68.8838
21
-42.7138
0
LINE
8
BLACK
6
CONTINUOUS
10
68.8838
20
-42.7138
11
68.6368
21
-42.5624
0
LINE
8
BLACK
6
CONTINUOUS
10
68.6368
20
-42.5624
11
68.3715
21
-42.446
0
LINE
8
BLACK
6
CONTINUOUS
10
68.3715
20
-42.446
11
68.0928
21
-42.3666
0
LINE
8
BLACK
6
CONTINUOUS
10
68.0928
20
-42.3666
11
67.806
21
-42.3258
0
LINE
8
BLACK
6
CONTINUOUS
10
67.806
20
-42.3258
11
67.5163
21
-42.3242
0
LINE
8
BLACK
6
CONTINUOUS
10
67.5163
20
-42.3242
11
67.229
21
-42.3621
0
LINE
8
BLACK
6
CONTINUOUS
10
67.229
20
-42.3621
11
66.9495
21
-42.4385
0
LINE
8
BLACK
6
CONTINUOUS
10
66.9495
20
-42.4385
11
66.683
21
-42.5522
0
LINE
8
BLACK
6
CONTINUOUS
10
66.683
20
-42.5522
11
66.4344
21
-42.701
0
LINE
8
BLACK
6
CONTINUOUS
10
66.4344
20
-42.701
11
66.2083
21
-42.8821
0
LINE
8
BLACK
6
CONTINUOUS
10
66.2083
20
-42.8821
11
66.0088
21
-43.0923
0
LINE
8
BLACK
6
CONTINUOUS
10
66.0088
20
-43.0923
11
65.8398
21
-43.3276
0
LINE
8
BLACK
6
CONTINUOUS
10
65.8398
20
-43.3276
11
65.7042
21
-43.5837
0
LINE
8
BLACK
6
CONTINUOUS
10
65.7042
20
-43.5837
11
65.6046
21
-43.8558
0
LINE
8
BLACK
6
CONTINUOUS
10
65.6046
20
-43.8558
11
65.5429
21
-44.1388
0
LINE
8
BLACK
6
CONTINUOUS
10
65.5429
20
-44.1388
11
65.5202
21
-44.4277
0
LINE
8
BLACK
6
CONTINUOUS
10
65.5202
20
-44.4277
11
65.5368
21
-44.717
0
LINE
8
BLACK
6
CONTINUOUS
10
65.5368
20
-44.717
11
65.5926
21
-45.0013
0
LINE
8
BLACK
6
CONTINUOUS
10
88.5983
20
-44.1323
11
88.6614
21
-43.8432
0
LINE
8
BLACK
6
CONTINUOUS
10
88.6614
20
-43.8432
11
88.763
21
-43.5653
0
LINE
8
BLACK
6
CONTINUOUS
10
88.763
20
-43.5653
11
88.9015
21
-43.3039
0
LINE
8
BLACK
6
CONTINUOUS
10
88.9015
20
-43.3039
11
89.0741
21
-43.0636
0
LINE
8
BLACK
6
CONTINUOUS
10
89.0741
20
-43.0636
11
89.2778
21
-42.849
0
LINE
8
BLACK
6
CONTINUOUS
10
89.2778
20
-42.849
11
89.5087
21
-42.664
0
LINE
8
BLACK
6
CONTINUOUS
10
89.5087
20
-42.664
11
89.7626
21
-42.5121
0
LINE
8
BLACK
6
CONTINUOUS
10
89.7626
20
-42.5121
11
90.0347
21
-42.396
0
LINE
8
BLACK
6
CONTINUOUS
10
90.0347
20
-42.396
11
90.3201
21
-42.3179
0
LINE
8
BLACK
6
CONTINUOUS
10
90.3201
20
-42.3179
11
90.6134
21
-42.2793
0
LINE
8
BLACK
6
CONTINUOUS
10
90.6134
20
-42.2793
11
90.9093
21
-42.2808
0
LINE
8
BLACK
6
CONTINUOUS
10
90.9093
20
-42.2808
11
91.2022
21
-42.3225
0
LINE
8
BLACK
6
CONTINUOUS
10
91.2022
20
-42.3225
11
91.4868
21
-42.4036
0
LINE
8
BLACK
6
CONTINUOUS
10
91.4868
20
-42.4036
11
91.7577
21
-42.5225
0
LINE
8
BLACK
6
CONTINUOUS
10
91.7577
20
-42.5225
11
92.0099
21
-42.6771
0
LINE
8
BLACK
6
CONTINUOUS
10
92.0099
20
-42.6771
11
92.2389
21
-42.8645
0
LINE
8
BLACK
6
CONTINUOUS
10
92.2389
20
-42.8645
11
92.4403
21
-43.0812
0
LINE
8
BLACK
6
CONTINUOUS
10
92.4403
20
-43.0812
11
92.6104
21
-43.3233
0
LINE
8
BLACK
6
CONTINUOUS
10
92.6104
20
-43.3233
11
92.7461
21
-43.5862
0
LINE
8
BLACK
6
CONTINUOUS
10
92.7461
20
-43.5862
11
92.8449
21
-43.8651
0
LINE
8
BLACK
6
CONTINUOUS
10
92.8449
20
-43.8651
11
92.9049
21
-44.1548
0
LINE
8
BLACK
6
CONTINUOUS
10
92.9049
20
-44.1548
11
92.925
21
-44.45
0
LINE
8
BLACK
6
CONTINUOUS
10
92.925
20
-44.45
11
92.9245
21
-44.4956
0
LINE
8
BLACK
6
CONTINUOUS
10
92.9245
20
-44.4956
11
92.8982
21
-44.7902
0
LINE
8
BLACK
6
CONTINUOUS
10
92.8982
20
-44.7902
11
92.8322
21
-45.0786
0
LINE
8
BLACK
6
CONTINUOUS
10
92.8322
20
-45.0786
11
92.7276
21
-45.3554
0
LINE
8
BLACK
6
CONTINUOUS
10
92.7276
20
-45.3554
11
92.5864
21
-45.6154
0
LINE
8
BLACK
6
CONTINUOUS
10
92.5864
20
-45.6154
11
92.4113
21
-45.8539
0
LINE
8
BLACK
6
CONTINUOUS
10
92.4113
20
-45.8539
11
92.2054
21
-46.0663
0
LINE
8
BLACK
6
CONTINUOUS
10
92.2054
20
-46.0663
11
91.9725
21
-46.2489
0
LINE
8
BLACK
6
CONTINUOUS
10
91.9725
20
-46.2489
11
91.7171
21
-46.3982
0
LINE
8
BLACK
6
CONTINUOUS
10
91.7171
20
-46.3982
11
91.4437
21
-46.5114
0
LINE
8
BLACK
6
CONTINUOUS
10
91.4437
20
-46.5114
11
91.1576
21
-46.5865
0
LINE
8
BLACK
6
CONTINUOUS
10
91.1576
20
-46.5865
11
90.8638
21
-46.622
0
LINE
8
BLACK
6
CONTINUOUS
10
90.8638
20
-46.622
11
90.568
21
-46.6174
0
LINE
8
BLACK
6
CONTINUOUS
10
90.568
20
-46.6174
11
90.2755
21
-46.5726
0
LINE
8
BLACK
6
CONTINUOUS
10
90.2755
20
-46.5726
11
89.9919
21
-46.4886
0
LINE
8
BLACK
6
CONTINUOUS
10
89.9919
20
-46.4886
11
89.7222
21
-46.3668
0
LINE
8
BLACK
6
CONTINUOUS
10
89.7222
20
-46.3668
11
89.4716
21
-46.2096
0
LINE
8
BLACK
6
CONTINUOUS
10
89.4716
20
-46.2096
11
89.2446
21
-46.0198
0
LINE
8
BLACK
6
CONTINUOUS
10
89.2446
20
-46.0198
11
89.0455
21
-45.801
0
LINE
8
BLACK
6
CONTINUOUS
10
89.0455
20
-45.801
11
88.8779
21
-45.5572
0
LINE
8
BLACK
6
CONTINUOUS
10
88.8779
20
-45.5572
11
88.7449
21
-45.2928
0
LINE
8
BLACK
6
CONTINUOUS
10
88.7449
20
-45.2928
11
88.6491
21
-45.0129
0
LINE
8
BLACK
6
CONTINUOUS
10
88.6491
20
-45.0129
11
88.5922
21
-44.7226
0
LINE
8
BLACK
6
CONTINUOUS
10
88.5922
20
-44.7226
11
88.5751
21
-44.4277
0
LINE
8
BLACK
6
CONTINUOUS
10
88.5751
20
-44.4277
11
88.5751
21
-44.4272
0
LINE
8
BLACK
6
CONTINUOUS
10
88.5751
20
-44.4272
11
88.5983
21
-44.1323
0
LINE
8
BLACK
6
CONTINUOUS
10
88.6926
20
-45.0013
11
88.7865
21
-45.2754
0
LINE
8
BLACK
6
CONTINUOUS
10
88.7865
20
-45.2754
11
88.9166
21
-45.5342
0
LINE
8
BLACK
6
CONTINUOUS
10
88.9166
20
-45.5342
11
89.0808
21
-45.773
0
LINE
8
BLACK
6
CONTINUOUS
10
89.0808
20
-45.773
11
89.2758
21
-45.9873
0
LINE
8
BLACK
6
CONTINUOUS
10
89.2758
20
-45.9873
11
89.498
21
-46.1732
0
LINE
8
BLACK
6
CONTINUOUS
10
89.498
20
-46.1732
11
89.7435
21
-46.3271
0
LINE
8
BLACK
6
CONTINUOUS
10
89.7435
20
-46.3271
11
90.0076
21
-46.4464
0
LINE
8
BLACK
6
CONTINUOUS
10
90.0076
20
-46.4464
11
90.2854
21
-46.5287
0
LINE
8
BLACK
6
CONTINUOUS
10
90.2854
20
-46.5287
11
90.5718
21
-46.5725
0
LINE
8
BLACK
6
CONTINUOUS
10
90.5718
20
-46.5725
11
90.8615
21
-46.577
0
LINE
8
BLACK
6
CONTINUOUS
10
90.8615
20
-46.577
11
91.1491
21
-46.5422
0
LINE
8
BLACK
6
CONTINUOUS
10
91.1491
20
-46.5422
11
91.4294
21
-46.4687
0
LINE
8
BLACK
6
CONTINUOUS
10
91.4294
20
-46.4687
11
91.6971
21
-46.3578
0
LINE
8
BLACK
6
CONTINUOUS
10
91.6971
20
-46.3578
11
91.9472
21
-46.2117
0
LINE
8
BLACK
6
CONTINUOUS
10
91.9472
20
-46.2117
11
92.1752
21
-46.0329
0
LINE
8
BLACK
6
CONTINUOUS
10
92.1752
20
-46.0329
11
92.3769
21
-45.8248
0
LINE
8
BLACK
6
CONTINUOUS
10
92.3769
20
-45.8248
11
92.5484
21
-45.5913
0
LINE
8
BLACK
6
CONTINUOUS
10
92.5484
20
-45.5913
11
92.6866
21
-45.3367
0
LINE
8
BLACK
6
CONTINUOUS
10
92.6866
20
-45.3367
11
92.7891
21
-45.0656
0
LINE
8
BLACK
6
CONTINUOUS
10
92.7891
20
-45.0656
11
92.8537
21
-44.7832
0
LINE
8
BLACK
6
CONTINUOUS
10
92.8537
20
-44.7832
11
92.8795
21
-44.4946
0
LINE
8
BLACK
6
CONTINUOUS
10
92.8795
20
-44.4946
11
92.88
21
-44.45
0
LINE
8
BLACK
6
CONTINUOUS
10
92.88
20
-44.45
11
92.8603
21
-44.1609
0
LINE
8
BLACK
6
CONTINUOUS
10
92.8603
20
-44.1609
11
92.8015
21
-43.8772
0
LINE
8
BLACK
6
CONTINUOUS
10
92.8015
20
-43.8772
11
92.7048
21
-43.6041
0
LINE
8
BLACK
6
CONTINUOUS
10
92.7048
20
-43.6041
11
92.5719
21
-43.3466
0
LINE
8
BLACK
6
CONTINUOUS
10
92.5719
20
-43.3466
11
92.4053
21
-43.1096
0
LINE
8
BLACK
6
CONTINUOUS
10
92.4053
20
-43.1096
11
92.2081
21
-42.8973
0
LINE
8
BLACK
6
CONTINUOUS
10
92.2081
20
-42.8973
11
91.9838
21
-42.7138
0
LINE
8
BLACK
6
CONTINUOUS
10
91.9838
20
-42.7138
11
91.7368
21
-42.5624
0
LINE
8
BLACK
6
CONTINUOUS
10
91.7368
20
-42.5624
11
91.4715
21
-42.446
0
LINE
8
BLACK
6
CONTINUOUS
10
91.4715
20
-42.446
11
91.1928
21
-42.3666
0
LINE
8
BLACK
6
CONTINUOUS
10
91.1928
20
-42.3666
11
90.906
21
-42.3258
0
LINE
8
BLACK
6
CONTINUOUS
10
90.906
20
-42.3258
11
90.6163
21
-42.3242
0
LINE
8
BLACK
6
CONTINUOUS
10
90.6163
20
-42.3242
11
90.329
21
-42.3621
0
LINE
8
BLACK
6
CONTINUOUS
10
90.329
20
-42.3621
11
90.0495
21
-42.4385
0
LINE
8
BLACK
6
CONTINUOUS
10
90.0495
20
-42.4385
11
89.783
21
-42.5522
0
LINE
8
BLACK
6
CONTINUOUS
10
89.783
20
-42.5522
11
89.5344
21
-42.701
0
LINE
8
BLACK
6
CONTINUOUS
10
89.5344
20
-42.701
11
89.3083
21
-42.8821
0
LINE
8
BLACK
6
CONTINUOUS
10
89.3083
20
-42.8821
11
89.1088
21
-43.0923
0
LINE
8
BLACK
6
CONTINUOUS
10
89.1088
20
-43.0923
11
88.9398
21
-43.3276
0
LINE
8
BLACK
6
CONTINUOUS
10
88.9398
20
-43.3276
11
88.8042
21
-43.5837
0
LINE
8
BLACK
6
CONTINUOUS
10
88.8042
20
-43.5837
11
88.7046
21
-43.8558
0
LINE
8
BLACK
6
CONTINUOUS
10
88.7046
20
-43.8558
11
88.6429
21
-44.1388
0
LINE
8
BLACK
6
CONTINUOUS
10
88.6429
20
-44.1388
11
88.6202
21
-44.4277
0
LINE
8
BLACK
6
CONTINUOUS
10
88.6202
20
-44.4277
11
88.6368
21
-44.717
0
LINE
8
BLACK
6
CONTINUOUS
10
88.6368
20
-44.717
11
88.6926
21
-45.0013
0
LINE
8
BLACK
6
CONTINUOUS
10
54.0483
20
-42.6823
11
54.1114
21
-42.3932
0
LINE
8
BLACK
6
CONTINUOUS
10
54.1114
20
-42.3932
11
54.213
21
-42.1153
0
LINE
8
BLACK
6
CONTINUOUS
10
54.213
20
-42.1153
11
54.3515
21
-41.8539
0
LINE
8
BLACK
6
CONTINUOUS
10
54.3515
20
-41.8539
11
54.5241
21
-41.6136
0
LINE
8
BLACK
6
CONTINUOUS
10
54.5241
20
-41.6136
11
54.7278
21
-41.399
0
LINE
8
BLACK
6
CONTINUOUS
10
54.7278
20
-41.399
11
54.9587
21
-41.214
0
LINE
8
BLACK
6
CONTINUOUS
10
54.9587
20
-41.214
11
55.2126
21
-41.0621
0
LINE
8
BLACK
6
CONTINUOUS
10
55.2126
20
-41.0621
11
55.4847
21
-40.946
0
LINE
8
BLACK
6
CONTINUOUS
10
55.4847
20
-40.946
11
55.7701
21
-40.8679
0
LINE
8
BLACK
6
CONTINUOUS
10
55.7701
20
-40.8679
11
56.0634
21
-40.8293
0
LINE
8
BLACK
6
CONTINUOUS
10
56.0634
20
-40.8293
11
56.3593
21
-40.8308
0
LINE
8
BLACK
6
CONTINUOUS
10
56.3593
20
-40.8308
11
56.6522
21
-40.8725
0
LINE
8
BLACK
6
CONTINUOUS
10
56.6522
20
-40.8725
11
56.9368
21
-40.9536
0
LINE
8
BLACK
6
CONTINUOUS
10
56.9368
20
-40.9536
11
57.2077
21
-41.0725
0
LINE
8
BLACK
6
CONTINUOUS
10
57.2077
20
-41.0725
11
57.4599
21
-41.2271
0
LINE
8
BLACK
6
CONTINUOUS
10
57.4599
20
-41.2271
11
57.6889
21
-41.4145
0
LINE
8
BLACK
6
CONTINUOUS
10
57.6889
20
-41.4145
11
57.8903
21
-41.6312
0
LINE
8
BLACK
6
CONTINUOUS
10
57.8903
20
-41.6312
11
58.0604
21
-41.8733
0
LINE
8
BLACK
6
CONTINUOUS
10
58.0604
20
-41.8733
11
58.1961
21
-42.1362
0
LINE
8
BLACK
6
CONTINUOUS
10
58.1961
20
-42.1362
11
58.2949
21
-42.4151
0
LINE
8
BLACK
6
CONTINUOUS
10
58.2949
20
-42.4151
11
58.3549
21
-42.7048
0
LINE
8
BLACK
6
CONTINUOUS
10
58.3549
20
-42.7048
11
58.375
21
-43
0
LINE
8
BLACK
6
CONTINUOUS
10
58.375
20
-43
11
58.3745
21
-43.0455
0
LINE
8
BLACK
6
CONTINUOUS
10
58.3745
20
-43.0455
11
58.3482
21
-43.3402
0
LINE
8
BLACK
6
CONTINUOUS
10
58.3482
20
-43.3402
11
58.2822
21
-43.6286
0
LINE
8
BLACK
6
CONTINUOUS
10
58.2822
20
-43.6286
11
58.1776
21
-43.9054
0
LINE
8
BLACK
6
CONTINUOUS
10
58.1776
20
-43.9054
11
58.0364
21
-44.1654
0
LINE
8
BLACK
6
CONTINUOUS
10
58.0364
20
-44.1654
11
57.8613
21
-44.4039
0
LINE
8
BLACK
6
CONTINUOUS
10
57.8613
20
-44.4039
11
57.6554
21
-44.6163
0
LINE
8
BLACK
6
CONTINUOUS
10
57.6554
20
-44.6163
11
57.4225
21
-44.7989
0
LINE
8
BLACK
6
CONTINUOUS
10
57.4225
20
-44.7989
11
57.1671
21
-44.9482
0
LINE
8
BLACK
6
CONTINUOUS
10
57.1671
20
-44.9482
11
56.8937
21
-45.0614
0
LINE
8
BLACK
6
CONTINUOUS
10
56.8937
20
-45.0614
11
56.6076
21
-45.1365
0
LINE
8
BLACK
6
CONTINUOUS
10
56.6076
20
-45.1365
11
56.3138
21
-45.172
0
LINE
8
BLACK
6
CONTINUOUS
10
56.3138
20
-45.172
11
56.018
21
-45.1674
0
LINE
8
BLACK
6
CONTINUOUS
10
56.018
20
-45.1674
11
55.7255
21
-45.1226
0
LINE
8
BLACK
6
CONTINUOUS
10
55.7255
20
-45.1226
11
55.4419
21
-45.0386
0
LINE
8
BLACK
6
CONTINUOUS
10
55.4419
20
-45.0386
11
55.1722
21
-44.9168
0
LINE
8
BLACK
6
CONTINUOUS
10
55.1722
20
-44.9168
11
54.9216
21
-44.7596
0
LINE
8
BLACK
6
CONTINUOUS
10
54.9216
20
-44.7596
11
54.6946
21
-44.5698
0
LINE
8
BLACK
6
CONTINUOUS
10
54.6946
20
-44.5698
11
54.4955
21
-44.351
0
LINE
8
BLACK
6
CONTINUOUS
10
54.4955
20
-44.351
11
54.3279
21
-44.1072
0
LINE
8
BLACK
6
CONTINUOUS
10
54.3279
20
-44.1072
11
54.1949
21
-43.8428
0
LINE
8
BLACK
6
CONTINUOUS
10
54.1949
20
-43.8428
11
54.0991
21
-43.5629
0
LINE
8
BLACK
6
CONTINUOUS
10
54.0991
20
-43.5629
11
54.0422
21
-43.2726
0
LINE
8
BLACK
6
CONTINUOUS
10
54.0422
20
-43.2726
11
54.0251
21
-42.9777
0
LINE
8
BLACK
6
CONTINUOUS
10
54.0251
20
-42.9777
11
54.0251
21
-42.9772
0
LINE
8
BLACK
6
CONTINUOUS
10
54.0251
20
-42.9772
11
54.0483
21
-42.6823
0
LINE
8
BLACK
6
CONTINUOUS
10
54.1426
20
-43.5513
11
54.2365
21
-43.8254
0
LINE
8
BLACK
6
CONTINUOUS
10
54.2365
20
-43.8254
11
54.3666
21
-44.0842
0
LINE
8
BLACK
6
CONTINUOUS
10
54.3666
20
-44.0842
11
54.5308
21
-44.323
0
LINE
8
BLACK
6
CONTINUOUS
10
54.5308
20
-44.323
11
54.7258
21
-44.5373
0
LINE
8
BLACK
6
CONTINUOUS
10
54.7258
20
-44.5373
11
54.948
21
-44.7232
0
LINE
8
BLACK
6
CONTINUOUS
10
54.948
20
-44.7232
11
55.1935
21
-44.8771
0
LINE
8
BLACK
6
CONTINUOUS
10
55.1935
20
-44.8771
11
55.4576
21
-44.9964
0
LINE
8
BLACK
6
CONTINUOUS
10
55.4576
20
-44.9964
11
55.7354
21
-45.0787
0
LINE
8
BLACK
6
CONTINUOUS
10
55.7354
20
-45.0787
11
56.0218
21
-45.1225
0
LINE
8
BLACK
6
CONTINUOUS
10
56.0218
20
-45.1225
11
56.3115
21
-45.127
0
LINE
8
BLACK
6
CONTINUOUS
10
56.3115
20
-45.127
11
56.5991
21
-45.0922
0
LINE
8
BLACK
6
CONTINUOUS
10
56.5991
20
-45.0922
11
56.8794
21
-45.0187
0
LINE
8
BLACK
6
CONTINUOUS
10
56.8794
20
-45.0187
11
57.1471
21
-44.9078
0
LINE
8
BLACK
6
CONTINUOUS
10
57.1471
20
-44.9078
11
57.3972
21
-44.7617
0
LINE
8
BLACK
6
CONTINUOUS
10
57.3972
20
-44.7617
11
57.6252
21
-44.5829
0
LINE
8
BLACK
6
CONTINUOUS
10
57.6252
20
-44.5829
11
57.8269
21
-44.3748
0
LINE
8
BLACK
6
CONTINUOUS
10
57.8269
20
-44.3748
11
57.9984
21
-44.1413
0
LINE
8
BLACK
6
CONTINUOUS
10
57.9984
20
-44.1413
11
58.1366
21
-43.8867
0
LINE
8
BLACK
6
CONTINUOUS
10
58.1366
20
-43.8867
11
58.2391
21
-43.6156
0
LINE
8
BLACK
6
CONTINUOUS
10
58.2391
20
-43.6156
11
58.3037
21
-43.3332
0
LINE
8
BLACK
6
CONTINUOUS
10
58.3037
20
-43.3332
11
58.3295
21
-43.0446
0
LINE
8
BLACK
6
CONTINUOUS
10
58.3295
20
-43.0446
11
58.33
21
-43
0
LINE
8
BLACK
6
CONTINUOUS
10
58.33
20
-43
11
58.3103
21
-42.7109
0
LINE
8
BLACK
6
CONTINUOUS
10
58.3103
20
-42.7109
11
58.2515
21
-42.4272
0
LINE
8
BLACK
6
CONTINUOUS
10
58.2515
20
-42.4272
11
58.1548
21
-42.1541
0
LINE
8
BLACK
6
CONTINUOUS
10
58.1548
20
-42.1541
11
58.0219
21
-41.8966
0
LINE
8
BLACK
6
CONTINUOUS
10
58.0219
20
-41.8966
11
57.8553
21
-41.6596
0
LINE
8
BLACK
6
CONTINUOUS
10
57.8553
20
-41.6596
11
57.6581
21
-41.4473
0
LINE
8
BLACK
6
CONTINUOUS
10
57.6581
20
-41.4473
11
57.4338
21
-41.2638
0
LINE
8
BLACK
6
CONTINUOUS
10
57.4338
20
-41.2638
11
57.1868
21
-41.1124
0
LINE
8
BLACK
6
CONTINUOUS
10
57.1868
20
-41.1124
11
56.9215
21
-40.996
0
LINE
8
BLACK
6
CONTINUOUS
10
56.9215
20
-40.996
11
56.6428
21
-40.9166
0
LINE
8
BLACK
6
CONTINUOUS
10
56.6428
20
-40.9166
11
56.356
21
-40.8758
0
LINE
8
BLACK
6
CONTINUOUS
10
56.356
20
-40.8758
11
56.0663
21
-40.8742
0
LINE
8
BLACK
6
CONTINUOUS
10
56.0663
20
-40.8742
11
55.779
21
-40.9121
0
LINE
8
BLACK
6
CONTINUOUS
10
55.779
20
-40.9121
11
55.4995
21
-40.9885
0
LINE
8
BLACK
6
CONTINUOUS
10
55.4995
20
-40.9885
11
55.233
21
-41.1022
0
LINE
8
BLACK
6
CONTINUOUS
10
55.233
20
-41.1022
11
54.9844
21
-41.251
0
LINE
8
BLACK
6
CONTINUOUS
10
54.9844
20
-41.251
11
54.7583
21
-41.4321
0
LINE
8
BLACK
6
CONTINUOUS
10
54.7583
20
-41.4321
11
54.5588
21
-41.6423
0
LINE
8
BLACK
6
CONTINUOUS
10
54.5588
20
-41.6423
11
54.3898
21
-41.8776
0
LINE
8
BLACK
6
CONTINUOUS
10
54.3898
20
-41.8776
11
54.2542
21
-42.1337
0
LINE
8
BLACK
6
CONTINUOUS
10
54.2542
20
-42.1337
11
54.1546
21
-42.4058
0
LINE
8
BLACK
6
CONTINUOUS
10
54.1546
20
-42.4058
11
54.0929
21
-42.6888
0
LINE
8
BLACK
6
CONTINUOUS
10
54.0929
20
-42.6888
11
54.0702
21
-42.9777
0
LINE
8
BLACK
6
CONTINUOUS
10
54.0702
20
-42.9777
11
54.0868
21
-43.267
0
LINE
8
BLACK
6
CONTINUOUS
10
54.0868
20
-43.267
11
54.1426
21
-43.5513
  0
ENDSEC
  0
EOF
