  0
SECTION
  2
HEADER
  9
$ANGBASE
  50
0.0
  9
$ANGDIR
  70
1
  9
$MEASUREMENT
  70
1
  0
ENDSEC
  0
SECTION
  2
TABLES
  0
TABLE
  2
LTYPE
  70
4
  0
LTYPE
  5
40F
  2
CONTINUOUS
  70
0
  3
Solid line
  72
65
  73
0
  40
0.0
  0
LTYPE
  5
410
  2
DASHDOT
 70
0
  3
Dash Dot ____ _ ____ _
 72
65
 73
4
 40
2.0
 49
1.25
 49
-0.25
 49
0.25
 49
-0.25
  0
LTYPE
  5
411
  2
DASHED
 70
0
  3
Dashed __ __ __ __ __
 72
65
 73
2
 40
0.75
 49
0.5
 49
-0.25
  0
LTYPE
  5
43B
  2
DOTTED
 70
0
  3
Dotted .  .  .  .
 72
65
 73
2
 40
0.2
 49
0.0
 49
-0.2
  0
ENDTAB
  0
TABLE
  2
STYLE
  70
4
  0
STYLE
  2
KICAD
  70
0
  40
0
  41
1
  42
1
  50
0
  71
0
  3
isocp.shx
  0
STYLE
  2
KICADB
  70
0
  40
0
  41
1
  42
1
  50
0
  71
0
  3
isocp.shx
  0
STYLE
  2
KICADI
  70
0
  40
0
  41
1
  42
1
  50
15
  71
0
  3
isocp.shx
  0
STYLE
  2
KICADBI
  70
0
  40
0
  41
1
  42
1
  50
15
  71
0
  3
isocp.shx
  0
ENDTAB
  0
TABLE
  2
LAYER
  70
1
  0
LAYER
  2
BLACK
  70
0
  62
7
  6
CONTINUOUS
  0
ENDTAB
  0
ENDSEC
  0
SECTION
  2
ENTITIES
0
LINE
8
BLACK
6
CONTINUOUS
10
108.308
20
-40.8523
11
108.315
21
-40.87
0
LINE
8
BLACK
6
CONTINUOUS
10
108.315
20
-40.87
11
108.315
21
-71.07
0
LINE
8
BLACK
6
CONTINUOUS
10
108.315
20
-71.07
11
108.311
21
-71.079
0
LINE
8
BLACK
6
CONTINUOUS
10
108.311
20
-71.079
11
108.308
21
-71.0876
0
LINE
8
BLACK
6
CONTINUOUS
10
108.308
20
-71.0876
11
108.308
21
-71.0877
0
LINE
8
BLACK
6
CONTINUOUS
10
108.308
20
-71.0877
11
108.308
21
-71.0877
0
LINE
8
BLACK
6
CONTINUOUS
10
108.308
20
-71.0877
11
108.299
21
-71.0914
0
LINE
8
BLACK
6
CONTINUOUS
10
108.299
20
-71.0914
11
108.29
21
-71.095
0
LINE
8
BLACK
6
CONTINUOUS
10
108.29
20
-71.095
11
54.09
21
-71.195
0
LINE
8
BLACK
6
CONTINUOUS
10
54.09
20
-71.195
11
54.09
21
-71.195
0
LINE
8
BLACK
6
CONTINUOUS
10
54.09
20
-71.195
11
54.09
21
-71.195
0
LINE
8
BLACK
6
CONTINUOUS
10
54.09
20
-71.195
11
54.0813
21
-71.1914
0
LINE
8
BLACK
6
CONTINUOUS
10
54.0813
20
-71.1914
11
54.0724
21
-71.1877
0
LINE
8
BLACK
6
CONTINUOUS
10
54.0724
20
-71.1877
11
54.0723
21
-71.1877
0
LINE
8
BLACK
6
CONTINUOUS
10
54.0723
20
-71.1877
11
54.0723
21
-71.1877
0
LINE
8
BLACK
6
CONTINUOUS
10
54.0723
20
-71.1877
11
54.0687
21
-71.1788
0
LINE
8
BLACK
6
CONTINUOUS
10
54.0687
20
-71.1788
11
54.065
21
-71.17
0
LINE
8
BLACK
6
CONTINUOUS
10
54.065
20
-71.17
11
54.065
21
-71.17
0
LINE
8
BLACK
6
CONTINUOUS
10
54.065
20
-71.17
11
54.065
21
-71.17
0
LINE
8
BLACK
6
CONTINUOUS
10
54.065
20
-71.17
11
54.065
21
-40.87
0
LINE
8
BLACK
6
CONTINUOUS
10
54.065
20
-40.87
11
54.0723
21
-40.8523
0
LINE
8
BLACK
6
CONTINUOUS
10
54.0723
20
-40.8523
11
54.09
21
-40.845
0
LINE
8
BLACK
6
CONTINUOUS
10
54.09
20
-40.845
11
108.29
21
-40.845
0
LINE
8
BLACK
6
CONTINUOUS
10
108.29
20
-40.845
11
108.308
21
-40.8523
0
LINE
8
BLACK
6
CONTINUOUS
10
54.115
20
-40.895
11
54.115
21
-71.145
0
LINE
8
BLACK
6
CONTINUOUS
10
54.115
20
-71.145
11
108.265
21
-71.045
0
LINE
8
BLACK
6
CONTINUOUS
10
108.265
20
-71.045
11
108.265
21
-40.895
0
LINE
8
BLACK
6
CONTINUOUS
10
108.265
20
-40.895
11
54.115
21
-40.895
0
LINE
8
BLACK
6
CONTINUOUS
10
99.2523
20
-67.8577
11
99.245
21
-67.84
0
LINE
8
BLACK
6
CONTINUOUS
10
99.245
20
-67.84
11
99.245
21
-66.38
0
LINE
8
BLACK
6
CONTINUOUS
10
99.245
20
-66.38
11
99.2523
21
-66.3623
0
LINE
8
BLACK
6
CONTINUOUS
10
99.2523
20
-66.3623
11
99.27
21
-66.355
0
LINE
8
BLACK
6
CONTINUOUS
10
99.27
20
-66.355
11
102.23
21
-66.355
0
LINE
8
BLACK
6
CONTINUOUS
10
102.23
20
-66.355
11
102.248
21
-66.3623
0
LINE
8
BLACK
6
CONTINUOUS
10
102.248
20
-66.3623
11
102.255
21
-66.38
0
LINE
8
BLACK
6
CONTINUOUS
10
102.255
20
-66.38
11
102.255
21
-67.84
0
LINE
8
BLACK
6
CONTINUOUS
10
102.255
20
-67.84
11
102.248
21
-67.8577
0
LINE
8
BLACK
6
CONTINUOUS
10
102.248
20
-67.8577
11
102.23
21
-67.865
0
LINE
8
BLACK
6
CONTINUOUS
10
102.23
20
-67.865
11
99.27
21
-67.865
0
LINE
8
BLACK
6
CONTINUOUS
10
99.27
20
-67.865
11
99.2523
21
-67.8577
0
LINE
8
BLACK
6
CONTINUOUS
10
99.295
20
-66.405
11
99.295
21
-67.815
0
LINE
8
BLACK
6
CONTINUOUS
10
99.295
20
-67.815
11
102.205
21
-67.815
0
LINE
8
BLACK
6
CONTINUOUS
10
102.205
20
-67.815
11
102.205
21
-66.405
0
LINE
8
BLACK
6
CONTINUOUS
10
102.205
20
-66.405
11
99.295
21
-66.405
0
LINE
8
BLACK
6
CONTINUOUS
10
97.9623
20
-66.1402
11
97.955
21
-66.1225
0
LINE
8
BLACK
6
CONTINUOUS
10
97.955
20
-66.1225
11
97.955
21
-62.3625
0
LINE
8
BLACK
6
CONTINUOUS
10
97.955
20
-62.3625
11
97.9623
21
-62.3448
0
LINE
8
BLACK
6
CONTINUOUS
10
97.9623
20
-62.3448
11
97.98
21
-62.3375
0
LINE
8
BLACK
6
CONTINUOUS
10
97.98
20
-62.3375
11
100.98
21
-62.3375
0
LINE
8
BLACK
6
CONTINUOUS
10
100.98
20
-62.3375
11
100.998
21
-62.3448
0
LINE
8
BLACK
6
CONTINUOUS
10
100.998
20
-62.3448
11
101.005
21
-62.3625
0
LINE
8
BLACK
6
CONTINUOUS
10
101.005
20
-62.3625
11
101.005
21
-66.1225
0
LINE
8
BLACK
6
CONTINUOUS
10
101.005
20
-66.1225
11
100.998
21
-66.1402
0
LINE
8
BLACK
6
CONTINUOUS
10
100.998
20
-66.1402
11
100.98
21
-66.1475
0
LINE
8
BLACK
6
CONTINUOUS
10
100.98
20
-66.1475
11
97.98
21
-66.1475
0
LINE
8
BLACK
6
CONTINUOUS
10
97.98
20
-66.1475
11
97.9623
21
-66.1402
0
LINE
8
BLACK
6
CONTINUOUS
10
98.005
20
-62.3875
11
98.005
21
-66.0975
0
LINE
8
BLACK
6
CONTINUOUS
10
98.005
20
-66.0975
11
100.955
21
-66.0975
0
LINE
8
BLACK
6
CONTINUOUS
10
100.955
20
-66.0975
11
100.955
21
-62.3875
0
LINE
8
BLACK
6
CONTINUOUS
10
100.955
20
-62.3875
11
98.005
21
-62.3875
0
LINE
8
BLACK
6
CONTINUOUS
10
101.462
20
-65.7002
11
101.455
21
-65.6825
0
LINE
8
BLACK
6
CONTINUOUS
10
101.455
20
-65.6825
11
101.455
21
-62.2825
0
LINE
8
BLACK
6
CONTINUOUS
10
101.455
20
-62.2825
11
101.462
21
-62.2648
0
LINE
8
BLACK
6
CONTINUOUS
10
101.462
20
-62.2648
11
101.48
21
-62.2575
0
LINE
8
BLACK
6
CONTINUOUS
10
101.48
20
-62.2575
11
103.44
21
-62.2575
0
LINE
8
BLACK
6
CONTINUOUS
10
103.44
20
-62.2575
11
103.458
21
-62.2648
0
LINE
8
BLACK
6
CONTINUOUS
10
103.458
20
-62.2648
11
103.465
21
-62.2825
0
LINE
8
BLACK
6
CONTINUOUS
10
103.465
20
-62.2825
11
103.465
21
-65.6825
0
LINE
8
BLACK
6
CONTINUOUS
10
103.465
20
-65.6825
11
103.458
21
-65.7002
0
LINE
8
BLACK
6
CONTINUOUS
10
103.458
20
-65.7002
11
103.44
21
-65.7075
0
LINE
8
BLACK
6
CONTINUOUS
10
103.44
20
-65.7075
11
101.48
21
-65.7075
0
LINE
8
BLACK
6
CONTINUOUS
10
101.48
20
-65.7075
11
101.462
21
-65.7002
0
LINE
8
BLACK
6
CONTINUOUS
10
101.505
20
-62.3075
11
101.505
21
-65.6575
0
LINE
8
BLACK
6
CONTINUOUS
10
101.505
20
-65.6575
11
103.415
21
-65.6575
0
LINE
8
BLACK
6
CONTINUOUS
10
103.415
20
-65.6575
11
103.415
21
-62.3075
0
LINE
8
BLACK
6
CONTINUOUS
10
103.415
20
-62.3075
11
101.505
21
-62.3075
0
LINE
8
BLACK
6
CONTINUOUS
10
95.1523
20
-65.6977
11
95.145
21
-65.68
0
LINE
8
BLACK
6
CONTINUOUS
10
95.145
20
-65.68
11
95.145
21
-62.28
0
LINE
8
BLACK
6
CONTINUOUS
10
95.145
20
-62.28
11
95.1523
21
-62.2623
0
LINE
8
BLACK
6
CONTINUOUS
10
95.1523
20
-62.2623
11
95.17
21
-62.255
0
LINE
8
BLACK
6
CONTINUOUS
10
95.17
20
-62.255
11
97.13
21
-62.255
0
LINE
8
BLACK
6
CONTINUOUS
10
97.13
20
-62.255
11
97.1477
21
-62.2623
0
LINE
8
BLACK
6
CONTINUOUS
10
97.1477
20
-62.2623
11
97.155
21
-62.28
0
LINE
8
BLACK
6
CONTINUOUS
10
97.155
20
-62.28
11
97.155
21
-65.68
0
LINE
8
BLACK
6
CONTINUOUS
10
97.155
20
-65.68
11
97.1477
21
-65.6977
0
LINE
8
BLACK
6
CONTINUOUS
10
97.1477
20
-65.6977
11
97.13
21
-65.705
0
LINE
8
BLACK
6
CONTINUOUS
10
97.13
20
-65.705
11
95.17
21
-65.705
0
LINE
8
BLACK
6
CONTINUOUS
10
95.17
20
-65.705
11
95.1523
21
-65.6977
0
LINE
8
BLACK
6
CONTINUOUS
10
95.195
20
-62.305
11
95.195
21
-65.655
0
LINE
8
BLACK
6
CONTINUOUS
10
95.195
20
-65.655
11
97.105
21
-65.655
0
LINE
8
BLACK
6
CONTINUOUS
10
97.105
20
-65.655
11
97.105
21
-62.305
0
LINE
8
BLACK
6
CONTINUOUS
10
97.105
20
-62.305
11
95.195
21
-62.305
0
LINE
8
BLACK
6
CONTINUOUS
10
92.9623
20
-65.6977
11
92.955
21
-65.68
0
LINE
8
BLACK
6
CONTINUOUS
10
92.955
20
-65.68
11
92.955
21
-62.28
0
LINE
8
BLACK
6
CONTINUOUS
10
92.955
20
-62.28
11
92.9623
21
-62.2623
0
LINE
8
BLACK
6
CONTINUOUS
10
92.9623
20
-62.2623
11
92.98
21
-62.255
0
LINE
8
BLACK
6
CONTINUOUS
10
92.98
20
-62.255
11
94.94
21
-62.255
0
LINE
8
BLACK
6
CONTINUOUS
10
94.94
20
-62.255
11
94.9577
21
-62.2623
0
LINE
8
BLACK
6
CONTINUOUS
10
94.9577
20
-62.2623
11
94.965
21
-62.28
0
LINE
8
BLACK
6
CONTINUOUS
10
94.965
20
-62.28
11
94.965
21
-65.68
0
LINE
8
BLACK
6
CONTINUOUS
10
94.965
20
-65.68
11
94.9577
21
-65.6977
0
LINE
8
BLACK
6
CONTINUOUS
10
94.9577
20
-65.6977
11
94.94
21
-65.705
0
LINE
8
BLACK
6
CONTINUOUS
10
94.94
20
-65.705
11
92.98
21
-65.705
0
LINE
8
BLACK
6
CONTINUOUS
10
92.98
20
-65.705
11
92.9623
21
-65.6977
0
LINE
8
BLACK
6
CONTINUOUS
10
93.005
20
-62.305
11
93.005
21
-65.655
0
LINE
8
BLACK
6
CONTINUOUS
10
93.005
20
-65.655
11
94.915
21
-65.655
0
LINE
8
BLACK
6
CONTINUOUS
10
94.915
20
-65.655
11
94.915
21
-62.305
0
LINE
8
BLACK
6
CONTINUOUS
10
94.915
20
-62.305
11
93.005
21
-62.305
0
LINE
8
BLACK
6
CONTINUOUS
10
108.303
20
-64.5277
11
108.285
21
-64.535
0
LINE
8
BLACK
6
CONTINUOUS
10
108.285
20
-64.535
11
103.735
21
-64.535
0
LINE
8
BLACK
6
CONTINUOUS
10
103.735
20
-64.535
11
103.717
21
-64.5277
0
LINE
8
BLACK
6
CONTINUOUS
10
103.717
20
-64.5277
11
103.71
21
-64.51
0
LINE
8
BLACK
6
CONTINUOUS
10
103.71
20
-64.51
11
103.71
21
-55.71
0
LINE
8
BLACK
6
CONTINUOUS
10
103.71
20
-55.71
11
103.717
21
-55.6923
0
LINE
8
BLACK
6
CONTINUOUS
10
103.717
20
-55.6923
11
103.735
21
-55.685
0
LINE
8
BLACK
6
CONTINUOUS
10
103.735
20
-55.685
11
108.285
21
-55.685
0
LINE
8
BLACK
6
CONTINUOUS
10
108.285
20
-55.685
11
108.303
21
-55.6923
0
LINE
8
BLACK
6
CONTINUOUS
10
108.303
20
-55.6923
11
108.31
21
-55.71
0
LINE
8
BLACK
6
CONTINUOUS
10
108.31
20
-55.71
11
108.31
21
-64.51
0
LINE
8
BLACK
6
CONTINUOUS
10
108.31
20
-64.51
11
108.303
21
-64.5277
0
LINE
8
BLACK
6
CONTINUOUS
10
103.76
20
-55.735
11
103.76
21
-64.485
0
LINE
8
BLACK
6
CONTINUOUS
10
103.76
20
-64.485
11
108.26
21
-64.485
0
LINE
8
BLACK
6
CONTINUOUS
10
108.26
20
-64.485
11
108.26
21
-55.735
0
LINE
8
BLACK
6
CONTINUOUS
10
108.26
20
-55.735
11
103.76
21
-55.735
0
LINE
8
BLACK
6
CONTINUOUS
10
97.9876
20
-62.1649
11
97.97
21
-62.1225
0
LINE
8
BLACK
6
CONTINUOUS
10
97.97
20
-62.1225
11
97.97
21
-59.7225
0
LINE
8
BLACK
6
CONTINUOUS
10
97.97
20
-59.7225
11
97.9876
21
-59.6801
0
LINE
8
BLACK
6
CONTINUOUS
10
97.9876
20
-59.6801
11
98.03
21
-59.6625
0
LINE
8
BLACK
6
CONTINUOUS
10
98.03
20
-59.6625
11
100.93
21
-59.6625
0
LINE
8
BLACK
6
CONTINUOUS
10
100.93
20
-59.6625
11
100.972
21
-59.6801
0
LINE
8
BLACK
6
CONTINUOUS
10
100.972
20
-59.6801
11
100.99
21
-59.7225
0
LINE
8
BLACK
6
CONTINUOUS
10
100.99
20
-59.7225
11
100.99
21
-62.1225
0
LINE
8
BLACK
6
CONTINUOUS
10
100.99
20
-62.1225
11
100.972
21
-62.1649
0
LINE
8
BLACK
6
CONTINUOUS
10
100.972
20
-62.1649
11
100.93
21
-62.1825
0
LINE
8
BLACK
6
CONTINUOUS
10
100.93
20
-62.1825
11
98.03
21
-62.1825
0
LINE
8
BLACK
6
CONTINUOUS
10
98.03
20
-62.1825
11
97.9876
21
-62.1649
0
LINE
8
BLACK
6
CONTINUOUS
10
98.09
20
-59.7825
11
98.09
21
-62.0625
0
LINE
8
BLACK
6
CONTINUOUS
10
98.09
20
-62.0625
11
100.87
21
-62.0625
0
LINE
8
BLACK
6
CONTINUOUS
10
100.87
20
-62.0625
11
100.87
21
-59.7825
0
LINE
8
BLACK
6
CONTINUOUS
10
100.87
20
-59.7825
11
98.09
21
-59.7825
0
LINE
8
BLACK
6
CONTINUOUS
10
88.9423
20
-61.2277
11
88.935
21
-61.21
0
LINE
8
BLACK
6
CONTINUOUS
10
88.935
20
-61.21
11
88.935
21
-55.71
0
LINE
8
BLACK
6
CONTINUOUS
10
88.935
20
-55.71
11
88.9423
21
-55.6923
0
LINE
8
BLACK
6
CONTINUOUS
10
88.9423
20
-55.6923
11
88.96
21
-55.685
0
LINE
8
BLACK
6
CONTINUOUS
10
88.96
20
-55.685
11
96.3
21
-55.685
0
LINE
8
BLACK
6
CONTINUOUS
10
96.3
20
-55.685
11
96.3177
21
-55.6923
0
LINE
8
BLACK
6
CONTINUOUS
10
96.3177
20
-55.6923
11
96.325
21
-55.71
0
LINE
8
BLACK
6
CONTINUOUS
10
96.325
20
-55.71
11
96.325
21
-61.21
0
LINE
8
BLACK
6
CONTINUOUS
10
96.325
20
-61.21
11
96.3177
21
-61.2277
0
LINE
8
BLACK
6
CONTINUOUS
10
96.3177
20
-61.2277
11
96.3
21
-61.235
0
LINE
8
BLACK
6
CONTINUOUS
10
96.3
20
-61.235
11
88.96
21
-61.235
0
LINE
8
BLACK
6
CONTINUOUS
10
88.96
20
-61.235
11
88.9423
21
-61.2277
0
LINE
8
BLACK
6
CONTINUOUS
10
88.985
20
-55.735
11
88.985
21
-61.185
0
LINE
8
BLACK
6
CONTINUOUS
10
88.985
20
-61.185
11
96.275
21
-61.185
0
LINE
8
BLACK
6
CONTINUOUS
10
96.275
20
-61.185
11
96.275
21
-55.735
0
LINE
8
BLACK
6
CONTINUOUS
10
96.275
20
-55.735
11
88.985
21
-55.735
0
LINE
8
BLACK
6
CONTINUOUS
10
97.8923
20
-58.4477
11
97.885
21
-58.43
0
LINE
8
BLACK
6
CONTINUOUS
10
97.885
20
-58.43
11
97.885
21
-52.28
0
LINE
8
BLACK
6
CONTINUOUS
10
97.885
20
-52.28
11
97.8923
21
-52.2623
0
LINE
8
BLACK
6
CONTINUOUS
10
97.8923
20
-52.2623
11
97.91
21
-52.255
0
LINE
8
BLACK
6
CONTINUOUS
10
97.91
20
-52.255
11
101.51
21
-52.255
0
LINE
8
BLACK
6
CONTINUOUS
10
101.51
20
-52.255
11
101.528
21
-52.2623
0
LINE
8
BLACK
6
CONTINUOUS
10
101.528
20
-52.2623
11
101.535
21
-52.28
0
LINE
8
BLACK
6
CONTINUOUS
10
101.535
20
-52.28
11
101.535
21
-58.43
0
LINE
8
BLACK
6
CONTINUOUS
10
101.535
20
-58.43
11
101.528
21
-58.4477
0
LINE
8
BLACK
6
CONTINUOUS
10
101.528
20
-58.4477
11
101.51
21
-58.455
0
LINE
8
BLACK
6
CONTINUOUS
10
101.51
20
-58.455
11
97.91
21
-58.455
0
LINE
8
BLACK
6
CONTINUOUS
10
97.91
20
-58.455
11
97.8923
21
-58.4477
0
LINE
8
BLACK
6
CONTINUOUS
10
97.935
20
-52.305
11
97.935
21
-58.405
0
LINE
8
BLACK
6
CONTINUOUS
10
97.935
20
-58.405
11
101.485
21
-58.405
0
LINE
8
BLACK
6
CONTINUOUS
10
101.485
20
-58.405
11
101.485
21
-52.305
0
LINE
8
BLACK
6
CONTINUOUS
10
101.485
20
-52.305
11
97.935
21
-52.305
0
LINE
8
BLACK
6
CONTINUOUS
10
95.4123
20
-55.4877
11
95.405
21
-55.47
0
LINE
8
BLACK
6
CONTINUOUS
10
95.405
20
-55.47
11
95.405
21
-52.51
0
LINE
8
BLACK
6
CONTINUOUS
10
95.405
20
-52.51
11
95.4123
21
-52.4923
0
LINE
8
BLACK
6
CONTINUOUS
10
95.4123
20
-52.4923
11
95.43
21
-52.485
0
LINE
8
BLACK
6
CONTINUOUS
10
95.43
20
-52.485
11
96.89
21
-52.485
0
LINE
8
BLACK
6
CONTINUOUS
10
96.89
20
-52.485
11
96.9077
21
-52.4923
0
LINE
8
BLACK
6
CONTINUOUS
10
96.9077
20
-52.4923
11
96.915
21
-52.51
0
LINE
8
BLACK
6
CONTINUOUS
10
96.915
20
-52.51
11
96.915
21
-55.47
0
LINE
8
BLACK
6
CONTINUOUS
10
96.915
20
-55.47
11
96.9077
21
-55.4877
0
LINE
8
BLACK
6
CONTINUOUS
10
96.9077
20
-55.4877
11
96.89
21
-55.495
0
LINE
8
BLACK
6
CONTINUOUS
10
96.89
20
-55.495
11
95.43
21
-55.495
0
LINE
8
BLACK
6
CONTINUOUS
10
95.43
20
-55.495
11
95.4123
21
-55.4877
0
LINE
8
BLACK
6
CONTINUOUS
10
95.455
20
-52.535
11
95.455
21
-55.445
0
LINE
8
BLACK
6
CONTINUOUS
10
95.455
20
-55.445
11
96.865
21
-55.445
0
LINE
8
BLACK
6
CONTINUOUS
10
96.865
20
-55.445
11
96.865
21
-52.535
0
LINE
8
BLACK
6
CONTINUOUS
10
96.865
20
-52.535
11
95.455
21
-52.535
0
LINE
8
BLACK
6
CONTINUOUS
10
102.982
20
-55.0977
11
102.975
21
-55.08
0
LINE
8
BLACK
6
CONTINUOUS
10
102.975
20
-55.08
11
102.975
21
-45.68
0
LINE
8
BLACK
6
CONTINUOUS
10
102.975
20
-45.68
11
102.982
21
-45.6623
0
LINE
8
BLACK
6
CONTINUOUS
10
102.982
20
-45.6623
11
103
21
-45.655
0
LINE
8
BLACK
6
CONTINUOUS
10
103
20
-45.655
11
108.15
21
-45.655
0
LINE
8
BLACK
6
CONTINUOUS
10
108.15
20
-45.655
11
108.168
21
-45.6623
0
LINE
8
BLACK
6
CONTINUOUS
10
108.168
20
-45.6623
11
108.175
21
-45.68
0
LINE
8
BLACK
6
CONTINUOUS
10
108.175
20
-45.68
11
108.175
21
-55.08
0
LINE
8
BLACK
6
CONTINUOUS
10
108.175
20
-55.08
11
108.168
21
-55.0977
0
LINE
8
BLACK
6
CONTINUOUS
10
108.168
20
-55.0977
11
108.15
21
-55.105
0
LINE
8
BLACK
6
CONTINUOUS
10
108.15
20
-55.105
11
103
21
-55.105
0
LINE
8
BLACK
6
CONTINUOUS
10
103
20
-55.105
11
102.982
21
-55.0977
0
LINE
8
BLACK
6
CONTINUOUS
10
103.025
20
-45.705
11
103.025
21
-55.055
0
LINE
8
BLACK
6
CONTINUOUS
10
103.025
20
-55.055
11
108.125
21
-55.055
0
LINE
8
BLACK
6
CONTINUOUS
10
108.125
20
-55.055
11
108.125
21
-45.705
0
LINE
8
BLACK
6
CONTINUOUS
10
108.125
20
-45.705
11
103.025
21
-45.705
0
LINE
8
BLACK
6
CONTINUOUS
10
93.1323
20
-54.8577
11
93.125
21
-54.84
0
LINE
8
BLACK
6
CONTINUOUS
10
93.125
20
-54.84
11
93.125
21
-52.44
0
LINE
8
BLACK
6
CONTINUOUS
10
93.125
20
-52.44
11
93.1323
21
-52.4223
0
LINE
8
BLACK
6
CONTINUOUS
10
93.1323
20
-52.4223
11
93.15
21
-52.415
0
LINE
8
BLACK
6
CONTINUOUS
10
93.15
20
-52.415
11
95.19
21
-52.415
0
LINE
8
BLACK
6
CONTINUOUS
10
95.19
20
-52.415
11
95.2077
21
-52.4223
0
LINE
8
BLACK
6
CONTINUOUS
10
95.2077
20
-52.4223
11
95.215
21
-52.44
0
LINE
8
BLACK
6
CONTINUOUS
10
95.215
20
-52.44
11
95.215
21
-54.84
0
LINE
8
BLACK
6
CONTINUOUS
10
95.215
20
-54.84
11
95.2077
21
-54.8577
0
LINE
8
BLACK
6
CONTINUOUS
10
95.2077
20
-54.8577
11
95.19
21
-54.865
0
LINE
8
BLACK
6
CONTINUOUS
10
95.19
20
-54.865
11
93.15
21
-54.865
0
LINE
8
BLACK
6
CONTINUOUS
10
93.15
20
-54.865
11
93.1323
21
-54.8577
0
LINE
8
BLACK
6
CONTINUOUS
10
93.175
20
-52.465
11
93.175
21
-54.815
0
LINE
8
BLACK
6
CONTINUOUS
10
93.175
20
-54.815
11
95.165
21
-54.815
0
LINE
8
BLACK
6
CONTINUOUS
10
95.165
20
-54.815
11
95.165
21
-52.465
0
LINE
8
BLACK
6
CONTINUOUS
10
95.165
20
-52.465
11
93.175
21
-52.465
0
LINE
8
BLACK
6
CONTINUOUS
10
91.5023
20
-52.9677
11
91.495
21
-52.95
0
LINE
8
BLACK
6
CONTINUOUS
10
91.495
20
-52.95
11
91.495
21
-49.99
0
LINE
8
BLACK
6
CONTINUOUS
10
91.495
20
-49.99
11
91.5023
21
-49.9723
0
LINE
8
BLACK
6
CONTINUOUS
10
91.5023
20
-49.9723
11
91.52
21
-49.965
0
LINE
8
BLACK
6
CONTINUOUS
10
91.52
20
-49.965
11
92.98
21
-49.965
0
LINE
8
BLACK
6
CONTINUOUS
10
92.98
20
-49.965
11
92.9977
21
-49.9723
0
LINE
8
BLACK
6
CONTINUOUS
10
92.9977
20
-49.9723
11
93.005
21
-49.99
0
LINE
8
BLACK
6
CONTINUOUS
10
93.005
20
-49.99
11
93.005
21
-52.95
0
LINE
8
BLACK
6
CONTINUOUS
10
93.005
20
-52.95
11
92.9977
21
-52.9677
0
LINE
8
BLACK
6
CONTINUOUS
10
92.9977
20
-52.9677
11
92.98
21
-52.975
0
LINE
8
BLACK
6
CONTINUOUS
10
92.98
20
-52.975
11
91.52
21
-52.975
0
LINE
8
BLACK
6
CONTINUOUS
10
91.52
20
-52.975
11
91.5023
21
-52.9677
0
LINE
8
BLACK
6
CONTINUOUS
10
91.545
20
-50.015
11
91.545
21
-52.925
0
LINE
8
BLACK
6
CONTINUOUS
10
91.545
20
-52.925
11
92.955
21
-52.925
0
LINE
8
BLACK
6
CONTINUOUS
10
92.955
20
-52.925
11
92.955
21
-50.015
0
LINE
8
BLACK
6
CONTINUOUS
10
92.955
20
-50.015
11
91.545
21
-50.015
0
LINE
8
BLACK
6
CONTINUOUS
10
97.6823
20
-51.5677
11
97.675
21
-51.55
0
LINE
8
BLACK
6
CONTINUOUS
10
97.675
20
-51.55
11
97.675
21
-50.09
0
LINE
8
BLACK
6
CONTINUOUS
10
97.675
20
-50.09
11
97.6823
21
-50.0723
0
LINE
8
BLACK
6
CONTINUOUS
10
97.6823
20
-50.0723
11
97.7
21
-50.065
0
LINE
8
BLACK
6
CONTINUOUS
10
97.7
20
-50.065
11
100.66
21
-50.065
0
LINE
8
BLACK
6
CONTINUOUS
10
100.66
20
-50.065
11
100.678
21
-50.0723
0
LINE
8
BLACK
6
CONTINUOUS
10
100.678
20
-50.0723
11
100.685
21
-50.09
0
LINE
8
BLACK
6
CONTINUOUS
10
100.685
20
-50.09
11
100.685
21
-51.55
0
LINE
8
BLACK
6
CONTINUOUS
10
100.685
20
-51.55
11
100.678
21
-51.5677
0
LINE
8
BLACK
6
CONTINUOUS
10
100.678
20
-51.5677
11
100.66
21
-51.575
0
LINE
8
BLACK
6
CONTINUOUS
10
100.66
20
-51.575
11
97.7
21
-51.575
0
LINE
8
BLACK
6
CONTINUOUS
10
97.7
20
-51.575
11
97.6823
21
-51.5677
0
LINE
8
BLACK
6
CONTINUOUS
10
97.725
20
-50.115
11
97.725
21
-51.525
0
LINE
8
BLACK
6
CONTINUOUS
10
97.725
20
-51.525
11
100.635
21
-51.525
0
LINE
8
BLACK
6
CONTINUOUS
10
100.635
20
-51.525
11
100.635
21
-50.115
0
LINE
8
BLACK
6
CONTINUOUS
10
100.635
20
-50.115
11
97.725
21
-50.115
0
LINE
8
BLACK
6
CONTINUOUS
10
93.4723
20
-51.5077
11
93.465
21
-51.49
0
LINE
8
BLACK
6
CONTINUOUS
10
93.465
20
-51.49
11
93.465
21
-50.03
0
LINE
8
BLACK
6
CONTINUOUS
10
93.465
20
-50.03
11
93.4723
21
-50.0123
0
LINE
8
BLACK
6
CONTINUOUS
10
93.4723
20
-50.0123
11
93.49
21
-50.005
0
LINE
8
BLACK
6
CONTINUOUS
10
93.49
20
-50.005
11
96.45
21
-50.005
0
LINE
8
BLACK
6
CONTINUOUS
10
96.45
20
-50.005
11
96.4677
21
-50.0123
0
LINE
8
BLACK
6
CONTINUOUS
10
96.4677
20
-50.0123
11
96.475
21
-50.03
0
LINE
8
BLACK
6
CONTINUOUS
10
96.475
20
-50.03
11
96.475
21
-51.49
0
LINE
8
BLACK
6
CONTINUOUS
10
96.475
20
-51.49
11
96.4677
21
-51.5077
0
LINE
8
BLACK
6
CONTINUOUS
10
96.4677
20
-51.5077
11
96.45
21
-51.515
0
LINE
8
BLACK
6
CONTINUOUS
10
96.45
20
-51.515
11
93.49
21
-51.515
0
LINE
8
BLACK
6
CONTINUOUS
10
93.49
20
-51.515
11
93.4723
21
-51.5077
0
LINE
8
BLACK
6
CONTINUOUS
10
93.515
20
-50.055
11
93.515
21
-51.465
0
LINE
8
BLACK
6
CONTINUOUS
10
93.515
20
-51.465
11
96.425
21
-51.465
0
LINE
8
BLACK
6
CONTINUOUS
10
96.425
20
-51.465
11
96.425
21
-50.055
0
LINE
8
BLACK
6
CONTINUOUS
10
96.425
20
-50.055
11
93.515
21
-50.055
0
LINE
8
BLACK
6
CONTINUOUS
10
96.2423
20
-49.9477
11
96.235
21
-49.93
0
LINE
8
BLACK
6
CONTINUOUS
10
96.235
20
-49.93
11
96.235
21
-46.33
0
LINE
8
BLACK
6
CONTINUOUS
10
96.235
20
-46.33
11
96.2423
21
-46.3123
0
LINE
8
BLACK
6
CONTINUOUS
10
96.2423
20
-46.3123
11
96.26
21
-46.305
0
LINE
8
BLACK
6
CONTINUOUS
10
96.26
20
-46.305
11
100.06
21
-46.305
0
LINE
8
BLACK
6
CONTINUOUS
10
100.06
20
-46.305
11
100.078
21
-46.3123
0
LINE
8
BLACK
6
CONTINUOUS
10
100.078
20
-46.3123
11
100.085
21
-46.33
0
LINE
8
BLACK
6
CONTINUOUS
10
100.085
20
-46.33
11
100.085
21
-49.93
0
LINE
8
BLACK
6
CONTINUOUS
10
100.085
20
-49.93
11
100.078
21
-49.9477
0
LINE
8
BLACK
6
CONTINUOUS
10
100.078
20
-49.9477
11
100.06
21
-49.955
0
LINE
8
BLACK
6
CONTINUOUS
10
100.06
20
-49.955
11
96.26
21
-49.955
0
LINE
8
BLACK
6
CONTINUOUS
10
96.26
20
-49.955
11
96.2423
21
-49.9477
0
LINE
8
BLACK
6
CONTINUOUS
10
96.285
20
-46.355
11
96.285
21
-49.905
0
LINE
8
BLACK
6
CONTINUOUS
10
96.285
20
-49.905
11
100.035
21
-49.905
0
LINE
8
BLACK
6
CONTINUOUS
10
100.035
20
-49.905
11
100.035
21
-46.355
0
LINE
8
BLACK
6
CONTINUOUS
10
100.035
20
-46.355
11
96.285
21
-46.355
0
LINE
8
BLACK
6
CONTINUOUS
10
100.552
20
-49.8377
11
100.545
21
-49.82
0
LINE
8
BLACK
6
CONTINUOUS
10
100.545
20
-49.82
11
100.545
21
-46.42
0
LINE
8
BLACK
6
CONTINUOUS
10
100.545
20
-46.42
11
100.552
21
-46.4023
0
LINE
8
BLACK
6
CONTINUOUS
10
100.552
20
-46.4023
11
100.57
21
-46.395
0
LINE
8
BLACK
6
CONTINUOUS
10
100.57
20
-46.395
11
102.53
21
-46.395
0
LINE
8
BLACK
6
CONTINUOUS
10
102.53
20
-46.395
11
102.548
21
-46.4023
0
LINE
8
BLACK
6
CONTINUOUS
10
102.548
20
-46.4023
11
102.555
21
-46.42
0
LINE
8
BLACK
6
CONTINUOUS
10
102.555
20
-46.42
11
102.555
21
-49.82
0
LINE
8
BLACK
6
CONTINUOUS
10
102.555
20
-49.82
11
102.548
21
-49.8377
0
LINE
8
BLACK
6
CONTINUOUS
10
102.548
20
-49.8377
11
102.53
21
-49.845
0
LINE
8
BLACK
6
CONTINUOUS
10
102.53
20
-49.845
11
100.57
21
-49.845
0
LINE
8
BLACK
6
CONTINUOUS
10
100.57
20
-49.845
11
100.552
21
-49.8377
0
LINE
8
BLACK
6
CONTINUOUS
10
100.595
20
-46.445
11
100.595
21
-49.795
0
LINE
8
BLACK
6
CONTINUOUS
10
100.595
20
-49.795
11
102.505
21
-49.795
0
LINE
8
BLACK
6
CONTINUOUS
10
102.505
20
-49.795
11
102.505
21
-46.445
0
LINE
8
BLACK
6
CONTINUOUS
10
102.505
20
-46.445
11
100.595
21
-46.445
0
LINE
8
BLACK
6
CONTINUOUS
10
98.6023
20
-46.0477
11
98.595
21
-46.03
0
LINE
8
BLACK
6
CONTINUOUS
10
98.595
20
-46.03
11
98.595
21
-44.57
0
LINE
8
BLACK
6
CONTINUOUS
10
98.595
20
-44.57
11
98.6023
21
-44.5523
0
LINE
8
BLACK
6
CONTINUOUS
10
98.6023
20
-44.5523
11
98.62
21
-44.545
0
LINE
8
BLACK
6
CONTINUOUS
10
98.62
20
-44.545
11
101.58
21
-44.545
0
LINE
8
BLACK
6
CONTINUOUS
10
101.58
20
-44.545
11
101.598
21
-44.5523
0
LINE
8
BLACK
6
CONTINUOUS
10
101.598
20
-44.5523
11
101.605
21
-44.57
0
LINE
8
BLACK
6
CONTINUOUS
10
101.605
20
-44.57
11
101.605
21
-46.03
0
LINE
8
BLACK
6
CONTINUOUS
10
101.605
20
-46.03
11
101.598
21
-46.0477
0
LINE
8
BLACK
6
CONTINUOUS
10
101.598
20
-46.0477
11
101.58
21
-46.055
0
LINE
8
BLACK
6
CONTINUOUS
10
101.58
20
-46.055
11
98.62
21
-46.055
0
LINE
8
BLACK
6
CONTINUOUS
10
98.62
20
-46.055
11
98.6023
21
-46.0477
0
LINE
8
BLACK
6
CONTINUOUS
10
98.645
20
-44.595
11
98.645
21
-46.005
0
LINE
8
BLACK
6
CONTINUOUS
10
98.645
20
-46.005
11
101.555
21
-46.005
0
LINE
8
BLACK
6
CONTINUOUS
10
101.555
20
-46.005
11
101.555
21
-44.595
0
LINE
8
BLACK
6
CONTINUOUS
10
101.555
20
-44.595
11
98.645
21
-44.595
0
LINE
8
BLACK
6
CONTINUOUS
10
104.692
20
-44.9777
11
104.685
21
-44.96
0
LINE
8
BLACK
6
CONTINUOUS
10
104.685
20
-44.96
11
104.685
21
-43.5
0
LINE
8
BLACK
6
CONTINUOUS
10
104.685
20
-43.5
11
104.692
21
-43.4823
0
LINE
8
BLACK
6
CONTINUOUS
10
104.692
20
-43.4823
11
104.71
21
-43.475
0
LINE
8
BLACK
6
CONTINUOUS
10
104.71
20
-43.475
11
107.67
21
-43.475
0
LINE
8
BLACK
6
CONTINUOUS
10
107.67
20
-43.475
11
107.688
21
-43.4823
0
LINE
8
BLACK
6
CONTINUOUS
10
107.688
20
-43.4823
11
107.695
21
-43.5
0
LINE
8
BLACK
6
CONTINUOUS
10
107.695
20
-43.5
11
107.695
21
-44.96
0
LINE
8
BLACK
6
CONTINUOUS
10
107.695
20
-44.96
11
107.688
21
-44.9777
0
LINE
8
BLACK
6
CONTINUOUS
10
107.688
20
-44.9777
11
107.67
21
-44.985
0
LINE
8
BLACK
6
CONTINUOUS
10
107.67
20
-44.985
11
104.71
21
-44.985
0
LINE
8
BLACK
6
CONTINUOUS
10
104.71
20
-44.985
11
104.692
21
-44.9777
0
LINE
8
BLACK
6
CONTINUOUS
10
104.735
20
-43.525
11
104.735
21
-44.935
0
LINE
8
BLACK
6
CONTINUOUS
10
104.735
20
-44.935
11
107.645
21
-44.935
0
LINE
8
BLACK
6
CONTINUOUS
10
107.645
20
-44.935
11
107.645
21
-43.525
0
LINE
8
BLACK
6
CONTINUOUS
10
107.645
20
-43.525
11
104.735
21
-43.525
0
LINE
8
BLACK
6
CONTINUOUS
10
104.702
20
-43.0577
11
104.695
21
-43.04
0
LINE
8
BLACK
6
CONTINUOUS
10
104.695
20
-43.04
11
104.695
21
-41.58
0
LINE
8
BLACK
6
CONTINUOUS
10
104.695
20
-41.58
11
104.702
21
-41.5623
0
LINE
8
BLACK
6
CONTINUOUS
10
104.702
20
-41.5623
11
104.72
21
-41.555
0
LINE
8
BLACK
6
CONTINUOUS
10
104.72
20
-41.555
11
107.68
21
-41.555
0
LINE
8
BLACK
6
CONTINUOUS
10
107.68
20
-41.555
11
107.698
21
-41.5623
0
LINE
8
BLACK
6
CONTINUOUS
10
107.698
20
-41.5623
11
107.705
21
-41.58
0
LINE
8
BLACK
6
CONTINUOUS
10
107.705
20
-41.58
11
107.705
21
-43.04
0
LINE
8
BLACK
6
CONTINUOUS
10
107.705
20
-43.04
11
107.698
21
-43.0577
0
LINE
8
BLACK
6
CONTINUOUS
10
107.698
20
-43.0577
11
107.68
21
-43.065
0
LINE
8
BLACK
6
CONTINUOUS
10
107.68
20
-43.065
11
104.72
21
-43.065
0
LINE
8
BLACK
6
CONTINUOUS
10
104.72
20
-43.065
11
104.702
21
-43.0577
0
LINE
8
BLACK
6
CONTINUOUS
10
104.745
20
-41.605
11
104.745
21
-43.015
0
LINE
8
BLACK
6
CONTINUOUS
10
104.745
20
-43.015
11
107.655
21
-43.015
0
LINE
8
BLACK
6
CONTINUOUS
10
107.655
20
-43.015
11
107.655
21
-41.605
0
LINE
8
BLACK
6
CONTINUOUS
10
107.655
20
-41.605
11
104.745
21
-41.605
  0
ENDSEC
  0
EOF
