M48
; DRILL file {KiCad (6.0.0)} date Wed Jan 12 10:46:19 2022
; FORMAT={-:-/ absolute / metric / decimal}
; #@! TF.CreationDate,2022-01-12T10:46:19+03:00
; #@! TF.GenerationSoftware,Kicad,Pcbnew,(6.0.0)
; #@! TF.FileFunction,Plated,1,2,PTH
FMAT,2
METRIC
; #@! TA.AperFunction,Plated,PTH,ComponentDrill
T1C0.200
; #@! TA.AperFunction,Plated,PTH,ViaDrill
T2C0.400
; #@! TA.AperFunction,Plated,PTH,ComponentDrill
T3C1.000
; #@! TA.AperFunction,Plated,PTH,ComponentDrill
T4C2.200
; #@! TA.AperFunction,Plated,PTH,ComponentDrill
T5C3.200
%
G90
G05
T1
X129.015Y-131.897
X129.015Y-132.597
X129.765Y-131.897
X129.765Y-132.597
X130.515Y-131.897
X130.515Y-132.597
T2
X90.285Y-131.605
X95.085Y-122.345
X97.815Y-131.055
X100.125Y-129.095
X101.705Y-126.445
X106.335Y-125.295
X106.495Y-120.985
X106.865Y-117.645
X118.365Y-128.135
X122.265Y-131.365
X123.545Y-122.975
X123.73Y-119.975
X127.365Y-126.805
X127.385Y-128.215
X127.885Y-122.475
X132.535Y-120.445
X133.235Y-113.245
T3
X86.429Y-126.774
X88.969Y-126.774
X91.509Y-126.774
X94.049Y-126.774
X105.679Y-112.331
X108.219Y-112.331
X110.759Y-112.331
X113.299Y-112.331
T4
X86.485Y-111.005
X97.935Y-112.455
X97.935Y-136.025
X121.035Y-112.455
X121.035Y-136.025
X136.495Y-137.015
T5
X87.816Y-117.789
T0
M30
